<svg width="657" height="124" viewBox="0 0 657 124" fill="none" xmlns="http://www.w3.org/2000/svg">
<mask id="path-1-inside-1_0_1" fill="white">
<path d="M13.9325 16.0777L7.56387 30.8805L6.70325 32.4296L5.15412 33.4624L3.77712 34.323L3.43287 33.4624L2.57224 31.7411L2.22799 28.4707L4.46562 20.0366L5.15412 18.6596L2.91649 19.6924L0.850994 18.3154L0.334619 16.9384L0.162494 7.12725L3.43287 2.47987L4.63774 1.44711L7.04749 1.10287L8.08024 0.930743L9.45724 1.96349L10.6621 2.82411V4.20112L10.49 7.12725L12.0391 5.40599L13.0719 4.37324L15.4816 4.88962L16.3422 5.23386L16.5144 7.29937L13.9325 16.0777ZM107.052 21.0694L73.4877 101.968L69.0125 112.64L65.0536 120.385L63.8487 121.762L61.6111 122.623L60.2341 123.139L58.3407 122.451L56.9637 121.935L56.4474 120.558L55.931 118.664L56.2752 117.287L56.4474 116.427L54.2097 118.32L51.9721 117.976L50.5951 117.804L50.423 115.738L50.2509 113.845L51.6279 110.23L59.8899 90.4357L87.4299 23.8234L91.3888 14.0122L94.3149 7.81574L95.6919 5.40599L97.7574 4.02899L98.9622 3.16837L100.511 4.02899L101.716 4.7175L101.888 6.43874L102.06 7.64361L102.577 6.78299L105.847 5.23386L108.085 6.09449L109.462 6.61087L109.634 7.47149L110.323 10.0534L109.978 12.4631L107.052 21.0694ZM90.7002 15.2171L56.7916 96.9765L51.9721 108.853L48.1854 116.254L45.2592 118.664L43.0216 118.32L41.6446 118.148L41.4725 116.082V114.189V113.845L40.0955 114.705L38.8906 115.394L38.7185 114.017L39.7512 109.025L47.4969 90.2636L74.5205 25.0282L81.0613 9.88124L82.4382 7.29937L83.8152 7.12725L85.1922 7.29937L85.0201 9.02062L85.3644 8.15999L86.7414 5.75024L88.8069 4.37324L90.0117 3.51262L91.5609 4.37324L92.7657 5.06174L92.9379 6.78299L93.11 8.67637L90.7002 15.2171ZM77.4466 14.5286L43.7101 95.9437L35.6202 115.394L34.0711 117.631L33.3826 118.836L31.4892 119.525L30.2844 120.041L29.0795 119.008L27.3582 117.804L27.1861 116.427L27.3582 112.296L30.8007 102.829L36.1366 90.0915L43.0216 73.5675L45.0871 68.5759L46.1199 66.5104L46.4641 66.3382L48.3575 62.0351L50.7672 60.1417L50.423 61.3466L48.8739 65.3055L50.7672 64.7891L53.6934 63.7564L55.0704 62.0351L56.2752 58.0762L58.3407 49.9864L64.7094 24.684L67.9798 13.668L70.7337 7.81574L72.2829 5.57812L74.1762 4.54536L75.5532 3.85686L76.9302 4.54536L78.8236 5.23386L79.1679 7.29937L79.34 8.84849L78.9957 10.0534L77.4466 14.5286ZM31.6614 26.9216L19.9569 54.8059L17.2029 61.5187L15.3095 62.8957L15.4816 62.3794L12.5555 62.5515L11.3506 60.486L9.80149 51.8797L14.2767 38.454L23.2272 16.9384L27.8746 6.78299L29.4237 4.88962L31.8335 4.20112L33.5547 4.37324L35.7924 5.92237L36.1366 6.78299L36.8251 9.36486L35.7924 15.5614L33.7269 20.3809V20.7251L31.6614 26.9216ZM21.8502 18.3154L16.8586 30.192L13.7604 37.7655L10.1457 45.6832L8.08024 46.8881L6.87537 44.8226L7.21962 42.585L9.45724 36.0442L9.62937 35.7L8.25237 33.8066L8.76874 32.0854L10.49 27.2659L17.2029 11.2582L18.9241 7.81574L19.6126 6.61087L20.9896 5.92237L22.7109 5.57812L22.5387 6.95511L22.3666 7.64361L25.1206 8.84849L24.6042 10.5697L21.8502 18.3154ZM40.6119 34.4951L34.2432 51.5355L24.26 75.633L20.6454 82.6901L19.2684 84.2392L17.7192 83.895L15.998 82.6901L14.7931 80.1082V77.8706L18.2356 64.617V63.0679L19.2684 60.486L21.6781 54.6337L33.7269 25.3725L37.3415 18.4875L38.7185 17.4547L38.2021 19.3481L36.4809 23.9955L37.5136 23.1349L39.0627 24.3397L40.0955 25.2004L40.6119 26.9216V34.4951ZM109.118 24.8561L87.4299 98.1814L81.7498 114.877L78.6515 118.32L76.7581 119.008L74.8647 119.525L71.5944 118.148L71.4222 117.115L70.9059 114.361L71.4222 112.64L72.9714 108.165L77.7909 96.288L99.1344 44.9947L107.224 25.5446L109.634 21.0694L110.495 20.0366L110.15 20.8972L109.118 24.8561ZM44.0544 66.3382L37.5136 81.8295L33.2105 92.5012L29.9401 100.075L28.391 103.345L25.9812 105.238L25.2927 103.861L24.9485 102.829L25.4649 101.107L26.6697 97.8371L26.3255 98.3535L24.9485 98.1814L23.0551 97.8371L22.5387 96.9765L21.3339 94.3946L20.9896 91.9849L24.26 78.387L35.9645 49.9864L40.0955 40.3474L43.1937 37.2491L44.7429 38.2819L45.9477 38.9704L46.4641 40.8637L46.9805 48.093L43.538 58.2484L45.4314 56.6992L45.9477 58.0762L46.4641 59.4532L45.9477 61.1745L44.0544 66.3382Z"/>
</mask>
<path d="M13.9325 16.0777L7.56387 30.8805L6.70325 32.4296L5.15412 33.4624L3.77712 34.323L3.43287 33.4624L2.57224 31.7411L2.22799 28.4707L4.46562 20.0366L5.15412 18.6596L2.91649 19.6924L0.850994 18.3154L0.334619 16.9384L0.162494 7.12725L3.43287 2.47987L4.63774 1.44711L7.04749 1.10287L8.08024 0.930743L9.45724 1.96349L10.6621 2.82411V4.20112L10.49 7.12725L12.0391 5.40599L13.0719 4.37324L15.4816 4.88962L16.3422 5.23386L16.5144 7.29937L13.9325 16.0777ZM107.052 21.0694L73.4877 101.968L69.0125 112.64L65.0536 120.385L63.8487 121.762L61.6111 122.623L60.2341 123.139L58.3407 122.451L56.9637 121.935L56.4474 120.558L55.931 118.664L56.2752 117.287L56.4474 116.427L54.2097 118.32L51.9721 117.976L50.5951 117.804L50.423 115.738L50.2509 113.845L51.6279 110.23L59.8899 90.4357L87.4299 23.8234L91.3888 14.0122L94.3149 7.81574L95.6919 5.40599L97.7574 4.02899L98.9622 3.16837L100.511 4.02899L101.716 4.7175L101.888 6.43874L102.06 7.64361L102.577 6.78299L105.847 5.23386L108.085 6.09449L109.462 6.61087L109.634 7.47149L110.323 10.0534L109.978 12.4631L107.052 21.0694ZM90.7002 15.2171L56.7916 96.9765L51.9721 108.853L48.1854 116.254L45.2592 118.664L43.0216 118.32L41.6446 118.148L41.4725 116.082V114.189V113.845L40.0955 114.705L38.8906 115.394L38.7185 114.017L39.7512 109.025L47.4969 90.2636L74.5205 25.0282L81.0613 9.88124L82.4382 7.29937L83.8152 7.12725L85.1922 7.29937L85.0201 9.02062L85.3644 8.15999L86.7414 5.75024L88.8069 4.37324L90.0117 3.51262L91.5609 4.37324L92.7657 5.06174L92.9379 6.78299L93.11 8.67637L90.7002 15.2171ZM77.4466 14.5286L43.7101 95.9437L35.6202 115.394L34.0711 117.631L33.3826 118.836L31.4892 119.525L30.2844 120.041L29.0795 119.008L27.3582 117.804L27.1861 116.427L27.3582 112.296L30.8007 102.829L36.1366 90.0915L43.0216 73.5675L45.0871 68.5759L46.1199 66.5104L46.4641 66.3382L48.3575 62.0351L50.7672 60.1417L50.423 61.3466L48.8739 65.3055L50.7672 64.7891L53.6934 63.7564L55.0704 62.0351L56.2752 58.0762L58.3407 49.9864L64.7094 24.684L67.9798 13.668L70.7337 7.81574L72.2829 5.57812L74.1762 4.54536L75.5532 3.85686L76.9302 4.54536L78.8236 5.23386L79.1679 7.29937L79.34 8.84849L78.9957 10.0534L77.4466 14.5286ZM31.6614 26.9216L19.9569 54.8059L17.2029 61.5187L15.3095 62.8957L15.4816 62.3794L12.5555 62.5515L11.3506 60.486L9.80149 51.8797L14.2767 38.454L23.2272 16.9384L27.8746 6.78299L29.4237 4.88962L31.8335 4.20112L33.5547 4.37324L35.7924 5.92237L36.1366 6.78299L36.8251 9.36486L35.7924 15.5614L33.7269 20.3809V20.7251L31.6614 26.9216ZM21.8502 18.3154L16.8586 30.192L13.7604 37.7655L10.1457 45.6832L8.08024 46.8881L6.87537 44.8226L7.21962 42.585L9.45724 36.0442L9.62937 35.7L8.25237 33.8066L8.76874 32.0854L10.49 27.2659L17.2029 11.2582L18.9241 7.81574L19.6126 6.61087L20.9896 5.92237L22.7109 5.57812L22.5387 6.95511L22.3666 7.64361L25.1206 8.84849L24.6042 10.5697L21.8502 18.3154ZM40.6119 34.4951L34.2432 51.5355L24.26 75.633L20.6454 82.6901L19.2684 84.2392L17.7192 83.895L15.998 82.6901L14.7931 80.1082V77.8706L18.2356 64.617V63.0679L19.2684 60.486L21.6781 54.6337L33.7269 25.3725L37.3415 18.4875L38.7185 17.4547L38.2021 19.3481L36.4809 23.9955L37.5136 23.1349L39.0627 24.3397L40.0955 25.2004L40.6119 26.9216V34.4951ZM109.118 24.8561L87.4299 98.1814L81.7498 114.877L78.6515 118.32L76.7581 119.008L74.8647 119.525L71.5944 118.148L71.4222 117.115L70.9059 114.361L71.4222 112.64L72.9714 108.165L77.7909 96.288L99.1344 44.9947L107.224 25.5446L109.634 21.0694L110.495 20.0366L110.15 20.8972L109.118 24.8561ZM44.0544 66.3382L37.5136 81.8295L33.2105 92.5012L29.9401 100.075L28.391 103.345L25.9812 105.238L25.2927 103.861L24.9485 102.829L25.4649 101.107L26.6697 97.8371L26.3255 98.3535L24.9485 98.1814L23.0551 97.8371L22.5387 96.9765L21.3339 94.3946L20.9896 91.9849L24.26 78.387L35.9645 49.9864L40.0955 40.3474L43.1937 37.2491L44.7429 38.2819L45.9477 38.9704L46.4641 40.8637L46.9805 48.093L43.538 58.2484L45.4314 56.6992L45.9477 58.0762L46.4641 59.4532L45.9477 61.1745L44.0544 66.3382Z" fill="white"/>
<path d="M13.9325 16.0777L15.2501 16.6446L15.2842 16.5653L15.3086 16.4825L13.9325 16.0777ZM7.56387 30.8805L8.81774 31.5771L8.85288 31.5138L8.88147 31.4474L7.56387 30.8805ZM6.70325 32.4296L7.4989 33.6231L7.78823 33.4302L7.95711 33.1262L6.70325 32.4296ZM5.15412 33.4624L5.91434 34.6787L5.93222 34.6675L5.94977 34.6558L5.15412 33.4624ZM3.77712 34.323L2.44534 34.8557L3.0825 36.4486L4.53734 35.5393L3.77712 34.323ZM3.43287 33.4624L4.76465 32.9297L4.7425 32.8743L4.71581 32.8209L3.43287 33.4624ZM2.57224 31.7411L1.14575 31.8913L1.17298 32.15L1.2893 32.3826L2.57224 31.7411ZM2.22799 28.4707L0.841583 28.1029L0.77385 28.3582L0.801501 28.6209L2.22799 28.4707ZM4.46562 20.0366L3.18267 19.3951L3.11691 19.5267L3.07921 19.6688L4.46562 20.0366ZM5.15412 18.6596L6.43706 19.3011L8.26575 15.6437L4.55303 17.3573L5.15412 18.6596ZM2.91649 19.6924L2.12085 20.8858L2.78875 21.3311L3.51758 20.9947L2.91649 19.6924ZM0.850994 18.3154L-0.492053 18.819L-0.329605 19.2522L0.0553489 19.5088L0.850994 18.3154ZM0.334619 16.9384L-1.09953 16.9635L-1.0952 17.2106L-1.00843 17.442L0.334619 16.9384ZM0.162494 7.12725L-1.01055 6.30177L-1.27987 6.68449L-1.27166 7.15241L0.162494 7.12725ZM3.43287 2.47987L2.49939 1.39081L2.36312 1.50762L2.25983 1.6544L3.43287 2.47987ZM4.63774 1.44711L4.4349 0.0271523L4.0214 0.0862226L3.70426 0.358056L4.63774 1.44711ZM7.04749 1.10287L7.25034 2.52283L7.26685 2.52047L7.2833 2.51773L7.04749 1.10287ZM8.08024 0.930743L8.94087 -0.216758L8.44985 -0.585018L7.84444 -0.484116L8.08024 0.930743ZM9.45724 1.96349L8.59662 3.11099L8.60996 3.121L8.62353 3.13069L9.45724 1.96349ZM10.6621 2.82411H12.0965V2.08596L11.4958 1.65691L10.6621 2.82411ZM10.6621 4.20112L12.094 4.28535L12.0965 4.24327V4.20112H10.6621ZM10.49 7.12725L9.0581 7.04302L8.81771 11.1295L11.5562 8.08679L10.49 7.12725ZM12.0391 5.40599L11.0249 4.39173L10.9982 4.4184L10.973 4.44644L12.0391 5.40599ZM13.0719 4.37324L13.3724 2.9707L12.6094 2.8072L12.0576 3.35898L13.0719 4.37324ZM15.4816 4.88962L16.0143 3.55783L15.9013 3.5126L15.7822 3.48708L15.4816 4.88962ZM16.3422 5.23386L17.7717 5.11475L17.698 4.23131L16.875 3.90208L16.3422 5.23386ZM16.5144 7.29937L17.8905 7.7041L17.966 7.44715L17.9438 7.18025L16.5144 7.29937ZM107.052 21.0694L108.377 21.619L108.395 21.5756L108.41 21.5311L107.052 21.0694ZM73.4877 101.968L74.8105 102.523L74.8126 102.518L73.4877 101.968ZM69.0125 112.64L70.2897 113.293L70.3143 113.244L70.3353 113.195L69.0125 112.64ZM65.0536 120.385L66.1331 121.33L66.25 121.196L66.3308 121.038L65.0536 120.385ZM63.8487 121.762L64.3637 123.101L64.6947 122.974L64.9282 122.707L63.8487 121.762ZM61.6111 122.623L62.1148 123.966L62.126 123.962L61.6111 122.623ZM60.2341 123.139L59.7439 124.488L60.2418 124.669L60.7378 124.483L60.2341 123.139ZM58.3407 122.451L57.8371 123.794L57.8438 123.797L57.8506 123.799L58.3407 122.451ZM56.9637 121.935L55.6207 122.438L55.8496 123.049L56.4601 123.278L56.9637 121.935ZM56.4474 120.558L55.0635 120.935L55.081 120.999L55.1043 121.061L56.4474 120.558ZM55.931 118.664L54.5394 118.316L54.4485 118.68L54.5472 119.042L55.931 118.664ZM56.2752 117.287L57.6668 117.635L57.6751 117.602L57.6818 117.569L56.2752 117.287ZM56.4474 116.427L57.8539 116.708L58.6605 112.675L55.5208 115.332L56.4474 116.427ZM54.2097 118.32L53.9916 119.738L54.6375 119.837L55.1363 119.415L54.2097 118.32ZM51.9721 117.976L52.1902 116.558L52.1702 116.555L52.15 116.552L51.9721 117.976ZM50.5951 117.804L49.1657 117.923L49.2624 119.083L50.4172 119.227L50.5951 117.804ZM50.423 115.738L51.8525 115.619L51.8515 115.608L50.423 115.738ZM50.2509 113.845L48.9105 113.334L48.7923 113.644L48.8224 113.975L50.2509 113.845ZM51.6279 110.23L50.3042 109.678L50.2955 109.698L50.2875 109.719L51.6279 110.23ZM59.8899 90.4357L61.2136 90.9882L61.2154 90.9838L59.8899 90.4357ZM87.4299 23.8234L88.7555 24.3714L88.76 24.3601L87.4299 23.8234ZM91.3888 14.0122L90.0917 13.3998L90.0741 13.4372L90.0586 13.4755L91.3888 14.0122ZM94.3149 7.81574L93.0695 7.10409L93.0417 7.15266L93.0178 7.20325L94.3149 7.81574ZM95.6919 5.40599L94.8962 4.21251L94.6145 4.40034L94.4465 4.69434L95.6919 5.40599ZM97.7574 4.02899L98.553 5.22247L98.5723 5.20964L98.5911 5.19619L97.7574 4.02899ZM98.9622 3.16837L99.6588 1.9145L98.8663 1.4742L98.1285 2.00117L98.9622 3.16837ZM100.511 4.02899L101.223 2.78361L101.216 2.77932L101.208 2.77512L100.511 4.02899ZM101.716 4.7175L103.144 4.57477L103.07 3.83898L102.428 3.47211L101.716 4.7175ZM101.888 6.43874L100.461 6.58147L100.464 6.61161L100.468 6.64159L101.888 6.43874ZM102.06 7.64361L100.641 7.84646L101.212 11.8459L103.29 8.3816L102.06 7.64361ZM102.577 6.78299L101.963 5.48669L101.57 5.6726L101.347 6.04501L102.577 6.78299ZM105.847 5.23386L106.362 3.8951L105.789 3.67449L105.233 3.93757L105.847 5.23386ZM108.085 6.09449L107.57 7.4333L107.581 7.43753L108.085 6.09449ZM109.462 6.61087L110.868 6.32957L110.712 5.54777L109.966 5.26782L109.462 6.61087ZM109.634 7.47149L108.227 7.75279L108.236 7.79726L108.248 7.84108L109.634 7.47149ZM110.323 10.0534L111.742 10.2562L111.784 9.96653L111.708 9.68378L110.323 10.0534ZM109.978 12.4631L111.336 12.9248L111.379 12.7983L111.398 12.666L109.978 12.4631ZM90.7002 15.2171L92.0252 15.7666L92.0362 15.74L92.0462 15.713L90.7002 15.2171ZM56.7916 96.9765L55.4666 96.427L55.4625 96.4371L56.7916 96.9765ZM51.9721 108.853L53.2491 109.506L53.2776 109.451L53.3012 109.392L51.9721 108.853ZM48.1854 116.254L49.0972 117.362L49.3268 117.173L49.4623 116.908L48.1854 116.254ZM45.2592 118.664L45.0411 120.082L45.6756 120.18L46.1711 119.771L45.2592 118.664ZM43.0216 118.32L43.2397 116.902L43.2197 116.899L43.1995 116.897L43.0216 118.32ZM41.6446 118.148L40.2152 118.267L40.3119 119.427L41.4667 119.571L41.6446 118.148ZM41.4725 116.082H40.0381V116.142L40.0431 116.201L41.4725 116.082ZM41.4725 113.845H42.9069V111.257L40.7123 112.628L41.4725 113.845ZM40.0955 114.705L40.8071 115.951L40.8317 115.937L40.8557 115.922L40.0955 114.705ZM38.8906 115.394L37.4673 115.572L37.7342 117.707L39.6023 116.639L38.8906 115.394ZM38.7185 114.017L37.3139 113.726L37.2657 113.959L37.2952 114.195L38.7185 114.017ZM39.7512 109.025L38.4254 108.478L38.3739 108.603L38.3466 108.735L39.7512 109.025ZM47.4969 90.2636L46.1717 89.7147L46.171 89.7163L47.4969 90.2636ZM74.5205 25.0282L73.2037 24.4596L73.1994 24.4694L73.1953 24.4793L74.5205 25.0282ZM81.0613 9.88124L79.7956 9.20624L79.7678 9.25837L79.7444 9.3126L81.0613 9.88124ZM82.4382 7.29937L82.2603 5.87607L81.5225 5.96829L81.1726 6.62437L82.4382 7.29937ZM83.8152 7.12725L83.9932 5.70395L83.8152 5.68171L83.6373 5.70395L83.8152 7.12725ZM85.1922 7.29937L86.6195 7.44209L86.7587 6.04964L85.3702 5.87607L85.1922 7.29937ZM85.0201 9.02062L83.5929 8.87789L86.3519 9.55332L85.0201 9.02062ZM85.3644 8.15999L84.119 7.44834L84.0696 7.53481L84.0326 7.62728L85.3644 8.15999ZM86.7414 5.75024L85.9457 4.55677L85.664 4.7446L85.496 5.03859L86.7414 5.75024ZM88.8069 4.37324L89.6025 5.56671L89.6218 5.55388L89.6406 5.54044L88.8069 4.37324ZM90.0117 3.51262L90.7083 2.25875L89.9158 1.81844L89.178 2.34541L90.0117 3.51262ZM91.5609 4.37324L92.2725 3.12786L92.265 3.12357L92.2575 3.11937L91.5609 4.37324ZM92.7657 5.06174L94.193 4.91901L94.1194 4.18323L93.4774 3.81636L92.7657 5.06174ZM92.9379 6.78299L94.3664 6.65312L94.3651 6.64026L92.9379 6.78299ZM93.11 8.67637L94.4559 9.17224L94.5678 8.86869L94.5385 8.54651L93.11 8.67637ZM77.4466 14.5286L78.7717 15.0777L78.7881 15.0382L78.8021 14.9978L77.4466 14.5286ZM43.7101 95.9437L45.0345 96.4946L45.0352 96.4928L43.7101 95.9437ZM35.6202 115.394L36.7996 116.21L36.8862 116.085L36.9446 115.945L35.6202 115.394ZM34.0711 117.631L32.8918 116.815L32.8565 116.866L32.8257 116.92L34.0711 117.631ZM33.3826 118.836L33.8728 120.184L34.3671 120.005L34.628 119.548L33.3826 118.836ZM31.4892 119.525L30.9991 118.177L30.9612 118.191L30.9242 118.206L31.4892 119.525ZM30.2844 120.041L29.3509 121.13L30.0288 121.711L30.8494 121.36L30.2844 120.041ZM29.0795 119.008L30.013 117.919L29.9596 117.874L29.9021 117.833L29.0795 119.008ZM27.3582 117.804L25.9349 117.982L26.0139 118.613L26.5357 118.979L27.3582 117.804ZM27.1861 116.427L25.753 116.367L25.748 116.486L25.7628 116.605L27.1861 116.427ZM27.3582 112.296L26.0102 111.805L25.9344 112.014L25.9251 112.236L27.3582 112.296ZM30.8007 102.829L29.4778 102.275L29.4645 102.306L29.4527 102.339L30.8007 102.829ZM36.1366 90.0915L37.4596 90.6457L37.4607 90.6432L36.1366 90.0915ZM43.0216 73.5675L44.3457 74.1192L44.347 74.1159L43.0216 73.5675ZM45.0871 68.5759L43.8042 67.9344L43.7813 67.9802L43.7617 68.0274L45.0871 68.5759ZM46.1199 66.5104L45.4784 65.2274L45.0507 65.4413L44.8369 65.8689L46.1199 66.5104ZM46.4641 66.3382L47.1056 67.6212L47.5686 67.3897L47.777 66.9159L46.4641 66.3382ZM48.3575 62.0351L47.4713 60.9072L47.1891 61.129L47.0446 61.4574L48.3575 62.0351ZM50.7672 60.1417L52.1464 60.5358L53.3629 56.2781L49.8811 59.0139L50.7672 60.1417ZM50.423 61.3466L51.7587 61.8693L51.7835 61.806L51.8022 61.7407L50.423 61.3466ZM48.8739 65.3055L47.5381 64.7828L46.4983 67.4401L49.2513 66.6893L48.8739 65.3055ZM50.7672 64.7891L51.1447 66.1729L51.1952 66.1592L51.2446 66.1417L50.7672 64.7891ZM53.6934 63.7564L54.1708 65.109L54.5573 64.9725L54.8134 64.6524L53.6934 63.7564ZM55.0704 62.0351L56.1904 62.9312L56.3624 62.7162L56.4426 62.4528L55.0704 62.0351ZM56.2752 58.0762L57.6475 58.4939L57.657 58.4627L57.665 58.4311L56.2752 58.0762ZM58.3407 49.9864L59.7305 50.3412L59.7317 50.3365L58.3407 49.9864ZM64.7094 24.684L63.3343 24.2758L63.3257 24.3047L63.3184 24.3339L64.7094 24.684ZM67.9798 13.668L66.6819 13.0572L66.6356 13.1556L66.6047 13.2598L67.9798 13.668ZM70.7337 7.81574L69.5544 6.99927L69.4866 7.09721L69.4359 7.20499L70.7337 7.81574ZM72.2829 5.57812L71.596 4.31889L71.2973 4.48185L71.1035 4.76166L72.2829 5.57812ZM74.1762 4.54536L73.5348 3.26242L73.5119 3.27387L73.4894 3.28613L74.1762 4.54536ZM75.5532 3.85686L76.1947 2.57392L75.5533 2.25318L74.9118 2.57392L75.5532 3.85686ZM76.9302 4.54536L76.2888 5.82831L76.3625 5.86519L76.4401 5.89338L76.9302 4.54536ZM78.8236 5.23386L80.2385 4.99806L80.1008 4.17203L79.3138 3.88585L78.8236 5.23386ZM79.1679 7.29937L80.5935 7.14096L80.5892 7.10211L80.5827 7.06356L79.1679 7.29937ZM79.34 8.84849L80.7192 9.24255L80.7968 8.97089L80.7656 8.69009L79.34 8.84849ZM78.9957 10.0534L80.3512 10.5226L80.3641 10.4853L80.3749 10.4474L78.9957 10.0534ZM31.6614 26.9216L32.984 27.4768L33.005 27.4267L33.0221 27.3752L31.6614 26.9216ZM19.9569 54.8059L18.6342 54.2507L18.6298 54.2614L19.9569 54.8059ZM17.2029 61.5187L18.0465 62.6788L18.3755 62.4395L18.5299 62.0632L17.2029 61.5187ZM15.3095 62.8957L13.9487 62.4422L12.5333 66.6884L16.1532 64.0558L15.3095 62.8957ZM15.4816 62.3794L16.8424 62.833L17.5124 60.8231L15.3974 60.9475L15.4816 62.3794ZM12.5555 62.5515L11.3165 63.2742L11.7604 64.0351L12.6397 63.9834L12.5555 62.5515ZM11.3506 60.486L9.93893 60.7401L9.98386 60.9897L10.1116 61.2087L11.3506 60.486ZM9.80149 51.8797L8.44073 51.4262L8.32494 51.7735L8.38981 52.1338L9.80149 51.8797ZM14.2767 38.454L12.9524 37.9031L12.9324 37.9511L12.916 38.0004L14.2767 38.454ZM23.2272 16.9384L21.923 16.3415L21.9125 16.3643L21.9029 16.3874L23.2272 16.9384ZM27.8746 6.78299L26.7645 5.87469L26.6473 6.01788L26.5703 6.18611L27.8746 6.78299ZM29.4237 4.88962L29.0297 3.51043L28.5979 3.63379L28.3136 3.98132L29.4237 4.88962ZM31.8335 4.20112L31.9762 2.77386L31.7032 2.74656L31.4394 2.82193L31.8335 4.20112ZM33.5547 4.37324L34.3712 3.19391L34.0664 2.98287L33.6975 2.94598L33.5547 4.37324ZM35.7924 5.92237L37.1242 5.38965L36.9638 4.98879L36.6088 4.74303L35.7924 5.92237ZM36.1366 6.78299L37.5226 6.4134L37.5004 6.33021L37.4684 6.25027L36.1366 6.78299ZM36.8251 9.36486L38.24 9.60067L38.291 9.29485L38.2111 8.99528L36.8251 9.36486ZM35.7924 15.5614L37.1108 16.1264L37.1788 15.9676L37.2072 15.7972L35.7924 15.5614ZM33.7269 20.3809L32.4085 19.8158L32.2925 20.0864V20.3809H33.7269ZM33.7269 20.7251L35.0876 21.1787L35.1612 20.9579V20.7251H33.7269ZM21.8502 18.3154L23.1726 18.8711L23.1882 18.8339L23.2017 18.7959L21.8502 18.3154ZM16.8586 30.192L15.5362 29.6362L15.531 29.6489L16.8586 30.192ZM13.7604 37.7655L15.0652 38.3612L15.0771 38.3351L15.088 38.3086L13.7604 37.7655ZM10.1457 45.6832L10.8685 46.9222L11.2616 46.6929L11.4506 46.2789L10.1457 45.6832ZM8.08024 46.8881L6.84126 47.6109L7.564 48.8498L8.80298 48.1271L8.08024 46.8881ZM6.87537 44.8226L5.45767 44.6045L5.38043 45.1066L5.63639 45.5454L6.87537 44.8226ZM7.21962 42.585L5.86247 42.1207L5.82127 42.2411L5.80192 42.3669L7.21962 42.585ZM9.45724 36.0442L8.1743 35.4028L8.13125 35.4889L8.10009 35.58L9.45724 36.0442ZM9.62937 35.7L10.9123 36.3415L11.3023 35.5615L10.7894 34.8563L9.62937 35.7ZM8.25237 33.8066L6.87849 33.3945L6.67422 34.0754L7.09234 34.6503L8.25237 33.8066ZM8.76874 32.0854L7.41793 31.6029L7.40549 31.6378L7.39486 31.6732L8.76874 32.0854ZM10.49 27.2659L9.16722 26.7112L9.15223 26.7469L9.13918 26.7834L10.49 27.2659ZM17.2029 11.2582L15.9199 10.6168L15.8986 10.6595L15.8801 10.7035L17.2029 11.2582ZM18.9241 7.81574L17.6787 7.10409L17.659 7.13865L17.6412 7.17427L18.9241 7.81574ZM19.6126 6.61087L18.9711 5.32792L18.5827 5.52215L18.3672 5.89922L19.6126 6.61087ZM20.9896 5.92237L20.7083 4.51584L20.52 4.55352L20.3481 4.63942L20.9896 5.92237ZM22.7109 5.57812L24.1342 5.75603L24.381 3.78132L22.4296 4.1716L22.7109 5.57812ZM22.5387 6.95511L23.9303 7.303L23.9513 7.21897L23.962 7.13303L22.5387 6.95511ZM22.3666 7.64361L20.9751 7.29573L20.681 8.47182L21.7917 8.95773L22.3666 7.64361ZM25.1206 8.84849L26.4945 9.26066L26.8596 8.04366L25.6955 7.53438L25.1206 8.84849ZM24.6042 10.5697L25.9557 11.0503L25.9678 11.0164L25.9781 10.9819L24.6042 10.5697ZM40.6119 34.4951L41.9555 34.9973L42.0462 34.7544V34.4951H40.6119ZM34.2432 51.5355L35.5684 52.0845L35.578 52.0612L35.5868 52.0376L34.2432 51.5355ZM24.26 75.633L25.5367 76.2869L25.563 76.2354L25.5852 76.182L24.26 75.633ZM20.6454 82.6901L21.7174 83.6431L21.8388 83.5066L21.922 83.344L20.6454 82.6901ZM19.2684 84.2392L18.9572 85.6395L19.7803 85.8224L20.3404 85.1922L19.2684 84.2392ZM17.7192 83.895L16.8967 85.0701L17.13 85.2334L17.4081 85.2952L17.7192 83.895ZM15.998 82.6901L14.6982 83.2967L14.8607 83.6449L15.1754 83.8652L15.998 82.6901ZM14.7931 80.1082H13.3587V80.4265L13.4933 80.7148L14.7931 80.1082ZM14.7931 77.8706L13.4048 77.51L13.3587 77.6874V77.8706H14.7931ZM18.2356 64.617L19.6239 64.9776L19.67 64.8002V64.617H18.2356ZM18.2356 63.0679L16.9038 62.5352L16.8012 62.7916V63.0679H18.2356ZM19.2684 60.486L17.942 59.9399L17.9393 59.9466L17.9366 59.9533L19.2684 60.486ZM21.6781 54.6337L20.3518 54.0876L20.3518 54.0876L21.6781 54.6337ZM33.7269 25.3725L32.4569 24.7058L32.4259 24.7647L32.4005 24.8264L33.7269 25.3725ZM37.3415 18.4875L36.4809 17.34L36.2219 17.5342L36.0715 17.8207L37.3415 18.4875ZM38.7185 17.4547L40.1023 17.8322L41.2023 13.7989L37.8579 16.3072L38.7185 17.4547ZM38.2021 19.3481L39.5472 19.8463L39.5693 19.7868L39.586 19.7255L38.2021 19.3481ZM36.4809 23.9955L35.1358 23.4973L33.2682 28.5399L37.3991 25.0974L36.4809 23.9955ZM37.5136 23.1349L38.3942 22.0026L37.4826 21.2936L36.5954 22.033L37.5136 23.1349ZM39.0627 24.3397L39.981 23.2378L39.9624 23.2223L39.9434 23.2075L39.0627 24.3397ZM40.0955 25.2004L41.4694 24.7882L41.3453 24.3748L41.0138 24.0984L40.0955 25.2004ZM40.6119 26.9216H42.0462V26.7111L41.9858 26.5095L40.6119 26.9216ZM109.118 24.8561L110.493 25.2629L110.5 25.2407L110.506 25.2182L109.118 24.8561ZM87.4299 98.1814L88.7878 98.6434L88.7971 98.616L88.8053 98.5882L87.4299 98.1814ZM81.7498 114.877L82.8159 115.837L83.0129 115.618L83.1077 115.339L81.7498 114.877ZM78.6515 118.32L79.1417 119.668L79.4782 119.546L79.7177 119.28L78.6515 118.32ZM76.7581 119.008L77.1355 120.392L77.1927 120.377L77.2483 120.357L76.7581 119.008ZM74.8647 119.525L74.3081 120.847L74.7645 121.039L75.2422 120.909L74.8647 119.525ZM71.5944 118.148L70.1795 118.384L70.3094 119.163L71.0378 119.47L71.5944 118.148ZM71.4222 117.115L72.8371 116.879L72.8347 116.865L72.8321 116.851L71.4222 117.115ZM70.9059 114.361L69.532 113.949L69.4318 114.283L69.4961 114.625L70.9059 114.361ZM71.4222 112.64L70.0668 112.171L70.057 112.199L70.0484 112.228L71.4222 112.64ZM72.9714 108.165L71.6423 107.625L71.6282 107.66L71.6159 107.695L72.9714 108.165ZM77.7909 96.288L76.4665 95.7369L76.4618 95.7486L77.7909 96.288ZM99.1344 44.9947L100.459 45.5458L100.459 45.5456L99.1344 44.9947ZM107.224 25.5446L105.961 24.8646L105.927 24.9276L105.9 24.9938L107.224 25.5446ZM109.634 21.0694L108.532 20.1511L108.44 20.2621L108.371 20.3893L109.634 21.0694ZM110.495 20.0366L111.826 20.5693L109.393 19.1184L110.495 20.0366ZM110.15 20.8972L108.819 20.3645L108.785 20.4481L108.762 20.5352L110.15 20.8972ZM44.0544 66.3382L45.3758 66.8962L45.3892 66.8644L45.4011 66.832L44.0544 66.3382ZM37.5136 81.8295L36.1922 81.2716L36.1877 81.2823L36.1833 81.2931L37.5136 81.8295ZM33.2105 92.5012L34.5273 93.0699L34.5343 93.0539L34.5408 93.0377L33.2105 92.5012ZM29.9401 100.075L31.2364 100.689L31.2471 100.666L31.257 100.643L29.9401 100.075ZM28.391 103.345L29.2772 104.473L29.5427 104.264L29.6873 103.959L28.391 103.345ZM25.9812 105.238L24.6983 105.88L25.4847 107.453L26.8674 106.366L25.9812 105.238ZM25.2927 103.861L23.932 104.315L23.9642 104.412L24.0098 104.503L25.2927 103.861ZM24.9485 102.829L23.5746 102.417L23.4441 102.852L23.5877 103.282L24.9485 102.829ZM25.4649 101.107L24.1189 100.612L24.1037 100.653L24.091 100.695L25.4649 101.107ZM26.6697 97.8371L28.0157 98.333L25.4763 97.0415L26.6697 97.8371ZM26.3255 98.3535L26.1476 99.7768L27.0272 99.8868L27.519 99.1491L26.3255 98.3535ZM24.9485 98.1814L24.6919 99.5926L24.7311 99.5997L24.7706 99.6047L24.9485 98.1814ZM23.0551 97.8371L21.8252 98.5751L22.1594 99.1321L22.7985 99.2484L23.0551 97.8371ZM22.5387 96.9765L21.2389 97.5831L21.2704 97.6506L21.3088 97.7145L22.5387 96.9765ZM21.3339 94.3946L19.9139 94.5975L19.944 94.8083L20.0341 95.0012L21.3339 94.3946ZM20.9896 91.9849L19.595 91.6495L19.5309 91.9162L19.5697 92.1877L20.9896 91.9849ZM24.26 78.387L22.9338 77.8405L22.8914 77.9434L22.8654 78.0516L24.26 78.387ZM35.9645 49.9864L34.6461 49.4213L34.6421 49.4306L34.6383 49.4398L35.9645 49.9864ZM40.0955 40.3474L39.0812 39.3331L38.8859 39.5284L38.7771 39.7823L40.0955 40.3474ZM43.1937 37.2491L43.9894 36.0556L43.011 35.4034L42.1795 36.2349L43.1937 37.2491ZM44.7429 38.2819L43.9472 39.4753L43.9883 39.5027L44.0312 39.5273L44.7429 38.2819ZM45.9477 38.9704L47.3316 38.593L47.1753 38.0198L46.6594 37.725L45.9477 38.9704ZM46.4641 40.8637L47.8948 40.7615L47.8849 40.6216L47.848 40.4863L46.4641 40.8637ZM46.9805 48.093L48.3389 48.5535L48.4318 48.2794L48.4112 47.9908L46.9805 48.093ZM43.538 58.2484L42.1795 57.7879L40.5728 62.5277L44.4463 59.3585L43.538 58.2484ZM45.4314 56.6992L46.7744 56.1956L46.0718 54.322L44.5231 55.5891L45.4314 56.6992ZM45.9477 58.0762L44.6047 58.5799L44.6047 58.5799L45.9477 58.0762ZM46.4641 59.4532L47.838 59.8654L47.9769 59.4023L47.8072 58.9496L46.4641 59.4532ZM45.9477 61.1745L47.2944 61.6683L47.3093 61.6279L47.3216 61.5867L45.9477 61.1745ZM12.6149 15.5109L6.24626 30.3136L8.88147 31.4474L15.2501 16.6446L12.6149 15.5109ZM6.31 30.1839L5.44938 31.733L7.95711 33.1262L8.81774 31.5771L6.31 30.1839ZM5.90759 31.2361L4.35847 32.2689L5.94977 34.6558L7.4989 33.6231L5.90759 31.2361ZM4.3939 32.246L3.0169 33.1066L4.53734 35.5393L5.91434 34.6787L4.3939 32.246ZM5.1089 33.7903L4.76465 32.9297L2.10109 33.9951L2.44534 34.8557L5.1089 33.7903ZM4.71581 32.8209L3.85519 31.0996L1.2893 32.3826L2.14993 34.1038L4.71581 32.8209ZM3.99874 31.591L3.65449 28.3206L0.801501 28.6209L1.14575 31.8913L3.99874 31.591ZM3.61441 28.8386L5.85203 20.4044L3.07921 19.6688L0.841583 28.1029L3.61441 28.8386ZM5.74856 20.6781L6.43706 19.3011L3.87117 18.0181L3.18267 19.3951L5.74856 20.6781ZM4.55303 17.3573L2.31541 18.39L3.51758 20.9947L5.7552 19.962L4.55303 17.3573ZM3.71214 18.4989L1.64664 17.1219L0.0553489 19.5088L2.12085 20.8858L3.71214 18.4989ZM2.19404 17.8117L1.67767 16.4347L-1.00843 17.442L-0.492053 18.819L2.19404 17.8117ZM1.76877 16.9132L1.59665 7.10208L-1.27166 7.15241L-1.09953 16.9635L1.76877 16.9132ZM1.33554 7.95272L4.60591 3.30534L2.25983 1.6544L-1.01055 6.30177L1.33554 7.95272ZM4.36635 3.56892L5.57123 2.53617L3.70426 0.358056L2.49939 1.39081L4.36635 3.56892ZM4.84059 2.86707L7.25034 2.52283L6.84465 -0.317093L4.4349 0.0271523L4.84059 2.86707ZM7.2833 2.51773L8.31605 2.3456L7.84444 -0.484116L6.81169 -0.311993L7.2833 2.51773ZM7.21962 2.07824L8.59662 3.11099L10.3179 0.815989L8.94087 -0.216758L7.21962 2.07824ZM8.62353 3.13069L9.82841 3.99131L11.4958 1.65691L10.291 0.79629L8.62353 3.13069ZM9.22775 2.82411V4.20112H12.0965V2.82411H9.22775ZM9.23022 4.11689L9.0581 7.04302L11.9219 7.21147L12.094 4.28535L9.23022 4.11689ZM11.5562 8.08679L13.1053 6.36553L10.973 4.44644L9.42383 6.1677L11.5562 8.08679ZM13.0534 6.42024L14.0861 5.3875L12.0576 3.35898L11.0249 4.39173L13.0534 6.42024ZM12.7713 5.77577L15.1811 6.29215L15.7822 3.48708L13.3724 2.9707L12.7713 5.77577ZM14.9489 6.2214L15.8095 6.56565L16.875 3.90208L16.0143 3.55783L14.9489 6.2214ZM14.9128 5.35298L15.085 7.41849L17.9438 7.18025L17.7717 5.11475L14.9128 5.35298ZM15.1383 6.89464L12.5564 15.673L15.3086 16.4825L17.8905 7.7041L15.1383 6.89464ZM105.727 20.5197L72.1629 101.418L74.8126 102.518L108.377 21.619L105.727 20.5197ZM72.165 101.413L67.6897 112.085L70.3353 113.195L74.8105 102.523L72.165 101.413ZM67.7353 111.987L63.7764 119.733L66.3308 121.038L70.2897 113.293L67.7353 111.987ZM63.9741 119.441L62.7693 120.818L64.9282 122.707L66.1331 121.33L63.9741 119.441ZM63.3338 120.424L61.0962 121.284L62.126 123.962L64.3637 123.101L63.3338 120.424ZM61.1075 121.28L59.7305 121.796L60.7378 124.483L62.1148 123.966L61.1075 121.28ZM60.7243 121.791L58.8309 121.103L57.8506 123.799L59.7439 124.488L60.7243 121.791ZM58.8444 121.108L57.4674 120.592L56.4601 123.278L57.8371 123.794L58.8444 121.108ZM58.3068 121.431L57.7904 120.054L55.1043 121.061L55.6207 122.438L58.3068 121.431ZM57.8312 120.18L57.3148 118.287L54.5472 119.042L55.0635 120.935L57.8312 120.18ZM57.3225 119.012L57.6668 117.635L54.8837 116.939L54.5394 118.316L57.3225 119.012ZM57.6818 117.569L57.8539 116.708L55.0408 116.145L54.8687 117.006L57.6818 117.569ZM55.5208 115.332L53.2832 117.225L55.1363 119.415L57.3739 117.522L55.5208 115.332ZM54.4279 116.902L52.1902 116.558L51.754 119.393L53.9916 119.738L54.4279 116.902ZM52.15 116.552L50.773 116.38L50.4172 119.227L51.7942 119.399L52.15 116.552ZM52.0245 117.685L51.8524 115.619L48.9936 115.857L49.1657 117.923L52.0245 117.685ZM51.8515 115.608L51.6794 113.715L48.8224 113.975L48.9945 115.868L51.8515 115.608ZM51.5913 114.355L52.9683 110.741L50.2875 109.719L48.9105 113.334L51.5913 114.355ZM52.9516 110.783L61.2136 90.9882L58.5662 89.8832L50.3042 109.678L52.9516 110.783ZM61.2154 90.9838L88.7554 24.3714L86.1043 23.2753L58.5643 89.8877L61.2154 90.9838ZM88.76 24.3601L92.7189 14.549L90.0586 13.4755L86.0997 23.2866L88.76 24.3601ZM92.6858 14.6247L95.6119 8.42822L93.0178 7.20325L90.0917 13.3998L92.6858 14.6247ZM95.5603 8.52739L96.9373 6.11764L94.4465 4.69434L93.0695 7.10409L95.5603 8.52739ZM96.4875 6.59946L98.553 5.22247L96.9617 2.83552L94.8962 4.21251L96.4875 6.59946ZM98.5911 5.19619L99.796 4.33557L98.1285 2.00117L96.9237 2.8618L98.5911 5.19619ZM98.2657 4.42224L99.8148 5.28286L101.208 2.77512L99.6588 1.9145L98.2657 4.42224ZM99.7997 5.27438L101.005 5.96288L102.428 3.47211L101.223 2.78361L99.7997 5.27438ZM100.289 4.86022L100.461 6.58147L103.316 6.29602L103.144 4.57477L100.289 4.86022ZM100.468 6.64159L100.641 7.84646L103.48 7.44076L103.308 6.23589L100.468 6.64159ZM103.29 8.3816L103.807 7.52097L101.347 6.04501L100.831 6.90563L103.29 8.3816ZM103.191 8.07929L106.461 6.53016L105.233 3.93757L101.963 5.48669L103.191 8.07929ZM105.332 6.57263L107.57 7.43326L108.6 4.75572L106.362 3.8951L105.332 6.57263ZM107.581 7.43753L108.958 7.95391L109.966 5.26782L108.589 4.75144L107.581 7.43753ZM108.055 6.89217L108.227 7.75279L111.041 7.19019L110.868 6.32957L108.055 6.89217ZM108.248 7.84108L108.937 10.4229L111.708 9.68378L111.02 7.10191L108.248 7.84108ZM108.903 9.85051L108.558 12.2603L111.398 12.666L111.742 10.2562L108.903 9.85051ZM108.62 12.0014L105.694 20.6076L108.41 21.5311L111.336 12.9248L108.62 12.0014ZM89.3753 14.6676L55.4667 96.427L58.1166 97.526L92.0252 15.7666L89.3753 14.6676ZM55.4625 96.4371L50.643 108.314L53.3012 109.392L58.1207 97.5158L55.4625 96.4371ZM50.6952 108.2L46.9084 115.601L49.4623 116.908L53.2491 109.506L50.6952 108.2ZM47.2735 115.147L44.3474 117.557L46.1711 119.771L49.0972 117.362L47.2735 115.147ZM45.4774 117.247L43.2397 116.902L42.8035 119.738L45.0411 120.082L45.4774 117.247ZM43.1995 116.897L41.8225 116.725L41.4667 119.571L42.8437 119.743L43.1995 116.897ZM43.074 118.029L42.9019 115.963L40.0431 116.201L40.2152 118.267L43.074 118.029ZM42.9069 116.082V114.189H40.0381V116.082H42.9069ZM42.9069 114.189V113.845H40.0381V114.189H42.9069ZM40.7123 112.628L39.3353 113.489L40.8557 115.922L42.2327 115.061L40.7123 112.628ZM39.3838 113.46L38.179 114.148L39.6023 116.639L40.8071 115.951L39.3838 113.46ZM40.3139 115.216L40.1418 113.839L37.2952 114.195L37.4673 115.572L40.3139 115.216ZM40.1231 114.307L41.1559 109.316L38.3466 108.735L37.3139 113.726L40.1231 114.307ZM41.0771 109.573L48.8227 90.811L46.171 89.7163L38.4254 108.478L41.0771 109.573ZM48.822 90.8126L75.8457 25.5772L73.1953 24.4793L46.1717 89.7147L48.822 90.8126ZM75.8373 25.5969L82.3781 10.4499L79.7444 9.3126L73.2037 24.4596L75.8373 25.5969ZM82.3269 10.5562L83.7039 7.97437L81.1726 6.62437L79.7956 9.20624L82.3269 10.5562ZM82.6162 8.72267L83.9932 8.55054L83.6373 5.70395L82.2603 5.87607L82.6162 8.72267ZM83.6373 8.55054L85.0143 8.72267L85.3702 5.87607L83.9932 5.70395L83.6373 8.55054ZM83.765 7.15664L83.5929 8.87789L86.4474 9.16334L86.6195 7.44209L83.765 7.15664ZM86.3519 9.55332L86.6962 8.6927L84.0326 7.62728L83.6883 8.48791L86.3519 9.55332ZM86.6098 8.87164L87.9868 6.46189L85.496 5.03859L84.119 7.44834L86.6098 8.87164ZM87.537 6.94371L89.6025 5.56671L88.0112 3.17977L85.9457 4.55677L87.537 6.94371ZM89.6406 5.54044L90.8455 4.67982L89.178 2.34541L87.9732 3.20604L89.6406 5.54044ZM89.3152 4.76649L90.8643 5.62711L92.2575 3.11937L90.7083 2.25875L89.3152 4.76649ZM90.8492 5.61862L92.0541 6.30713L93.4774 3.81636L92.2725 3.12786L90.8492 5.61862ZM91.3385 5.20447L91.5106 6.92572L94.3651 6.64026L94.193 4.91901L91.3385 5.20447ZM91.5094 6.91285L91.6815 8.80623L94.5385 8.54651L94.3664 6.65313L91.5094 6.91285ZM91.7641 8.1805L89.3543 14.7212L92.0462 15.713L94.4559 9.17224L91.7641 8.1805ZM76.1215 13.9795L42.385 95.3947L45.0352 96.4928L78.7717 15.0777L76.1215 13.9795ZM42.3857 95.3929L34.2959 114.843L36.9446 115.945L45.0345 96.4946L42.3857 95.3929ZM34.4409 114.577L32.8918 116.815L35.2505 118.448L36.7996 116.21L34.4409 114.577ZM32.8257 116.92L32.1372 118.125L34.628 119.548L35.3165 118.343L32.8257 116.92ZM32.8924 117.488L30.9991 118.177L31.9794 120.873L33.8728 120.184L32.8924 117.488ZM30.9242 118.206L29.7193 118.723L30.8494 121.36L32.0543 120.843L30.9242 118.206ZM31.2178 118.952L30.013 117.919L28.146 120.098L29.3509 121.13L31.2178 118.952ZM29.9021 117.833L28.1808 116.629L26.5357 118.979L28.2569 120.184L29.9021 117.833ZM28.7815 117.626L28.6094 116.249L25.7628 116.605L25.9349 117.982L28.7815 117.626ZM28.6193 116.486L28.7914 112.355L25.9251 112.236L25.753 116.367L28.6193 116.486ZM28.7063 112.786L32.1488 103.319L29.4527 102.339L26.0102 111.805L28.7063 112.786ZM32.1237 103.383L37.4596 90.6457L34.8136 89.5373L29.4778 102.275L32.1237 103.383ZM37.4607 90.6432L44.3457 74.1192L41.6976 73.0158L34.8126 89.5398L37.4607 90.6432ZM44.347 74.1159L46.4125 69.1243L43.7617 68.0274L41.6962 73.0191L44.347 74.1159ZM46.3701 69.2173L47.4028 67.1518L44.8369 65.8689L43.8042 67.9344L46.3701 69.2173ZM46.7613 67.7933L47.1056 67.6212L45.8226 65.0553L45.4784 65.2274L46.7613 67.7933ZM47.777 66.9159L49.6704 62.6128L47.0446 61.4574L45.1512 65.7606L47.777 66.9159ZM49.2437 63.163L51.6534 61.2696L49.8811 59.0139L47.4713 60.9072L49.2437 63.163ZM49.3881 59.7477L49.0438 60.9526L51.8022 61.7407L52.1464 60.5358L49.3881 59.7477ZM49.0872 60.8239L47.5381 64.7828L50.2096 65.8282L51.7587 61.8693L49.0872 60.8239ZM49.2513 66.6893L51.1447 66.1729L50.3898 63.4053L48.4965 63.9217L49.2513 66.6893ZM51.2446 66.1417L54.1708 65.109L53.216 62.4038L50.2899 63.4365L51.2446 66.1417ZM54.8134 64.6524L56.1904 62.9312L53.9503 61.1391L52.5733 62.8603L54.8134 64.6524ZM56.4426 62.4528L57.6475 58.4939L54.903 57.6586L53.6981 61.6175L56.4426 62.4528ZM57.665 58.4311L59.7305 50.3412L56.951 49.6315L54.8855 57.7214L57.665 58.4311ZM59.7317 50.3365L66.1004 25.0341L63.3184 24.3339L56.9498 49.6363L59.7317 50.3365ZM66.0844 25.0922L69.3548 14.0762L66.6047 13.2598L63.3343 24.2758L66.0844 25.0922ZM69.2776 14.2787L72.0316 8.42649L69.4359 7.20499L66.6819 13.0572L69.2776 14.2787ZM71.9131 8.6322L73.4622 6.39458L71.1035 4.76166L69.5544 6.99927L71.9131 8.6322ZM72.9697 6.83735L74.8631 5.80459L73.4894 3.28613L71.596 4.31889L72.9697 6.83735ZM74.8177 5.82831L76.1947 5.13981L74.9118 2.57392L73.5348 3.26242L74.8177 5.82831ZM74.9118 5.1398L76.2888 5.82831L77.5717 3.26242L76.1947 2.57392L74.9118 5.1398ZM76.4401 5.89338L78.3334 6.58188L79.3138 3.88585L77.4204 3.19735L76.4401 5.89338ZM77.4088 5.46967L77.753 7.53517L80.5827 7.06356L80.2385 4.99806L77.4088 5.46967ZM77.7423 7.45778L77.9144 9.0069L80.7656 8.69009L80.5935 7.14096L77.7423 7.45778ZM77.9608 8.45443L77.6166 9.6593L80.3749 10.4474L80.7192 9.24255L77.9608 8.45443ZM77.6403 9.58416L76.0912 14.0594L78.8021 14.9978L80.3512 10.5226L77.6403 9.58416ZM30.3388 26.3665L18.6343 54.2507L21.2795 55.361L32.984 27.4768L30.3388 26.3665ZM18.6298 54.2614L15.8758 60.9743L18.5299 62.0632L21.2839 55.3503L18.6298 54.2614ZM16.3592 60.3587L14.4658 61.7357L16.1532 64.0558L18.0465 62.6788L16.3592 60.3587ZM16.6703 63.3493L16.8424 62.833L14.1209 61.9258L13.9487 62.4422L16.6703 63.3493ZM15.3974 60.9475L12.4713 61.1196L12.6397 63.9834L15.5659 63.8113L15.3974 60.9475ZM13.7945 61.8288L12.5896 59.7633L10.1116 61.2087L11.3165 63.2742L13.7945 61.8288ZM12.7623 60.2319L11.2132 51.6256L8.38981 52.1338L9.93893 60.7401L12.7623 60.2319ZM11.1623 52.3333L15.6375 38.9076L12.916 38.0004L8.44073 51.4262L11.1623 52.3333ZM15.6011 39.0049L24.5516 17.4893L21.9029 16.3874L12.9524 37.9031L15.6011 39.0049ZM24.5315 17.5352L29.1789 7.37987L26.5703 6.18611L21.923 16.3415L24.5315 17.5352ZM28.9848 7.69129L30.5339 5.79792L28.3136 3.98132L26.7645 5.87469L28.9848 7.69129ZM29.8178 6.2688L32.2275 5.5803L31.4394 2.82193L29.0297 3.51043L29.8178 6.2688ZM31.6908 5.62837L33.412 5.8005L33.6975 2.94598L31.9762 2.77386L31.6908 5.62837ZM32.7383 5.55257L34.9759 7.1017L36.6088 4.74303L34.3712 3.19391L32.7383 5.55257ZM34.4606 6.45508L34.8048 7.3157L37.4684 6.25027L37.1242 5.38965L34.4606 6.45508ZM34.7507 7.15258L35.4392 9.73445L38.2111 8.99528L37.5226 6.4134L34.7507 7.15258ZM35.4103 9.12905L34.3775 15.3256L37.2072 15.7972L38.24 9.60067L35.4103 9.12905ZM34.474 14.9963L32.4085 19.8158L35.0453 20.9459L37.1108 16.1264L34.474 14.9963ZM32.2925 20.3809V20.7251H35.1612V20.3809H32.2925ZM32.3661 20.2715L30.3006 26.468L33.0221 27.3752L35.0876 21.1787L32.3661 20.2715ZM20.5279 17.7596L15.5363 29.6362L18.181 30.7478L23.1726 18.8711L20.5279 17.7596ZM15.531 29.6489L12.4328 37.2224L15.088 38.3086L18.1862 30.7351L15.531 29.6489ZM12.4555 37.1698L8.84091 45.0876L11.4506 46.2789L15.0652 38.3612L12.4555 37.1698ZM9.423 44.4443L7.3575 45.6491L8.80298 48.1271L10.8685 46.9222L9.423 44.4443ZM9.31923 46.1654L8.11435 44.0999L5.63639 45.5454L6.84126 47.6109L9.31923 46.1654ZM8.29306 45.0407L8.63732 42.8031L5.80192 42.3669L5.45767 44.6045L8.29306 45.0407ZM8.57677 43.0493L10.8144 36.5085L8.10009 35.58L5.86247 42.1207L8.57677 43.0493ZM10.7402 36.6857L10.9123 36.3415L8.34643 35.0585L8.1743 35.4028L10.7402 36.6857ZM10.7894 34.8563L9.4124 32.963L7.09234 34.6503L8.46934 36.5437L10.7894 34.8563ZM9.62625 34.2188L10.1426 32.4975L7.39486 31.6732L6.87849 33.3945L9.62625 34.2188ZM10.1196 32.5678L11.8408 27.7483L9.13918 26.7834L7.41793 31.6029L10.1196 32.5678ZM11.8128 27.8206L18.5256 11.813L15.8801 10.7035L9.16722 26.7112L11.8128 27.8206ZM18.4858 11.8997L20.2071 8.45721L17.6412 7.17427L15.9199 10.6168L18.4858 11.8997ZM20.1695 8.52739L20.858 7.32252L18.3672 5.89922L17.6787 7.10409L20.1695 8.52739ZM20.2541 7.89381L21.6311 7.20531L20.3481 4.63942L18.9711 5.32792L20.2541 7.89381ZM21.2709 7.32889L22.9922 6.98464L22.4296 4.1716L20.7083 4.51584L21.2709 7.32889ZM21.2876 5.40021L21.1154 6.7772L23.962 7.13303L24.1342 5.75603L21.2876 5.40021ZM21.1472 6.60723L20.9751 7.29573L23.7582 7.9915L23.9303 7.303L21.1472 6.60723ZM21.7917 8.95773L24.5457 10.1626L25.6955 7.53438L22.9415 6.3295L21.7917 8.95773ZM23.7467 8.43633L23.2304 10.1576L25.9781 10.9819L26.4945 9.26066L23.7467 8.43633ZM23.2528 10.0892L20.4988 17.8348L23.2017 18.7959L25.9557 11.0503L23.2528 10.0892ZM39.2683 33.993L32.8996 51.0333L35.5868 52.0376L41.9555 34.9973L39.2683 33.993ZM32.9181 50.9865L22.9348 75.084L25.5852 76.182L35.5684 52.0845L32.9181 50.9865ZM22.9833 74.9791L19.3687 82.0362L21.922 83.344L25.5367 76.2869L22.9833 74.9791ZM19.5733 81.7372L18.1963 83.2863L20.3404 85.1922L21.7174 83.6431L19.5733 81.7372ZM19.5795 82.839L18.0304 82.4948L17.4081 85.2952L18.9572 85.6395L19.5795 82.839ZM18.5418 82.7199L16.8206 81.515L15.1754 83.8652L16.8967 85.0701L18.5418 82.7199ZM17.2978 82.0835L16.0929 79.5017L13.4933 80.7148L14.6982 83.2967L17.2978 82.0835ZM16.2275 80.1082V77.8706H13.3587V80.1082H16.2275ZM16.1814 78.2312L19.6239 64.9776L16.8473 64.2564L13.4048 77.51L16.1814 78.2312ZM19.67 64.617V63.0679H16.8012V64.617H19.67ZM19.5674 63.6006L20.6002 61.0187L17.9366 59.9533L16.9038 62.5352L19.5674 63.6006ZM20.5947 61.0321L23.0045 55.1799L20.3518 54.0876L17.942 59.9399L20.5947 61.0321ZM23.0045 55.1799L35.0532 25.9186L32.4005 24.8264L20.3518 54.0876L23.0045 55.1799ZM34.9969 26.0392L38.6115 19.1542L36.0715 17.8207L32.4569 24.7058L34.9969 26.0392ZM38.2021 19.635L39.5791 18.6022L37.8579 16.3072L36.4809 17.34L38.2021 19.635ZM37.3347 17.0773L36.8183 18.9707L39.586 19.7255L40.1023 17.8322L37.3347 17.0773ZM36.857 18.8499L35.1358 23.4973L37.826 24.4937L39.5472 19.8463L36.857 18.8499ZM37.3991 25.0974L38.4319 24.2368L36.5954 22.033L35.5626 22.8936L37.3991 25.0974ZM36.633 24.2671L38.1821 25.472L39.9434 23.2075L38.3942 22.0026L36.633 24.2671ZM38.1445 25.4417L39.1772 26.3023L41.0138 24.0984L39.981 23.2378L38.1445 25.4417ZM38.7216 25.6125L39.238 27.3338L41.9858 26.5095L41.4694 24.7882L38.7216 25.6125ZM39.1775 26.9216V34.4951H42.0462V26.9216H39.1775ZM107.742 24.4493L86.0544 97.7745L88.8053 98.5882L110.493 25.2629L107.742 24.4493ZM86.0719 97.7194L80.3918 114.416L83.1077 115.339L88.7878 98.6434L86.0719 97.7194ZM80.6836 113.918L77.5853 117.36L79.7177 119.28L82.8159 115.837L80.6836 113.918ZM78.1613 116.972L76.2679 117.66L77.2483 120.357L79.1417 119.668L78.1613 116.972ZM76.3807 117.625L74.4873 118.141L75.2422 120.909L77.1355 120.392L76.3807 117.625ZM75.4214 118.203L72.151 116.826L71.0378 119.47L74.3081 120.847L75.4214 118.203ZM73.0092 117.912L72.8371 116.879L70.0074 117.351L70.1795 118.384L73.0092 117.912ZM72.8321 116.851L72.3157 114.097L69.4961 114.625L70.0124 117.379L72.8321 116.851ZM72.2798 114.773L72.7961 113.052L70.0484 112.228L69.532 113.949L72.2798 114.773ZM72.7777 113.109L74.3268 108.634L71.6159 107.695L70.0668 112.171L72.7777 113.109ZM74.3005 108.704L79.12 96.8273L76.4618 95.7486L71.6423 107.625L74.3005 108.704ZM79.1152 96.839L100.459 45.5458L97.8101 44.4437L76.4666 95.7369L79.1152 96.839ZM100.459 45.5456L108.549 26.0955L105.9 24.9938L97.81 44.4439L100.459 45.5456ZM108.487 26.2247L110.897 21.7494L108.371 20.3893L105.961 24.8646L108.487 26.2247ZM110.736 21.9876L111.597 20.9549L109.393 19.1184L108.532 20.1511L110.736 21.9876ZM109.163 19.5039L108.819 20.3645L111.482 21.43L111.826 20.5693L109.163 19.5039ZM108.762 20.5352L107.73 24.4941L110.506 25.2182L111.538 21.2593L108.762 20.5352ZM42.733 65.7803L36.1922 81.2716L38.835 82.3874L45.3758 66.8962L42.733 65.7803ZM36.1833 81.2931L31.8802 91.9648L34.5408 93.0377L38.8439 82.3659L36.1833 81.2931ZM31.8937 91.9326L28.6233 99.5061L31.257 100.643L34.5273 93.0699L31.8937 91.9326ZM28.6438 99.4607L27.0947 102.731L29.6873 103.959L31.2364 100.689L28.6438 99.4607ZM27.5048 102.217L25.0951 104.111L26.8674 106.366L29.2772 104.473L27.5048 102.217ZM27.2642 104.597L26.5757 103.22L24.0098 104.503L24.6983 105.88L27.2642 104.597ZM26.6535 103.408L26.3093 102.375L23.5877 103.282L23.932 104.315L26.6535 103.408ZM26.3224 103.241L26.8388 101.52L24.091 100.695L23.5746 102.417L26.3224 103.241ZM26.8108 101.603L28.0157 98.333L25.3238 97.3412L24.1189 100.612L26.8108 101.603ZM25.4763 97.0415L25.132 97.5578L27.519 99.1491L27.8632 98.6328L25.4763 97.0415ZM26.5034 96.9302L25.1264 96.7581L24.7706 99.6047L26.1476 99.7768L26.5034 96.9302ZM25.2051 96.7701L23.3117 96.4259L22.7985 99.2484L24.6919 99.5926L25.2051 96.7701ZM24.2851 97.0991L23.7687 96.2385L21.3088 97.7145L21.8252 98.5751L24.2851 97.0991ZM23.8386 96.3699L22.6337 93.788L20.0341 95.0012L21.2389 97.5831L23.8386 96.3699ZM22.7538 94.1918L22.4096 91.782L19.5697 92.1877L19.9139 94.5975L22.7538 94.1918ZM22.3842 92.3203L25.6546 78.7224L22.8654 78.0516L19.595 91.6495L22.3842 92.3203ZM25.5862 78.9335L37.2907 50.5329L34.6383 49.4398L22.9338 77.8405L25.5862 78.9335ZM37.2829 50.5514L41.4139 40.9124L38.7771 39.7823L34.6461 49.4213L37.2829 50.5514ZM41.1098 41.3616L44.208 38.2634L42.1795 36.2349L39.0812 39.3331L41.1098 41.3616ZM42.3981 38.4426L43.9472 39.4753L45.5385 37.0884L43.9894 36.0556L42.3981 38.4426ZM44.0312 39.5273L45.2361 40.2158L46.6594 37.725L45.4545 37.0365L44.0312 39.5273ZM44.5639 39.3478L45.0803 41.2411L47.848 40.4863L47.3316 38.593L44.5639 39.3478ZM45.0334 40.9659L45.5498 48.1952L48.4112 47.9908L47.8948 40.7615L45.0334 40.9659ZM45.6221 47.6325L42.1795 57.7879L44.8964 58.7089L48.3389 48.5535L45.6221 47.6325ZM44.4463 59.3585L46.3397 57.8094L44.5231 55.5891L42.6297 57.1382L44.4463 59.3585ZM44.0883 57.2029L44.6047 58.5799L47.2908 57.5726L46.7744 56.1956L44.0883 57.2029ZM44.6047 58.5799L45.1211 59.9569L47.8072 58.9496L47.2908 57.5726L44.6047 58.5799ZM45.0902 59.0411L44.5739 60.7623L47.3216 61.5867L47.838 59.8654L45.0902 59.0411ZM44.601 60.6807L42.7077 65.8445L45.4011 66.832L47.2944 61.6683L44.601 60.6807Z" fill="#3EC6D5" mask="url(#path-1-inside-1_0_1)"/>
<mask id="path-4-inside-2_0_1" fill="white">
<path d="M179.88 17.9902L147.349 96.3071L139.259 115.413L137.193 118.856L135.644 120.06L134.439 120.921L133.234 120.233L131.685 119.544V118.167L132.202 114.552L132.718 113.175L129.964 118.511L127.21 120.921L126.177 121.61L124.284 121.437L122.39 121.265L121.53 120.06L120.325 118.339L120.497 116.79L121.185 113.003L129.62 92.3483L154.234 32.9651L161.119 16.0969L166.11 6.80212L169.381 4.5645L171.618 4.39237L172.995 4.22025L174.372 5.59724L175.405 6.63V8.35125L174.2 13.3429L175.749 9.90038L177.47 7.66275L179.192 6.97425L180.741 6.45787L181.774 8.00699L182.462 9.03975L182.118 10.9331L179.88 17.9902ZM158.192 20.0557L127.726 93.5531L120.153 111.798L117.743 116.274L117.054 117.479L115.85 116.962L114.473 116.446L114.817 115.069L115.85 111.971L123.767 92.5204L129.792 78.4061L147.176 28.3177L151.996 14.3756L155.438 6.80212L158.02 4.39237L159.225 4.73662L160.602 4.90874V6.28575L160.258 9.90038L160.086 10.4167L160.43 10.2446L160.774 12.138L160.086 15.4084L158.192 20.0557ZM193.822 19.3673L187.798 34.17L184.011 42.6041L181.774 45.7024L175.921 50.694L174.544 54.1365L172.651 60.6772L169.725 71.6933L167.487 82.5371L159.569 101.987L154.578 113.864L150.791 120.577L149.242 122.298L147.176 123.159L145.799 123.675L143.906 123.331L142.357 122.987L141.324 121.437L140.291 119.888V118.511L140.98 114.897L149.586 93.5531L174.028 34.6864L181.257 17.3017L183.495 12.9986L184.183 11.4495L186.421 7.31849V8.00699L191.068 5.59724L192.79 5.08088L194.511 6.11362L196.06 7.14637L196.404 9.384L193.822 19.3673ZM206.043 32.4487L181.946 90.4549L178.675 98.0284L175.233 104.053L173.512 105.774L171.274 106.463L169.897 106.807L166.627 104.913V103.881L166.282 101.299L166.971 99.4054L167.831 97.3399L162.84 107.323L159.225 113.003L157.848 114.036L156.815 113.003L157.504 110.766L159.569 105.258L168.348 84.0863L170.758 79.2668L172.307 77.8898L173.856 76.6849L174.716 78.234L175.577 79.9553L175.061 80.988L179.708 75.6521L183.151 74.103L184.872 72.5539L185.732 71.6933L185.905 70.3163L186.077 67.9065L185.388 64.2919L185.044 56.8905L187.798 49.4891L187.282 50.1776L186.077 49.4891L184.872 48.9728V47.94V45.186L188.659 35.3749L195.888 17.646L199.675 10.2446L201.912 9.03975L203.806 10.2446L203.461 12.4822L201.912 16.4411L204.15 15.7526L205.871 16.269L207.764 19.023L208.281 21.6049L206.043 32.4487ZM213.445 56.202L201.568 85.4632L196.748 96.8235L193.994 103.192L190.38 107.495L189.003 108.528L186.249 109.044L185.388 109.217L183.495 107.84L182.29 107.151L182.118 106.118L181.774 103.536L182.118 102.504L179.88 102.848L179.02 103.02V101.987L179.364 98.2005L184.528 85.2911L202.428 42.0877L206.904 31.5881L209.141 28.662L211.379 30.8996L211.207 32.793L209.486 38.9895L209.314 39.5059H210.174L212.584 40.3665L213.789 42.2599L214.649 44.8417L213.445 56.202ZM227.559 89.5943L219.985 108.7L214.822 119.372L211.895 121.954L209.486 122.642L207.936 122.987L206.043 121.61L204.838 120.749L204.494 119.372L203.978 117.134L204.666 113.52L205.527 110.938L203.289 112.315L201.568 111.11L200.363 110.249L199.502 108.7L197.781 103.536L197.953 101.127L201.912 89.7664L212.412 64.464L216.715 54.825L218.264 52.5874L219.813 52.4152H221.879L223.083 54.6529L224.977 63.2591L224.633 66.3574L222.223 73.2424L224.288 72.726L225.665 73.0703L227.559 75.8242L228.936 82.5371L227.559 89.5943ZM232.206 112.143L231.001 114.552L229.28 116.79L228.419 117.995L225.493 120.233L223.083 120.405L221.707 120.577L220.33 119.372L219.297 118.339V116.618L220.33 111.11L227.731 93.381L230.141 88.9058L231.001 87.7009L232.378 88.0451L234.444 88.2173L235.649 90.7991L234.616 105.43L232.895 109.733L233.067 110.077L232.206 112.143ZM243.911 115.757L242.017 118.683L238.575 119.716L236.337 118.856L235.132 118.339L234.616 116.618L234.272 114.725L235.132 111.282L237.714 106.29L238.919 104.569L240.812 105.258L242.189 105.946L243.05 107.84L244.427 112.659L243.911 115.757Z"/>
</mask>
<path d="M179.88 17.9902L147.349 96.3071L139.259 115.413L137.193 118.856L135.644 120.06L134.439 120.921L133.234 120.233L131.685 119.544V118.167L132.202 114.552L132.718 113.175L129.964 118.511L127.21 120.921L126.177 121.61L124.284 121.437L122.39 121.265L121.53 120.06L120.325 118.339L120.497 116.79L121.185 113.003L129.62 92.3483L154.234 32.9651L161.119 16.0969L166.11 6.80212L169.381 4.5645L171.618 4.39237L172.995 4.22025L174.372 5.59724L175.405 6.63V8.35125L174.2 13.3429L175.749 9.90038L177.47 7.66275L179.192 6.97425L180.741 6.45787L181.774 8.00699L182.462 9.03975L182.118 10.9331L179.88 17.9902ZM158.192 20.0557L127.726 93.5531L120.153 111.798L117.743 116.274L117.054 117.479L115.85 116.962L114.473 116.446L114.817 115.069L115.85 111.971L123.767 92.5204L129.792 78.4061L147.176 28.3177L151.996 14.3756L155.438 6.80212L158.02 4.39237L159.225 4.73662L160.602 4.90874V6.28575L160.258 9.90038L160.086 10.4167L160.43 10.2446L160.774 12.138L160.086 15.4084L158.192 20.0557ZM193.822 19.3673L187.798 34.17L184.011 42.6041L181.774 45.7024L175.921 50.694L174.544 54.1365L172.651 60.6772L169.725 71.6933L167.487 82.5371L159.569 101.987L154.578 113.864L150.791 120.577L149.242 122.298L147.176 123.159L145.799 123.675L143.906 123.331L142.357 122.987L141.324 121.437L140.291 119.888V118.511L140.98 114.897L149.586 93.5531L174.028 34.6864L181.257 17.3017L183.495 12.9986L184.183 11.4495L186.421 7.31849V8.00699L191.068 5.59724L192.79 5.08088L194.511 6.11362L196.06 7.14637L196.404 9.384L193.822 19.3673ZM206.043 32.4487L181.946 90.4549L178.675 98.0284L175.233 104.053L173.512 105.774L171.274 106.463L169.897 106.807L166.627 104.913V103.881L166.282 101.299L166.971 99.4054L167.831 97.3399L162.84 107.323L159.225 113.003L157.848 114.036L156.815 113.003L157.504 110.766L159.569 105.258L168.348 84.0863L170.758 79.2668L172.307 77.8898L173.856 76.6849L174.716 78.234L175.577 79.9553L175.061 80.988L179.708 75.6521L183.151 74.103L184.872 72.5539L185.732 71.6933L185.905 70.3163L186.077 67.9065L185.388 64.2919L185.044 56.8905L187.798 49.4891L187.282 50.1776L186.077 49.4891L184.872 48.9728V47.94V45.186L188.659 35.3749L195.888 17.646L199.675 10.2446L201.912 9.03975L203.806 10.2446L203.461 12.4822L201.912 16.4411L204.15 15.7526L205.871 16.269L207.764 19.023L208.281 21.6049L206.043 32.4487ZM213.445 56.202L201.568 85.4632L196.748 96.8235L193.994 103.192L190.38 107.495L189.003 108.528L186.249 109.044L185.388 109.217L183.495 107.84L182.29 107.151L182.118 106.118L181.774 103.536L182.118 102.504L179.88 102.848L179.02 103.02V101.987L179.364 98.2005L184.528 85.2911L202.428 42.0877L206.904 31.5881L209.141 28.662L211.379 30.8996L211.207 32.793L209.486 38.9895L209.314 39.5059H210.174L212.584 40.3665L213.789 42.2599L214.649 44.8417L213.445 56.202ZM227.559 89.5943L219.985 108.7L214.822 119.372L211.895 121.954L209.486 122.642L207.936 122.987L206.043 121.61L204.838 120.749L204.494 119.372L203.978 117.134L204.666 113.52L205.527 110.938L203.289 112.315L201.568 111.11L200.363 110.249L199.502 108.7L197.781 103.536L197.953 101.127L201.912 89.7664L212.412 64.464L216.715 54.825L218.264 52.5874L219.813 52.4152H221.879L223.083 54.6529L224.977 63.2591L224.633 66.3574L222.223 73.2424L224.288 72.726L225.665 73.0703L227.559 75.8242L228.936 82.5371L227.559 89.5943ZM232.206 112.143L231.001 114.552L229.28 116.79L228.419 117.995L225.493 120.233L223.083 120.405L221.707 120.577L220.33 119.372L219.297 118.339V116.618L220.33 111.11L227.731 93.381L230.141 88.9058L231.001 87.7009L232.378 88.0451L234.444 88.2173L235.649 90.7991L234.616 105.43L232.895 109.733L233.067 110.077L232.206 112.143ZM243.911 115.757L242.017 118.683L238.575 119.716L236.337 118.856L235.132 118.339L234.616 116.618L234.272 114.725L235.132 111.282L237.714 106.29L238.919 104.569L240.812 105.258L242.189 105.946L243.05 107.84L244.427 112.659L243.911 115.757Z" fill="white"/>
<path d="M179.88 17.9902L181.205 18.5405L181.229 18.4831L181.247 18.4238L179.88 17.9902ZM147.349 96.3071L148.669 96.8664L148.673 96.8574L147.349 96.3071ZM139.259 115.413L140.489 116.151L140.54 116.065L140.579 115.972L139.259 115.413ZM137.193 118.856L138.074 119.988L138.285 119.823L138.423 119.593L137.193 118.856ZM135.644 120.06L136.478 121.228L136.502 121.211L136.525 121.193L135.644 120.06ZM134.439 120.921L133.727 122.166L134.525 122.622L135.273 122.088L134.439 120.921ZM133.234 120.233L133.946 118.987L133.883 118.951L133.817 118.922L133.234 120.233ZM131.685 119.544H130.251V120.476L131.103 120.855L131.685 119.544ZM131.685 118.167L130.265 117.964L130.251 118.065V118.167H131.685ZM132.202 114.552L130.858 114.049L130.804 114.195L130.782 114.35L132.202 114.552ZM132.718 113.175L134.061 113.679L131.443 112.518L132.718 113.175ZM129.964 118.511L130.908 119.591L131.114 119.411L131.238 119.169L129.964 118.511ZM127.21 120.921L128.006 122.114L128.084 122.062L128.154 122L127.21 120.921ZM126.177 121.61L126.047 123.038L126.551 123.084L126.973 122.803L126.177 121.61ZM122.39 121.265L121.223 122.099L121.605 122.634L122.261 122.694L122.39 121.265ZM121.53 120.06L120.355 120.883L120.363 120.894L121.53 120.06ZM120.325 118.339L118.899 118.181L118.84 118.718L119.15 119.162L120.325 118.339ZM120.497 116.79L119.086 116.533L119.077 116.582L119.071 116.632L120.497 116.79ZM121.185 113.003L119.858 112.461L119.801 112.599L119.774 112.747L121.185 113.003ZM129.62 92.3483L128.295 91.799L128.292 91.806L129.62 92.3483ZM154.234 32.9651L155.559 33.5144L155.562 33.5072L154.234 32.9651ZM161.119 16.0969L159.855 15.4182L159.819 15.4848L159.79 15.5548L161.119 16.0969ZM166.11 6.80212L165.3 5.61832L165.012 5.81564L164.846 6.12348L166.11 6.80212ZM169.381 4.5645L169.27 3.13435L168.888 3.16381L168.571 3.3807L169.381 4.5645ZM171.618 4.39237L171.728 5.82253L171.762 5.81991L171.796 5.81567L171.618 4.39237ZM172.995 4.22025L174.009 3.20599L173.513 2.70994L172.817 2.79695L172.995 4.22025ZM174.372 5.59724L175.386 4.58299L175.386 4.58299L174.372 5.59724ZM175.405 6.63H176.839V6.03587L176.419 5.61575L175.405 6.63ZM175.405 8.35125L176.799 8.68781L176.839 8.52191V8.35125H175.405ZM174.2 13.3429L172.806 13.0063L175.508 13.9315L174.2 13.3429ZM175.749 9.90038L174.612 9.02582L174.51 9.15878L174.441 9.31176L175.749 9.90038ZM177.47 7.66275L176.938 6.33097L176.573 6.47685L176.333 6.7882L177.47 7.66275ZM179.192 6.97425L178.738 5.61348L178.698 5.62681L178.659 5.64246L179.192 6.97425ZM180.741 6.45787L181.934 5.66222L181.327 4.75065L180.287 5.0971L180.741 6.45787ZM181.774 8.00699L182.967 7.21135L182.967 7.21135L181.774 8.00699ZM182.462 9.03975L183.873 9.29634L183.977 8.72624L183.655 8.24411L182.462 9.03975ZM182.118 10.9331L183.485 11.3667L183.513 11.2796L183.529 11.1897L182.118 10.9331ZM158.192 20.0557L159.517 20.605L159.521 20.5969L158.192 20.0557ZM127.726 93.5531L129.051 94.103L129.051 94.1024L127.726 93.5531ZM120.153 111.798L121.416 112.478L121.45 112.415L121.478 112.348L120.153 111.798ZM117.743 116.274L118.988 116.985L118.997 116.97L119.006 116.954L117.743 116.274ZM117.054 117.479L116.489 118.797L117.665 119.301L118.3 118.19L117.054 117.479ZM115.85 116.962L116.415 115.644L116.384 115.631L116.353 115.619L115.85 116.962ZM114.473 116.446L113.081 116.098L112.771 117.339L113.969 117.789L114.473 116.446ZM114.817 115.069L113.456 114.615L113.439 114.667L113.425 114.721L114.817 115.069ZM115.85 111.971L114.521 111.43L114.504 111.473L114.489 111.517L115.85 111.971ZM123.767 92.5204L122.448 91.9573L122.443 91.9684L122.439 91.9796L123.767 92.5204ZM129.792 78.4061L131.111 78.9692L131.131 78.9235L131.147 78.8764L129.792 78.4061ZM147.176 28.3177L148.531 28.7881L148.532 28.7864L147.176 28.3177ZM151.996 14.3756L150.69 13.7821L150.662 13.8434L150.64 13.907L151.996 14.3756ZM155.438 6.80212L154.46 5.75352L154.251 5.94847L154.133 6.20858L155.438 6.80212ZM158.02 4.39237L158.414 3.01319L157.634 2.79038L157.042 3.34377L158.02 4.39237ZM159.225 4.73662L158.831 6.11581L158.937 6.1462L159.047 6.15992L159.225 4.73662ZM160.602 4.90874H162.037V3.6425L160.78 3.48544L160.602 4.90874ZM160.602 6.28575L162.03 6.42174L162.037 6.3539V6.28575H160.602ZM160.258 9.90038L161.619 10.354L161.67 10.199L161.686 10.0364L160.258 9.90038ZM160.086 10.4167L158.725 9.96314L157.63 13.2483L160.727 11.6997L160.086 10.4167ZM160.43 10.2446L161.841 9.98803L161.499 8.10639L159.789 8.96167L160.43 10.2446ZM160.774 12.138L162.178 12.4335L162.236 12.1582L162.185 11.8814L160.774 12.138ZM160.086 15.4084L161.414 15.9496L161.463 15.8301L161.489 15.7039L160.086 15.4084ZM193.822 19.3673L195.151 19.9079L195.187 19.8192L195.211 19.7264L193.822 19.3673ZM187.798 34.17L189.106 34.7575L189.117 34.7343L189.126 34.7107L187.798 34.17ZM184.011 42.6041L185.174 43.4439L185.26 43.3252L185.32 43.1916L184.011 42.6041ZM181.774 45.7024L182.704 46.7937L182.835 46.6819L182.936 46.5422L181.774 45.7024ZM175.921 50.694L174.99 49.6027L174.721 49.8325L174.589 50.1613L175.921 50.694ZM174.544 54.1365L173.212 53.6038L173.186 53.6696L173.166 53.7377L174.544 54.1365ZM172.651 60.6772L171.273 60.2784L171.269 60.2937L171.265 60.309L172.651 60.6772ZM169.725 71.6933L168.338 71.325L168.328 71.3639L168.32 71.4034L169.725 71.6933ZM167.487 82.5371L168.816 83.0779L168.865 82.956L168.892 82.827L167.487 82.5371ZM159.569 101.987L160.892 102.543L160.895 102.536L160.898 102.528L159.569 101.987ZM154.578 113.864L155.827 114.569L155.868 114.496L155.9 114.42L154.578 113.864ZM150.791 120.577L151.857 121.536L151.963 121.419L152.04 121.281L150.791 120.577ZM149.242 122.298L149.794 123.622L150.092 123.498L150.308 123.258L149.242 122.298ZM147.176 123.159L147.68 124.502L147.704 124.493L147.728 124.483L147.176 123.159ZM145.799 123.675L145.543 125.086L145.932 125.157L146.303 125.018L145.799 123.675ZM143.906 123.331L143.595 124.731L143.622 124.737L143.649 124.742L143.906 123.331ZM142.357 122.987L141.163 123.782L141.483 124.262L142.046 124.387L142.357 122.987ZM141.324 121.437L140.131 122.233L140.131 122.233L141.324 121.437ZM140.291 119.888H138.857V120.323L139.098 120.684L140.291 119.888ZM140.291 118.511L138.882 118.243L138.857 118.376V118.511H140.291ZM140.98 114.897L139.65 114.36L139.597 114.49L139.571 114.628L140.98 114.897ZM149.586 93.5531L148.261 93.0031L148.259 93.0099L148.256 93.0167L149.586 93.5531ZM174.028 34.6864L172.703 34.1356L172.703 34.1363L174.028 34.6864ZM181.257 17.3017L179.985 16.64L179.956 16.6944L179.933 16.751L181.257 17.3017ZM183.495 12.9986L184.767 13.6604L184.788 13.6214L184.805 13.5812L183.495 12.9986ZM184.183 11.4495L182.922 10.7663L182.895 10.8157L182.873 10.8669L184.183 11.4495ZM186.421 7.31849H187.855L185.16 6.63532L186.421 7.31849ZM186.421 8.00699H184.987V10.3665L187.081 9.28037L186.421 8.00699ZM191.068 5.59724L190.656 4.22336L190.527 4.26199L190.408 4.32387L191.068 5.59724ZM192.79 5.08088L193.527 3.85091L192.984 3.52494L192.377 3.70699L192.79 5.08088ZM194.511 6.11362L195.306 4.92015L195.278 4.90122L195.249 4.88366L194.511 6.11362ZM196.06 7.14637L197.478 6.92826L197.381 6.30352L196.856 5.9529L196.06 7.14637ZM196.404 9.384L197.793 9.74314L197.867 9.4575L197.822 9.16589L196.404 9.384ZM206.043 32.4487L207.368 32.999L207.42 32.8727L207.448 32.7386L206.043 32.4487ZM181.946 90.4549L183.262 91.0235L183.266 91.0144L183.27 91.0052L181.946 90.4549ZM178.675 98.0284L179.921 98.74L179.96 98.6705L179.992 98.597L178.675 98.0284ZM175.233 104.053L176.247 105.067L176.383 104.931L176.478 104.764L175.233 104.053ZM173.512 105.774L173.933 107.145L174.274 107.04L174.526 106.788L173.512 105.774ZM171.274 106.463L171.622 107.854L171.659 107.845L171.696 107.833L171.274 106.463ZM169.897 106.807L169.178 108.048L169.681 108.339L170.245 108.198L169.897 106.807ZM166.627 104.913H165.192V105.74L165.908 106.155L166.627 104.913ZM166.627 103.881H168.061V103.785L168.048 103.691L166.627 103.881ZM166.282 101.299L164.934 100.809L164.814 101.139L164.86 101.488L166.282 101.299ZM166.971 99.4054L165.647 98.8537L165.634 98.8842L165.623 98.9152L166.971 99.4054ZM167.831 97.3399L169.155 97.8916L166.548 96.6984L167.831 97.3399ZM162.84 107.323L164.05 108.093L164.09 108.031L164.123 107.965L162.84 107.323ZM159.225 113.003L160.086 114.151L160.295 113.994L160.435 113.773L159.225 113.003ZM157.848 114.036L156.834 115.05L157.714 115.93L158.709 115.184L157.848 114.036ZM156.815 113.003L155.444 112.581L155.19 113.407L155.801 114.018L156.815 113.003ZM157.504 110.766L156.161 110.262L156.146 110.302L156.133 110.344L157.504 110.766ZM159.569 105.258L158.244 104.708L158.235 104.731L158.226 104.754L159.569 105.258ZM168.348 84.0863L167.065 83.4448L167.042 83.4901L167.023 83.5369L168.348 84.0863ZM170.758 79.2668L169.805 78.1947L169.598 78.3782L169.475 78.6253L170.758 79.2668ZM172.307 77.8898L171.426 76.7575L171.389 76.7864L171.354 76.8177L172.307 77.8898ZM173.856 76.6849L175.11 75.9883L174.297 74.5248L172.975 75.5527L173.856 76.6849ZM174.716 78.234L175.999 77.5925L175.985 77.5647L175.97 77.5374L174.716 78.234ZM175.577 79.9553L176.86 80.5967L177.181 79.9553L176.86 79.3138L175.577 79.9553ZM175.061 80.988L173.778 80.3465L176.142 81.9301L175.061 80.988ZM179.708 75.6521L179.119 74.3441L178.833 74.4731L178.626 74.7101L179.708 75.6521ZM183.151 74.103L183.739 75.411L183.943 75.3191L184.11 75.1692L183.151 74.103ZM184.872 72.5539L185.831 73.62L185.859 73.5948L185.886 73.5681L184.872 72.5539ZM185.732 71.6933L186.747 72.7075L187.095 72.3595L187.156 71.8712L185.732 71.6933ZM185.905 70.3163L187.328 70.4942L187.333 70.4564L187.335 70.4184L185.905 70.3163ZM186.077 67.9065L187.507 68.0087L187.521 67.822L187.486 67.6381L186.077 67.9065ZM185.388 64.2919L183.955 64.3585L183.96 64.4602L183.979 64.5603L185.388 64.2919ZM185.044 56.8905L183.7 56.3903L183.597 56.6647L183.611 56.9571L185.044 56.8905ZM187.798 49.4891L189.142 49.9893L186.65 48.6285L187.798 49.4891ZM187.282 50.1776L186.57 51.423L187.669 52.0512L188.429 51.0382L187.282 50.1776ZM186.077 49.4891L186.788 48.2437L186.717 48.203L186.642 48.1707L186.077 49.4891ZM184.872 48.9728H183.437V49.9186L184.307 50.2911L184.872 48.9728ZM184.872 45.186L183.534 44.6695L183.437 44.9188V45.186H184.872ZM188.659 35.3749L187.33 34.8333L187.325 34.8458L187.32 34.8584L188.659 35.3749ZM195.888 17.646L194.611 16.9927L194.583 17.0474L194.56 17.1044L195.888 17.646ZM199.675 10.2446L198.994 8.98169L198.601 9.19353L198.398 9.5913L199.675 10.2446ZM201.912 9.03975L202.682 7.82962L201.973 7.37808L201.232 7.77682L201.912 9.03975ZM203.806 10.2446L205.223 10.4627L205.366 9.53722L204.576 9.03449L203.806 10.2446ZM203.461 12.4822L204.797 13.0049L204.855 12.8572L204.879 12.7004L203.461 12.4822ZM201.912 16.4411L200.576 15.9184L199.493 18.6861L202.334 17.8121L201.912 16.4411ZM204.15 15.7526L204.562 14.3787L204.144 14.2535L203.728 14.3817L204.15 15.7526ZM205.871 16.269L207.053 15.4564L206.767 15.0402L206.283 14.8951L205.871 16.269ZM207.764 19.023L209.171 18.7417L209.113 18.453L208.946 18.2104L207.764 19.023ZM208.281 21.6049L209.686 21.8947L209.744 21.6093L209.687 21.3236L208.281 21.6049ZM213.445 56.202L214.774 56.7414L214.85 56.5542L214.871 56.3533L213.445 56.202ZM201.568 85.4632L202.888 86.0234L202.893 86.0131L202.897 86.0027L201.568 85.4632ZM196.748 96.8235L198.065 97.3928L198.069 97.3837L196.748 96.8235ZM193.994 103.192L195.093 104.115L195.228 103.954L195.311 103.761L193.994 103.192ZM190.38 107.495L191.24 108.643L191.372 108.544L191.478 108.418L190.38 107.495ZM189.003 108.528L189.267 109.938L189.596 109.876L189.863 109.676L189.003 108.528ZM186.249 109.044L185.984 107.635L185.976 107.636L185.967 107.638L186.249 109.044ZM185.388 109.217L184.544 110.377L185.053 110.746L185.669 110.623L185.388 109.217ZM183.495 107.84L184.338 106.679L184.275 106.633L184.206 106.594L183.495 107.84ZM182.29 107.151L180.875 107.387L180.987 108.059L181.578 108.396L182.29 107.151ZM182.118 106.118L180.696 106.308L180.699 106.331L180.703 106.354L182.118 106.118ZM181.774 103.536L180.413 103.083L180.308 103.397L180.352 103.726L181.774 103.536ZM182.118 102.504L183.479 102.957L184.221 100.729L181.9 101.086L182.118 102.504ZM179.88 102.848L179.662 101.43L179.63 101.435L179.599 101.441L179.88 102.848ZM179.02 103.02H177.585V104.77L179.301 104.427L179.02 103.02ZM179.02 101.987L177.591 101.857L177.585 101.922V101.987H179.02ZM179.364 98.2005L178.032 97.6678L177.954 97.8622L177.935 98.0706L179.364 98.2005ZM184.528 85.2911L183.202 84.7421L183.199 84.7502L183.196 84.7584L184.528 85.2911ZM202.428 42.0877L201.109 41.5253L201.106 41.532L201.103 41.5387L202.428 42.0877ZM206.904 31.5881L205.764 30.7168L205.655 30.8599L205.584 31.0257L206.904 31.5881ZM209.141 28.662L210.156 27.6477L208.997 26.4893L208.002 27.7907L209.141 28.662ZM211.379 30.8996L212.807 31.0295L212.868 30.3604L212.393 29.8854L211.379 30.8996ZM211.207 32.793L212.589 33.1769L212.624 33.052L212.635 32.9229L211.207 32.793ZM209.486 38.9895L210.846 39.4431L210.858 39.4085L210.868 39.3734L209.486 38.9895ZM209.314 39.5059L207.953 39.0523L207.323 40.9402H209.314V39.5059ZM210.174 39.5059L210.657 38.1551L210.423 38.0715H210.174V39.5059ZM212.584 40.3665L213.794 39.5964L213.53 39.1812L213.066 39.0157L212.584 40.3665ZM213.789 42.2599L215.15 41.8063L215.094 41.6388L214.999 41.4898L213.789 42.2599ZM214.649 44.8417L216.076 44.993L216.109 44.6835L216.01 44.3882L214.649 44.8417ZM227.559 89.5943L228.892 90.1228L228.941 89.9993L228.967 89.8689L227.559 89.5943ZM219.985 108.7L221.276 109.325L221.299 109.278L221.319 109.229L219.985 108.7ZM214.822 119.372L215.771 120.447L215.987 120.256L216.113 119.997L214.822 119.372ZM211.895 121.954L212.289 123.333L212.601 123.244L212.844 123.029L211.895 121.954ZM209.486 122.642L209.797 124.042L209.839 124.033L209.88 124.021L209.486 122.642ZM207.936 122.987L207.093 124.147L207.616 124.527L208.248 124.387L207.936 122.987ZM206.043 121.61L206.887 120.449L206.877 120.442L206.043 121.61ZM204.838 120.749L203.447 121.097L203.575 121.609L204.005 121.916L204.838 120.749ZM204.494 119.372L203.096 119.694L203.099 119.707L203.102 119.72L204.494 119.372ZM203.978 117.134L202.569 116.866L202.512 117.163L202.58 117.457L203.978 117.134ZM204.666 113.52L203.305 113.066L203.275 113.157L203.257 113.251L204.666 113.52ZM205.527 110.938L206.888 111.391L208.135 107.648L204.775 109.716L205.527 110.938ZM203.289 112.315L202.467 113.49L203.238 114.03L204.041 113.536L203.289 112.315ZM201.568 111.11L200.734 112.277L200.745 112.285L201.568 111.11ZM200.363 110.249L199.109 110.946L199.266 111.229L199.529 111.416L200.363 110.249ZM199.502 108.7L198.142 109.154L198.184 109.28L198.249 109.397L199.502 108.7ZM197.781 103.536L196.35 103.434L196.33 103.719L196.42 103.99L197.781 103.536ZM197.953 101.127L196.599 100.655L196.536 100.834L196.523 101.024L197.953 101.127ZM201.912 89.7664L200.587 89.2166L200.571 89.2551L200.558 89.2944L201.912 89.7664ZM212.412 64.464L211.102 63.8793L211.094 63.8967L211.087 63.9142L212.412 64.464ZM216.715 54.825L215.536 54.0085L215.46 54.1183L215.405 54.2403L216.715 54.825ZM218.264 52.5874L218.106 51.1618L217.456 51.2339L217.085 51.7709L218.264 52.5874ZM219.813 52.4152V50.9809H219.734L219.655 50.9896L219.813 52.4152ZM221.879 52.4152L223.142 51.7352L222.735 50.9809H221.879V52.4152ZM223.083 54.6529L224.484 54.3447L224.441 54.1491L224.346 53.9728L223.083 54.6529ZM224.977 63.2591L226.402 63.4175L226.429 63.1822L226.378 62.9509L224.977 63.2591ZM224.633 66.3574L225.986 66.8312L226.04 66.6776L226.058 66.5158L224.633 66.3574ZM222.223 73.2424L220.869 72.7685L219.99 75.279L222.571 74.6339L222.223 73.2424ZM224.288 72.726L224.636 71.3345L224.288 71.2475L223.94 71.3345L224.288 72.726ZM225.665 73.0703L226.847 72.2576L226.54 71.8104L226.013 71.6787L225.665 73.0703ZM227.559 75.8242L228.964 75.536L228.905 75.2512L228.741 75.0116L227.559 75.8242ZM228.936 82.5371L230.344 82.8118L230.399 82.5301L230.341 82.2489L228.936 82.5371ZM232.206 112.143L233.489 112.784L233.511 112.74L233.53 112.694L232.206 112.143ZM231.001 114.552L232.138 115.427L232.222 115.317L232.284 115.194L231.001 114.552ZM229.28 116.79L228.143 115.915L228.128 115.936L228.113 115.956L229.28 116.79ZM228.419 117.995L229.291 119.134L229.462 119.004L229.587 118.829L228.419 117.995ZM225.493 120.233L225.595 121.663L226.024 121.633L226.365 121.372L225.493 120.233ZM223.083 120.405L222.981 118.974L222.943 118.977L222.906 118.981L223.083 120.405ZM221.707 120.577L220.762 121.656L221.246 122.08L221.884 122L221.707 120.577ZM220.33 119.372L219.315 120.386L219.349 120.42L219.385 120.451L220.33 119.372ZM219.297 118.339H217.862V118.933L218.282 119.353L219.297 118.339ZM219.297 116.618L217.887 116.354L217.862 116.485V116.618H219.297ZM220.33 111.11L219.006 110.557L218.948 110.697L218.92 110.846L220.33 111.11ZM227.731 93.381L226.468 92.701L226.434 92.7632L226.407 92.8284L227.731 93.381ZM230.141 88.9058L228.973 88.072L228.921 88.1459L228.878 88.2257L230.141 88.9058ZM231.001 87.7009L231.349 86.3093L230.402 86.0725L229.834 86.8672L231.001 87.7009ZM232.378 88.0451L232.03 89.4367L232.143 89.4649L232.259 89.4745L232.378 88.0451ZM234.444 88.2173L235.744 87.6107L235.392 86.8569L234.563 86.7878L234.444 88.2173ZM235.649 90.7991L237.079 90.9001L237.106 90.5294L236.948 90.1926L235.649 90.7991ZM234.616 105.43L235.948 105.962L236.031 105.754L236.047 105.531L234.616 105.43ZM232.895 109.733L231.563 109.2L231.324 109.798L231.612 110.374L232.895 109.733ZM233.067 110.077L234.391 110.629L234.643 110.023L234.35 109.436L233.067 110.077ZM243.911 115.757L245.115 116.536L245.277 116.287L245.325 115.993L243.911 115.757ZM242.017 118.683L242.429 120.057L242.935 119.906L243.222 119.463L242.017 118.683ZM238.575 119.716L238.06 121.055L238.517 121.231L238.987 121.09L238.575 119.716ZM236.337 118.856L235.772 120.174L235.797 120.185L235.822 120.194L236.337 118.856ZM235.132 118.339L233.758 118.751L233.951 119.393L234.567 119.658L235.132 118.339ZM234.616 116.618L233.205 116.874L233.219 116.953L233.242 117.03L234.616 116.618ZM234.272 114.725L232.88 114.377L232.805 114.677L232.86 114.981L234.272 114.725ZM235.132 111.282L233.858 110.623L233.781 110.772L233.741 110.934L235.132 111.282ZM237.714 106.29L236.539 105.468L236.484 105.546L236.44 105.631L237.714 106.29ZM238.919 104.569L239.409 103.221L238.375 102.845L237.744 103.747L238.919 104.569ZM240.812 105.258L241.454 103.975L241.38 103.938L241.303 103.91L240.812 105.258ZM242.189 105.946L243.495 105.353L243.285 104.89L242.831 104.663L242.189 105.946ZM243.05 107.84L244.429 107.445L244.4 107.343L244.356 107.246L243.05 107.84ZM244.427 112.659L245.842 112.895L245.895 112.576L245.806 112.265L244.427 112.659ZM178.555 17.44L146.024 95.7569L148.673 96.8574L181.205 18.5405L178.555 17.44ZM146.028 95.7478L137.938 114.854L140.579 115.972L148.669 96.8664L146.028 95.7478ZM138.029 114.675L135.963 118.118L138.423 119.593L140.489 116.151L138.029 114.675ZM136.313 117.723L134.763 118.928L136.525 121.193L138.074 119.988L136.313 117.723ZM134.81 118.893L133.605 119.754L135.273 122.088L136.478 121.228L134.81 118.893ZM135.151 119.676L133.946 118.987L132.523 121.478L133.727 122.166L135.151 119.676ZM133.817 118.922L132.268 118.233L131.103 120.855L132.652 121.543L133.817 118.922ZM133.12 119.544V118.167H130.251V119.544H133.12ZM133.105 118.37L133.621 114.755L130.782 114.35L130.265 117.964L133.105 118.37ZM133.545 115.056L134.061 113.679L131.375 112.672L130.858 114.049L133.545 115.056ZM131.443 112.518L128.689 117.853L131.238 119.169L133.992 113.833L131.443 112.518ZM129.019 117.432L126.265 119.842L128.154 122L130.908 119.591L129.019 117.432ZM126.414 119.728L125.381 120.416L126.973 122.803L128.006 122.114L126.414 119.728ZM126.307 120.181L124.414 120.009L124.154 122.866L126.047 123.038L126.307 120.181ZM124.414 120.009L122.52 119.837L122.261 122.694L124.154 122.866L124.414 120.009ZM123.558 120.432L122.697 119.227L120.363 120.894L121.223 122.099L123.558 120.432ZM122.705 119.238L121.5 117.517L119.15 119.162L120.355 120.883L122.705 119.238ZM121.75 118.498L121.923 116.948L119.071 116.632L118.899 118.181L121.75 118.498ZM121.908 117.047L122.597 113.26L119.774 112.747L119.086 116.533L121.908 117.047ZM122.513 113.545L130.948 92.8905L128.292 91.806L119.858 112.461L122.513 113.545ZM130.945 92.8975L155.559 33.5144L152.908 32.4159L128.295 91.799L130.945 92.8975ZM155.562 33.5072L162.447 16.6389L159.79 15.5548L152.905 32.4231L155.562 33.5072ZM162.382 16.7755L167.374 7.48077L164.846 6.12348L159.855 15.4182L162.382 16.7755ZM166.92 7.98592L170.19 5.7483L168.571 3.3807L165.3 5.61832L166.92 7.98592ZM169.491 5.99465L171.728 5.82253L171.508 2.96222L169.27 3.13435L169.491 5.99465ZM171.796 5.81567L173.173 5.64355L172.817 2.79695L171.44 2.96908L171.796 5.81567ZM171.981 5.23451L173.358 6.6115L175.386 4.58299L174.009 3.20599L171.981 5.23451ZM173.358 6.6115L174.391 7.64426L176.419 5.61575L175.386 4.58299L173.358 6.6115ZM173.971 6.63V8.35125H176.839V6.63H173.971ZM174.011 8.01469L172.806 13.0063L175.594 13.6794L176.799 8.68781L174.011 8.01469ZM175.508 13.9315L177.057 10.489L174.441 9.31176L172.892 12.7543L175.508 13.9315ZM176.886 10.7749L178.607 8.5373L176.333 6.7882L174.612 9.02582L176.886 10.7749ZM178.003 8.99453L179.724 8.30603L178.659 5.64246L176.938 6.33097L178.003 8.99453ZM179.645 8.33501L181.194 7.81864L180.287 5.0971L178.738 5.61348L179.645 8.33501ZM179.547 7.25352L180.58 8.80264L182.967 7.21135L181.934 5.66222L179.547 7.25352ZM180.58 8.80264L181.269 9.8354L183.655 8.24411L182.967 7.21135L180.58 8.80264ZM181.051 8.78316L180.707 10.6765L183.529 11.1897L183.873 9.29634L181.051 8.78316ZM180.75 10.4996L178.513 17.5567L181.247 18.4238L183.485 11.3667L180.75 10.4996ZM156.867 19.5065L126.401 93.0039L129.051 94.1024L159.517 20.605L156.867 19.5065ZM126.401 93.0032L118.828 111.248L121.478 112.348L129.051 94.103L126.401 93.0032ZM118.89 111.118L116.48 115.594L119.006 116.954L121.416 112.478L118.89 111.118ZM116.498 115.562L115.809 116.767L118.3 118.19L118.988 116.985L116.498 115.562ZM117.62 116.16L116.415 115.644L115.285 118.281L116.489 118.797L117.62 116.16ZM116.353 115.619L114.976 115.103L113.969 117.789L115.346 118.305L116.353 115.619ZM115.864 116.794L116.208 115.417L113.425 114.721L113.081 116.098L115.864 116.794ZM116.178 115.522L117.21 112.424L114.489 111.517L113.456 114.615L116.178 115.522ZM117.178 112.511L125.096 93.0612L122.439 91.9796L114.521 111.43L117.178 112.511ZM125.087 93.0835L131.111 78.9692L128.473 77.843L122.448 91.9573L125.087 93.0835ZM131.147 78.8764L148.531 28.7881L145.821 27.8474L128.437 77.9358L131.147 78.8764ZM148.532 28.7864L153.352 14.8442L150.64 13.907L145.821 27.8491L148.532 28.7864ZM153.302 14.9692L156.744 7.39567L154.133 6.20858L150.69 13.7821L153.302 14.9692ZM156.417 7.85073L158.999 5.44098L157.042 3.34377L154.46 5.75352L156.417 7.85073ZM157.626 5.77156L158.831 6.11581L159.619 3.35743L158.414 3.01319L157.626 5.77156ZM159.047 6.15992L160.424 6.33204L160.78 3.48544L159.403 3.31332L159.047 6.15992ZM159.168 4.90874V6.28575H162.037V4.90874H159.168ZM159.174 6.14975L158.83 9.76438L161.686 10.0364L162.03 6.42174L159.174 6.14975ZM158.897 9.44677L158.725 9.96314L161.447 10.8703L161.619 10.354L158.897 9.44677ZM160.727 11.6997L161.071 11.5276L159.789 8.96167L159.444 9.1338L160.727 11.6997ZM159.019 10.5012L159.363 12.3946L162.185 11.8814L161.841 9.98803L159.019 10.5012ZM159.371 11.8425L158.682 15.1129L161.489 15.7039L162.178 12.4335L159.371 11.8425ZM158.757 14.8672L156.864 19.5146L159.521 20.5969L161.414 15.9496L158.757 14.8672ZM192.494 18.8266L186.469 33.6293L189.126 34.7107L195.151 19.9079L192.494 18.8266ZM186.489 33.5825L182.703 42.0166L185.32 43.1916L189.106 34.7575L186.489 33.5825ZM182.848 41.7643L180.611 44.8626L182.936 46.5422L185.174 43.4439L182.848 41.7643ZM180.843 44.6111L174.99 49.6027L176.852 51.7853L182.704 46.7937L180.843 44.6111ZM174.589 50.1613L173.212 53.6038L175.876 54.6692L177.253 51.2267L174.589 50.1613ZM173.166 53.7377L171.273 60.2784L174.029 61.0761L175.922 54.5353L173.166 53.7377ZM171.265 60.309L168.338 71.325L171.111 72.0615L174.037 61.0455L171.265 60.309ZM168.32 71.4034L166.082 82.2473L168.892 82.827L171.13 71.9831L168.32 71.4034ZM166.159 81.9963L158.241 101.446L160.898 102.528L168.816 83.0779L166.159 81.9963ZM158.247 101.431L153.255 113.308L155.9 114.42L160.892 102.543L158.247 101.431ZM153.328 113.159L149.542 119.872L152.04 121.281L155.827 114.569L153.328 113.159ZM149.725 119.617L148.176 121.338L150.308 123.258L151.857 121.536L149.725 119.617ZM148.69 120.974L146.625 121.835L147.728 124.483L149.794 123.622L148.69 120.974ZM146.673 121.816L145.296 122.332L146.303 125.018L147.68 124.502L146.673 121.816ZM146.056 122.264L144.163 121.92L143.649 124.742L145.543 125.086L146.056 122.264ZM144.217 121.931L142.668 121.586L142.046 124.387L143.595 124.731L144.217 121.931ZM143.55 122.191L142.518 120.642L140.131 122.233L141.163 123.782L143.55 122.191ZM142.518 120.642L141.485 119.093L139.098 120.684L140.131 122.233L142.518 120.642ZM141.726 119.888V118.511H138.857V119.888H141.726ZM141.7 118.78L142.389 115.165L139.571 114.628L138.882 118.243L141.7 118.78ZM142.31 115.433L150.916 94.0895L148.256 93.0167L139.65 114.36L142.31 115.433ZM150.911 94.1032L175.353 35.2364L172.703 34.1363L148.261 93.0031L150.911 94.1032ZM175.352 35.2371L182.582 17.8525L179.933 16.751L172.703 34.1356L175.352 35.2371ZM182.53 17.9635L184.767 13.6604L182.222 12.3369L179.985 16.64L182.53 17.9635ZM184.805 13.5812L185.494 12.0321L182.873 10.8669L182.184 12.4161L184.805 13.5812ZM185.444 12.1327L187.682 8.00166L185.16 6.63532L182.922 10.7663L185.444 12.1327ZM184.987 7.31849V8.00699H187.855V7.31849H184.987ZM187.081 9.28037L191.729 6.87062L190.408 4.32387L185.761 6.73362L187.081 9.28037ZM191.48 6.97113L193.202 6.45476L192.377 3.70699L190.656 4.22336L191.48 6.97113ZM192.052 6.31084L193.773 7.34359L195.249 4.88366L193.527 3.85091L192.052 6.31084ZM193.715 7.3071L195.264 8.33984L196.856 5.9529L195.306 4.92015L193.715 7.3071ZM194.642 7.36448L194.986 9.6021L197.822 9.16589L197.478 6.92826L194.642 7.36448ZM195.015 9.02485L192.434 19.0081L195.211 19.7264L197.793 9.74314L195.015 9.02485ZM204.719 31.8985L180.621 89.9046L183.27 91.0052L207.368 32.999L204.719 31.8985ZM180.629 89.8862L177.358 97.4597L179.992 98.597L183.262 91.0235L180.629 89.8862ZM177.43 97.3167L173.987 103.341L176.478 104.764L179.921 98.74L177.43 97.3167ZM174.218 103.038L172.497 104.76L174.526 106.788L176.247 105.067L174.218 103.038ZM173.09 104.403L170.852 105.092L171.696 107.833L173.933 107.145L173.09 104.403ZM170.926 105.071L169.549 105.415L170.245 108.198L171.622 107.854L170.926 105.071ZM170.616 105.565L167.345 103.672L165.908 106.155L169.178 108.048L170.616 105.565ZM168.061 104.913V103.881H165.192V104.913H168.061ZM168.048 103.691L167.704 101.109L164.86 101.488L165.205 104.07L168.048 103.691ZM167.63 101.789L168.319 99.8956L165.623 98.9152L164.934 100.809L167.63 101.789ZM168.295 99.9571L169.155 97.8916L166.507 96.7882L165.647 98.8537L168.295 99.9571ZM166.548 96.6984L161.557 106.682L164.123 107.965L169.114 97.9813L166.548 96.6984ZM161.63 106.553L158.015 112.233L160.435 113.773L164.05 108.093L161.63 106.553ZM158.365 111.856L156.988 112.889L158.709 115.184L160.086 114.151L158.365 111.856ZM158.862 113.022L157.83 111.989L155.801 114.018L156.834 115.05L158.862 113.022ZM158.186 113.425L158.875 111.187L156.133 110.344L155.444 112.581L158.186 113.425ZM158.847 111.269L160.912 105.761L158.226 104.754L156.161 110.262L158.847 111.269ZM160.894 105.807L169.673 84.6356L167.023 83.5369L158.244 104.708L160.894 105.807ZM169.631 84.7277L172.04 79.9082L169.475 78.6253L167.065 83.4448L169.631 84.7277ZM171.71 80.3388L173.26 78.9618L171.354 76.8177L169.805 78.1947L171.71 80.3388ZM173.187 79.022L174.736 77.8171L172.975 75.5527L171.426 76.7575L173.187 79.022ZM172.602 77.3815L173.463 78.9306L175.97 77.5374L175.11 75.9883L172.602 77.3815ZM173.433 78.8755L174.294 80.5967L176.86 79.3138L175.999 77.5925L173.433 78.8755ZM174.294 79.3138L173.778 80.3465L176.344 81.6295L176.86 80.5967L174.294 79.3138ZM176.142 81.9301L180.79 76.5942L178.626 74.7101L173.979 80.0459L176.142 81.9301ZM180.297 76.9602L183.739 75.411L182.562 72.795L179.119 74.3441L180.297 76.9602ZM184.11 75.1692L185.831 73.62L183.912 71.4877L182.191 73.0368L184.11 75.1692ZM185.886 73.5681L186.747 72.7075L184.718 70.679L183.857 71.5396L185.886 73.5681ZM187.156 71.8712L187.328 70.4942L184.481 70.1383L184.309 71.5153L187.156 71.8712ZM187.335 70.4184L187.507 68.0087L184.646 67.8043L184.474 70.2141L187.335 70.4184ZM187.486 67.6381L186.797 64.0235L183.979 64.5603L184.668 68.1749L187.486 67.6381ZM186.821 64.2252L186.477 56.8239L183.611 56.9571L183.955 64.3585L186.821 64.2252ZM186.388 57.3907L189.142 49.9893L186.454 48.9889L183.7 56.3903L186.388 57.3907ZM186.65 48.6285L186.134 49.317L188.429 51.0382L188.945 50.3497L186.65 48.6285ZM187.993 48.9322L186.788 48.2437L185.365 50.7345L186.57 51.423L187.993 48.9322ZM186.642 48.1707L185.437 47.6544L184.307 50.2911L185.512 50.8075L186.642 48.1707ZM186.306 48.9728V47.94H183.437V48.9728H186.306ZM186.306 47.94V45.186H183.437V47.94H186.306ZM186.21 45.7025L189.997 35.8914L187.32 34.8584L183.534 44.6695L186.21 45.7025ZM189.987 35.9165L197.216 18.1876L194.56 17.1044L187.33 34.8333L189.987 35.9165ZM197.165 18.2993L200.951 10.8979L198.398 9.5913L194.611 16.9927L197.165 18.2993ZM200.355 11.5075L202.592 10.3027L201.232 7.77682L198.994 8.98169L200.355 11.5075ZM201.142 10.2499L203.035 11.4547L204.576 9.03449L202.682 7.82962L201.142 10.2499ZM202.388 10.0265L202.044 12.2641L204.879 12.7004L205.223 10.4627L202.388 10.0265ZM202.126 11.9596L200.576 15.9184L203.248 16.9638L204.797 13.0049L202.126 11.9596ZM202.334 17.8121L204.572 17.1236L203.728 14.3817L201.49 15.0702L202.334 17.8121ZM203.738 17.1265L205.459 17.6429L206.283 14.8951L204.562 14.3787L203.738 17.1265ZM204.689 17.0816L206.582 19.8356L208.946 18.2104L207.053 15.4564L204.689 17.0816ZM206.358 19.3043L206.874 21.8862L209.687 21.3236L209.171 18.7417L206.358 19.3043ZM206.876 21.315L204.638 32.1589L207.448 32.7386L209.686 21.8947L206.876 21.315ZM212.115 55.6626L200.239 84.9238L202.897 86.0027L214.774 56.7414L212.115 55.6626ZM200.247 84.9031L195.428 96.2633L198.069 97.3837L202.888 86.0234L200.247 84.9031ZM195.432 96.2542L192.678 102.623L195.311 103.761L198.065 97.3928L195.432 96.2542ZM192.896 102.27L189.281 106.573L191.478 108.418L195.093 104.115L192.896 102.27ZM189.519 106.348L188.142 107.381L189.863 109.676L191.24 108.643L189.519 106.348ZM188.738 107.118L185.984 107.635L186.513 110.454L189.267 109.938L188.738 107.118ZM185.967 107.638L185.107 107.81L185.669 110.623L186.53 110.451L185.967 107.638ZM186.232 108.056L184.338 106.679L182.651 109L184.544 110.377L186.232 108.056ZM184.206 106.594L183.002 105.906L181.578 108.396L182.783 109.085L184.206 106.594ZM183.705 106.915L183.533 105.882L180.703 106.354L180.875 107.387L183.705 106.915ZM183.54 105.929L183.195 103.347L180.352 103.726L180.696 106.308L183.54 105.929ZM183.134 103.99L183.479 102.957L180.757 102.05L180.413 103.083L183.134 103.99ZM181.9 101.086L179.662 101.43L180.098 104.266L182.336 103.921L181.9 101.086ZM179.599 101.441L178.738 101.613L179.301 104.427L180.161 104.254L179.599 101.441ZM180.454 103.02V101.987H177.585V103.02H180.454ZM180.448 102.117L180.792 98.3304L177.935 98.0706L177.591 101.857L180.448 102.117ZM180.696 98.7332L185.859 85.8238L183.196 84.7584L178.032 97.6678L180.696 98.7332ZM185.853 85.8402L203.754 42.6368L201.103 41.5387L183.202 84.7421L185.853 85.8402ZM203.748 42.6502L208.223 32.1505L205.584 31.0257L201.109 41.5253L203.748 42.6502ZM208.043 32.4594L210.281 29.5333L208.002 27.7907L205.764 30.7168L208.043 32.4594ZM208.127 29.6763L210.365 31.9139L212.393 29.8854L210.156 27.6477L208.127 29.6763ZM209.951 30.7698L209.778 32.6631L212.635 32.9229L212.807 31.0295L209.951 30.7698ZM209.825 32.4091L208.104 38.6056L210.868 39.3734L212.589 33.1769L209.825 32.4091ZM208.125 38.5359L207.953 39.0523L210.674 39.9595L210.846 39.4431L208.125 38.5359ZM209.314 40.9402H210.174V38.0715H209.314V40.9402ZM209.692 40.8567L212.101 41.7173L213.066 39.0157L210.657 38.1551L209.692 40.8567ZM211.374 41.1366L212.579 43.03L214.999 41.4898L213.794 39.5964L211.374 41.1366ZM212.428 42.7135L213.289 45.2953L216.01 44.3882L215.15 41.8063L212.428 42.7135ZM213.223 44.6905L212.018 56.0507L214.871 56.3533L216.076 44.993L213.223 44.6905ZM226.225 89.0657L218.652 108.172L221.319 109.229L228.892 90.1228L226.225 89.0657ZM218.694 108.075L213.53 118.747L216.113 119.997L221.276 109.325L218.694 108.075ZM213.872 118.296L210.946 120.878L212.844 123.029L215.771 120.447L213.872 118.296ZM211.501 120.575L209.092 121.263L209.88 124.021L212.289 123.333L211.501 120.575ZM209.174 121.242L207.625 121.586L208.248 124.387L209.797 124.042L209.174 121.242ZM208.78 121.826L206.887 120.449L205.199 122.77L207.093 124.147L208.78 121.826ZM206.877 120.442L205.672 119.582L204.005 121.916L205.209 122.777L206.877 120.442ZM206.23 120.401L205.886 119.024L203.102 119.72L203.447 121.097L206.23 120.401ZM205.892 119.049L205.375 116.812L202.58 117.457L203.096 119.694L205.892 119.049ZM205.387 117.403L206.075 113.788L203.257 113.251L202.569 116.866L205.387 117.403ZM206.027 113.973L206.888 111.391L204.166 110.484L203.305 113.066L206.027 113.973ZM204.775 109.716L202.537 111.093L204.041 113.536L206.279 112.159L204.775 109.716ZM204.112 111.14L202.39 109.935L200.745 112.285L202.467 113.49L204.112 111.14ZM202.402 109.943L201.197 109.082L199.529 111.416L200.734 112.277L202.402 109.943ZM201.617 109.553L200.756 108.004L198.249 109.397L199.109 110.946L201.617 109.553ZM200.863 108.247L199.142 103.083L196.42 103.99L198.142 109.154L200.863 108.247ZM199.212 103.639L199.384 101.229L196.523 101.024L196.35 103.434L199.212 103.639ZM199.308 101.599L203.267 90.2384L200.558 89.2944L196.599 100.655L199.308 101.599ZM203.237 90.3161L213.737 65.0138L211.087 63.9142L200.587 89.2166L203.237 90.3161ZM213.722 65.0487L218.025 55.4097L215.405 54.2403L211.102 63.8793L213.722 65.0487ZM217.894 55.6415L219.443 53.4038L217.085 51.7709L215.536 54.0085L217.894 55.6415ZM218.422 54.013L219.972 53.8408L219.655 50.9896L218.106 51.1618L218.422 54.013ZM219.813 53.8496H221.879V50.9809H219.813V53.8496ZM220.616 53.0953L221.821 55.3329L224.346 53.9728L223.142 51.7352L220.616 53.0953ZM221.683 54.9611L223.576 63.5673L226.378 62.9509L224.484 54.3447L221.683 54.9611ZM223.551 63.1007L223.207 66.199L226.058 66.5158L226.402 63.4175L223.551 63.1007ZM223.279 65.8835L220.869 72.7685L223.577 73.7162L225.986 66.8312L223.279 65.8835ZM222.571 74.6339L224.636 74.1176L223.94 71.3345L221.875 71.8508L222.571 74.6339ZM223.94 74.1176L225.317 74.4618L226.013 71.6787L224.636 71.3345L223.94 74.1176ZM224.483 73.8829L226.377 76.6369L228.741 75.0116L226.847 72.2576L224.483 73.8829ZM226.154 76.1125L227.531 82.8254L230.341 82.2489L228.964 75.536L226.154 76.1125ZM227.528 82.2624L226.151 89.3196L228.967 89.8689L230.344 82.8118L227.528 82.2624ZM230.923 111.501L229.718 113.911L232.284 115.194L233.489 112.784L230.923 111.501ZM229.864 113.678L228.143 115.915L230.417 117.665L232.138 115.427L229.864 113.678ZM228.113 115.956L227.252 117.161L229.587 118.829L230.447 117.624L228.113 115.956ZM227.548 116.855L224.622 119.093L226.365 121.372L229.291 119.134L227.548 116.855ZM225.391 118.802L222.981 118.974L223.186 121.835L225.595 121.663L225.391 118.802ZM222.906 118.981L221.529 119.153L221.884 122L223.261 121.828L222.906 118.981ZM222.651 119.497L221.274 118.292L219.385 120.451L220.762 121.656L222.651 119.497ZM221.344 118.358L220.311 117.325L218.282 119.353L219.315 120.386L221.344 118.358ZM220.731 118.339V116.618H217.862V118.339H220.731ZM220.707 116.882L221.739 111.374L218.92 110.846L217.887 116.354L220.707 116.882ZM221.653 111.662L229.055 93.9336L226.407 92.8284L219.006 110.557L221.653 111.662ZM228.994 94.061L231.404 89.5858L228.878 88.2257L226.468 92.701L228.994 94.061ZM231.308 89.7395L232.168 88.5346L229.834 86.8672L228.973 88.072L231.308 89.7395ZM230.653 89.0924L232.03 89.4367L232.726 86.6536L231.349 86.3093L230.653 89.0924ZM232.259 89.4745L234.325 89.6467L234.563 86.7878L232.497 86.6157L232.259 89.4745ZM233.144 88.8238L234.349 91.4057L236.948 90.1926L235.744 87.6107L233.144 88.8238ZM234.218 90.6981L233.185 105.329L236.047 105.531L237.079 90.9001L234.218 90.6981ZM233.284 104.897L231.563 109.2L234.226 110.266L235.948 105.962L233.284 104.897ZM231.612 110.374L231.784 110.719L234.35 109.436L234.178 109.091L231.612 110.374ZM231.743 109.525L230.882 111.591L233.53 112.694L234.391 110.629L231.743 109.525ZM242.706 114.978L240.813 117.904L243.222 119.463L245.115 116.536L242.706 114.978ZM241.605 117.309L238.163 118.342L238.987 121.09L242.429 120.057L241.605 117.309ZM239.09 118.377L236.852 117.517L235.822 120.194L238.06 121.055L239.09 118.377ZM236.902 117.537L235.697 117.021L234.567 119.658L235.772 120.174L236.902 117.537ZM236.506 117.927L235.99 116.206L233.242 117.03L233.758 118.751L236.506 117.927ZM236.027 116.361L235.683 114.468L232.86 114.981L233.205 116.874L236.027 116.361ZM235.663 115.072L236.524 111.63L233.741 110.934L232.88 114.377L235.663 115.072ZM236.406 111.941L238.988 106.949L236.44 105.631L233.858 110.623L236.406 111.941ZM238.889 107.113L240.094 105.392L237.744 103.747L236.539 105.468L238.889 107.113ZM238.429 105.917L240.322 106.606L241.303 103.91L239.409 103.221L238.429 105.917ZM240.171 106.541L241.548 107.229L242.831 104.663L241.454 103.975L240.171 106.541ZM240.884 106.54L241.744 108.433L244.356 107.246L243.495 105.353L240.884 106.54ZM241.671 108.234L243.048 113.053L245.806 112.265L244.429 107.445L241.671 108.234ZM243.012 112.423L242.496 115.521L245.325 115.993L245.842 112.895L243.012 112.423Z" fill="#3EC6D5" mask="url(#path-4-inside-2_0_1)"/>
<path d="M256.46 5.37405H301.626L279.043 54.3264L256.46 5.37405ZM279.043 48.2676L297.702 7.9215H260.454L279.043 48.2676ZM314.517 17.5605V5.4429H345.5V17.5605H331.248V41.2449H345.5V53.3625H314.517V41.2449H328.769V17.5605H314.517ZM363.761 5.4429H398.668V17.5605H376.292V23.6193H394.881V35.1173H376.292V41.2449H398.668V53.3625H363.761V5.4429ZM430.699 53.3625V17.5605H412.592V5.4429H451.286V17.5605H433.178V53.3625H430.699ZM505.487 53.3625H460.321L482.904 4.41015L505.487 53.3625ZM464.314 50.8151H501.493L482.904 10.469L464.314 50.8151ZM352.591 122.363H307.426L330.008 73.4102L352.591 122.363ZM311.419 119.815H348.598L330.008 79.469L311.419 119.815ZM400.733 104.255C400.779 110.268 399.058 114.973 395.57 118.369C392.081 121.72 387.285 123.395 381.18 123.395C377.554 123.395 374.203 122.569 371.128 120.917C368.099 119.264 365.689 116.923 363.899 113.894C362.109 110.865 361.214 107.376 361.214 103.429V93.3767C361.214 89.4752 362.063 86.0097 363.761 82.9803C365.505 79.9509 367.869 77.61 370.853 75.9576C373.882 74.2593 377.256 73.4102 380.974 73.4102C387.078 73.4102 391.852 75.0855 395.294 78.4362C398.783 81.741 400.55 86.4228 400.596 92.4816H388.203C388.157 90.1407 387.514 88.3277 386.275 87.0425C385.082 85.7573 383.314 85.1147 380.974 85.1147C378.862 85.1147 377.118 85.7802 375.741 87.1113C374.364 88.4424 373.675 90.3243 373.675 92.757V103.98C373.675 106.412 374.387 108.317 375.81 109.694C377.279 111.025 379.069 111.691 381.18 111.691C386 111.691 388.409 109.212 388.409 104.255H400.733ZM454.521 122.363H409.356L431.939 73.4102L454.521 122.363ZM413.349 119.815H450.528L431.939 79.469L413.349 119.815ZM465.691 122.363V74.4429H483.523C487.012 74.4429 490.225 75.315 493.162 77.0592C496.146 78.8034 498.51 81.1673 500.254 84.1508C501.998 87.0884 502.87 90.3014 502.87 93.7898V103.016C502.87 106.504 501.998 109.74 500.254 112.724C498.51 115.661 496.146 118.002 493.162 119.746C490.225 121.49 487.012 122.363 483.523 122.363H465.691ZM516.656 74.4429H551.563V86.5605H529.187V92.6193H547.777V104.117H529.187V110.245H551.563V122.363H516.656V74.4429ZM565.487 74.3741H568.241L584.972 103.98L601.633 74.3741H604.181V122.294H565.487V74.3741ZM568.035 119.815H601.633V79.5378L586.142 106.802H583.732L568.035 79.1247V119.815ZM615.351 74.4429H656.248L637.107 102.74V122.363H634.56V102.74L615.351 74.4429Z" fill="#D6C4C4"/>
<path d="M256.46 5.37405H301.626L279.043 54.3264L256.46 5.37405ZM279.043 48.2676L297.702 7.9215H260.454L279.043 48.2676ZM314.517 17.5605V5.4429H345.5V17.5605H331.248V41.2449H345.5V53.3625H314.517V41.2449H328.769V17.5605H314.517ZM363.761 5.4429H398.668V17.5605H376.292V23.6193H394.881V35.1173H376.292V41.2449H398.668V53.3625H363.761V5.4429ZM430.699 53.3625V17.5605H412.592V5.4429H451.286V17.5605H433.178V53.3625H430.699ZM505.487 53.3625H460.321L482.904 4.41015L505.487 53.3625ZM464.314 50.8151H501.493L482.904 10.469L464.314 50.8151ZM352.591 122.363H307.426L330.008 73.4102L352.591 122.363ZM311.419 119.815H348.598L330.008 79.469L311.419 119.815ZM400.733 104.255C400.779 110.268 399.058 114.973 395.57 118.369C392.081 121.72 387.285 123.395 381.18 123.395C377.554 123.395 374.203 122.569 371.128 120.917C368.099 119.264 365.689 116.923 363.899 113.894C362.109 110.865 361.214 107.376 361.214 103.429V93.3767C361.214 89.4752 362.063 86.0097 363.761 82.9803C365.505 79.9509 367.869 77.61 370.853 75.9576C373.882 74.2593 377.256 73.4102 380.974 73.4102C387.078 73.4102 391.852 75.0855 395.294 78.4362C398.783 81.741 400.55 86.4228 400.596 92.4816H388.203C388.157 90.1407 387.514 88.3277 386.275 87.0425C385.082 85.7573 383.314 85.1147 380.974 85.1147C378.862 85.1147 377.118 85.7802 375.741 87.1113C374.364 88.4424 373.675 90.3243 373.675 92.757V103.98C373.675 106.412 374.387 108.317 375.81 109.694C377.279 111.025 379.069 111.691 381.18 111.691C386 111.691 388.409 109.212 388.409 104.255H400.733ZM454.521 122.363H409.356L431.939 73.4102L454.521 122.363ZM413.349 119.815H450.528L431.939 79.469L413.349 119.815ZM465.691 122.363V74.4429H483.523C487.012 74.4429 490.225 75.315 493.162 77.0592C496.146 78.8034 498.51 81.1673 500.254 84.1508C501.998 87.0884 502.87 90.3014 502.87 93.7898V103.016C502.87 106.504 501.998 109.74 500.254 112.724C498.51 115.661 496.146 118.002 493.162 119.746C490.225 121.49 487.012 122.363 483.523 122.363H465.691ZM516.656 74.4429H551.563V86.5605H529.187V92.6193H547.777V104.117H529.187V110.245H551.563V122.363H516.656V74.4429ZM565.487 74.3741H568.241L584.972 103.98L601.633 74.3741H604.181V122.294H565.487V74.3741ZM568.035 119.815H601.633V79.5378L586.142 106.802H583.732L568.035 79.1247V119.815ZM615.351 74.4429H656.248L637.107 102.74V122.363H634.56V102.74L615.351 74.4429Z" fill="#194F19"/>
<path d="M256.46 5.37405H301.626L279.043 54.3264L256.46 5.37405ZM279.043 48.2676L297.702 7.9215H260.454L279.043 48.2676ZM314.517 17.5605V5.4429H345.5V17.5605H331.248V41.2449H345.5V53.3625H314.517V41.2449H328.769V17.5605H314.517ZM363.761 5.4429H398.668V17.5605H376.292V23.6193H394.881V35.1173H376.292V41.2449H398.668V53.3625H363.761V5.4429ZM430.699 53.3625V17.5605H412.592V5.4429H451.286V17.5605H433.178V53.3625H430.699ZM505.487 53.3625H460.321L482.904 4.41015L505.487 53.3625ZM464.314 50.8151H501.493L482.904 10.469L464.314 50.8151ZM352.591 122.363H307.426L330.008 73.4102L352.591 122.363ZM311.419 119.815H348.598L330.008 79.469L311.419 119.815ZM400.733 104.255C400.779 110.268 399.058 114.973 395.57 118.369C392.081 121.72 387.285 123.395 381.18 123.395C377.554 123.395 374.203 122.569 371.128 120.917C368.099 119.264 365.689 116.923 363.899 113.894C362.109 110.865 361.214 107.376 361.214 103.429V93.3767C361.214 89.4752 362.063 86.0097 363.761 82.9803C365.505 79.9509 367.869 77.61 370.853 75.9576C373.882 74.2593 377.256 73.4102 380.974 73.4102C387.078 73.4102 391.852 75.0855 395.294 78.4362C398.783 81.741 400.55 86.4228 400.596 92.4816H388.203C388.157 90.1407 387.514 88.3277 386.275 87.0425C385.082 85.7573 383.314 85.1147 380.974 85.1147C378.862 85.1147 377.118 85.7802 375.741 87.1113C374.364 88.4424 373.675 90.3243 373.675 92.757V103.98C373.675 106.412 374.387 108.317 375.81 109.694C377.279 111.025 379.069 111.691 381.18 111.691C386 111.691 388.409 109.212 388.409 104.255H400.733ZM454.521 122.363H409.356L431.939 73.4102L454.521 122.363ZM413.349 119.815H450.528L431.939 79.469L413.349 119.815ZM465.691 122.363V74.4429H483.523C487.012 74.4429 490.225 75.315 493.162 77.0592C496.146 78.8034 498.51 81.1673 500.254 84.1508C501.998 87.0884 502.87 90.3014 502.87 93.7898V103.016C502.87 106.504 501.998 109.74 500.254 112.724C498.51 115.661 496.146 118.002 493.162 119.746C490.225 121.49 487.012 122.363 483.523 122.363H465.691ZM516.656 74.4429H551.563V86.5605H529.187V92.6193H547.777V104.117H529.187V110.245H551.563V122.363H516.656V74.4429ZM565.487 74.3741H568.241L584.972 103.98L601.633 74.3741H604.181V122.294H565.487V74.3741ZM568.035 119.815H601.633V79.5378L586.142 106.802H583.732L568.035 79.1247V119.815ZM615.351 74.4429H656.248L637.107 102.74V122.363H634.56V102.74L615.351 74.4429Z" fill="#9AE0DF"/>
<path d="M256.46 5.37405H301.626L279.043 54.3264L256.46 5.37405ZM279.043 48.2676L297.702 7.9215H260.454L279.043 48.2676ZM314.517 17.5605V5.4429H345.5V17.5605H331.248V41.2449H345.5V53.3625H314.517V41.2449H328.769V17.5605H314.517ZM363.761 5.4429H398.668V17.5605H376.292V23.6193H394.881V35.1173H376.292V41.2449H398.668V53.3625H363.761V5.4429ZM430.699 53.3625V17.5605H412.592V5.4429H451.286V17.5605H433.178V53.3625H430.699ZM505.487 53.3625H460.321L482.904 4.41015L505.487 53.3625ZM464.314 50.8151H501.493L482.904 10.469L464.314 50.8151ZM352.591 122.363H307.426L330.008 73.4102L352.591 122.363ZM311.419 119.815H348.598L330.008 79.469L311.419 119.815ZM400.733 104.255C400.779 110.268 399.058 114.973 395.57 118.369C392.081 121.72 387.285 123.395 381.18 123.395C377.554 123.395 374.203 122.569 371.128 120.917C368.099 119.264 365.689 116.923 363.899 113.894C362.109 110.865 361.214 107.376 361.214 103.429V93.3767C361.214 89.4752 362.063 86.0097 363.761 82.9803C365.505 79.9509 367.869 77.61 370.853 75.9576C373.882 74.2593 377.256 73.4102 380.974 73.4102C387.078 73.4102 391.852 75.0855 395.294 78.4362C398.783 81.741 400.55 86.4228 400.596 92.4816H388.203C388.157 90.1407 387.514 88.3277 386.275 87.0425C385.082 85.7573 383.314 85.1147 380.974 85.1147C378.862 85.1147 377.118 85.7802 375.741 87.1113C374.364 88.4424 373.675 90.3243 373.675 92.757V103.98C373.675 106.412 374.387 108.317 375.81 109.694C377.279 111.025 379.069 111.691 381.18 111.691C386 111.691 388.409 109.212 388.409 104.255H400.733ZM454.521 122.363H409.356L431.939 73.4102L454.521 122.363ZM413.349 119.815H450.528L431.939 79.469L413.349 119.815ZM465.691 122.363V74.4429H483.523C487.012 74.4429 490.225 75.315 493.162 77.0592C496.146 78.8034 498.51 81.1673 500.254 84.1508C501.998 87.0884 502.87 90.3014 502.87 93.7898V103.016C502.87 106.504 501.998 109.74 500.254 112.724C498.51 115.661 496.146 118.002 493.162 119.746C490.225 121.49 487.012 122.363 483.523 122.363H465.691ZM516.656 74.4429H551.563V86.5605H529.187V92.6193H547.777V104.117H529.187V110.245H551.563V122.363H516.656V74.4429ZM565.487 74.3741H568.241L584.972 103.98L601.633 74.3741H604.181V122.294H565.487V74.3741ZM568.035 119.815H601.633V79.5378L586.142 106.802H583.732L568.035 79.1247V119.815ZM615.351 74.4429H656.248L637.107 102.74V122.363H634.56V102.74L615.351 74.4429Z" fill="#3EC6D5"/>
</svg>
