<?xml version="1.0" encoding="UTF-8"?>
<svg version="1.1" xmlns="http://www.w3.org/2000/svg" width="657" height="124">
<path d="M0 0 C1.423125 0.2475 1.423125 0.2475 2.875 0.5 C3.535 1.49 4.195 2.48 4.875 3.5 C7.43782742 4.22965366 7.43782742 4.22965366 9.875 4.5 C9.875 6.15 9.875 7.8 9.875 9.5 C10.1225 8.860625 10.37 8.22125 10.625 7.5625 C11.875 5.5 11.875 5.5 14 4.75 C14.61875 4.6675 15.2375 4.585 15.875 4.5 C15.875 5.49 15.875 6.48 15.875 7.5 C16.865 7.83 17.855 8.16 18.875 8.5 C19.24625 7.675 19.6175 6.85 20 6 C21.875 3.5 21.875 3.5 24.9375 3.0625 C27.875 3.5 27.875 3.5 29.875 5.5 C30.09825051 10.03942698 29.98220735 14.07117061 28.875 18.5 C29.865 17.84 30.855 17.18 31.875 16.5 C31.83375 17.44875 31.7925 18.3975 31.75 19.375 C31.52526182 22.60244856 31.52526182 22.60244856 33.875 24.5 C34.0703125 27.5390625 34.0703125 27.5390625 34 31.125 C33.98195312 32.31351563 33.96390625 33.50203125 33.9453125 34.7265625 C33.92210937 35.64179687 33.89890625 36.55703125 33.875 37.5 C34.865 37.17 35.855 36.84 36.875 36.5 C37.865 37.16 38.855 37.82 39.875 38.5 C40.203125 41.14453125 40.203125 41.14453125 40.125 44.3125 C40.10953125 45.35019531 40.0940625 46.38789062 40.078125 47.45703125 C39.89298486 50.23057302 39.41958019 52.78175357 38.875 55.5 C39.26897335 58.13804589 39.26897335 58.13804589 39.875 60.5 C39.875 61.16 39.875 61.82 39.875 62.5 C40.535 61.51 41.195 60.52 41.875 59.5 C42.535 59.5 43.195 59.5 43.875 59.5 C43.545 60.82 43.215 62.14 42.875 63.5 C45.34213438 62.54568336 46.60961625 62.04892984 47.78466797 59.6184082 C48.07301514 58.47118286 48.07301514 58.47118286 48.3671875 57.30078125 C48.7077417 55.99802246 48.7077417 55.99802246 49.05517578 54.66894531 C49.28446777 53.72631836 49.51375977 52.78369141 49.75 51.8125 C50.00120605 50.84022461 50.25241211 49.86794922 50.51123047 48.86621094 C51.31453877 45.747837 52.0959173 42.62450636 52.875 39.5 C53.65731707 36.40501846 54.44437832 33.31138731 55.23876953 30.21948242 C55.73189746 28.29584068 56.21772397 26.3703064 56.69482422 24.44262695 C61.00963105 7.45747714 61.00963105 7.45747714 65.875 3.5 C68.375 3.0625 68.375 3.0625 70.875 3.5 C72.6875 5.5 72.6875 5.5 73.875 7.5 C76.35 7.005 76.35 7.005 78.875 6.5 C78.875 5.84 78.875 5.18 78.875 4.5 C81.25 3.4375 81.25 3.4375 83.875 2.5 C84.865 2.995 84.865 2.995 85.875 3.5 C86.37 4.985 86.37 4.985 86.875 6.5 C87.74125 5.4790625 87.74125 5.4790625 88.625 4.4375 C89.3675 3.798125 90.11 3.15875 90.875 2.5 C93.125 2.75 93.125 2.75 94.875 3.5 C94.875 4.16 94.875 4.82 94.875 5.5 C95.82375 5.314375 96.7725 5.12875 97.75 4.9375 C100.875 4.5 100.875 4.5 102.875 5.5 C104.79028081 11.24584242 102.78786086 16.0315955 100.875 21.5 C101.205 20.84 101.535 20.18 101.875 19.5 C102.535 19.83 103.195 20.16 103.875 20.5 C98.30966192 39.93556079 92.67137425 59.34843411 86.84115601 78.70639038 C86.28674335 80.54768084 85.73351271 82.38932768 85.18154907 84.23135376 C83.45146115 90.00004835 81.68514102 95.75592779 79.875 101.5 C79.6538855 102.21140137 79.432771 102.92280273 79.20495605 103.65576172 C78.59059793 105.60993726 77.94840584 107.55529831 77.3046875 109.5 C76.95390137 110.5725 76.60311523 111.645 76.24169922 112.75 C74.6103079 116.03259947 72.96297689 117.55504074 69.875 119.5 C66.5625 119.25 66.5625 119.25 63.875 118.5 C63.875 115.53 63.875 112.56 63.875 109.5 C63.49988281 110.34304687 63.12476562 111.18609375 62.73828125 112.0546875 C62.22652344 113.15039062 61.71476562 114.24609375 61.1875 115.375 C60.68863281 116.46554688 60.18976563 117.55609375 59.67578125 118.6796875 C57.64447583 121.86103786 56.50221727 122.64413974 52.875 123.5 C50.625 122.8125 50.625 122.8125 48.875 121.5 C48.545 120.51 48.215 119.52 47.875 118.5 C42.80665355 117.4329797 39.02474208 117.73707525 33.875 118.5 C33.545 117.51 33.215 116.52 32.875 115.5 C32.215 115.5 31.555 115.5 30.875 115.5 C30.875 114.18 30.875 112.86 30.875 111.5 C30.318125 112.634375 29.76125 113.76875 29.1875 114.9375 C27.24521296 118.35896649 27.24521296 118.35896649 24.25 119.5 C21.875 119.5 21.875 119.5 19.875 118.5 C19.68107799 112.97322267 20.1270497 108.74385089 21.875 103.5 C20.39 104.49 20.39 104.49 18.875 105.5 C18.38 105.005 18.38 105.005 17.875 104.5 C17.9678125 103.3553125 17.9678125 103.3553125 18.0625 102.1875 C18.17639837 99.35275625 18.17639837 99.35275625 15.875 97.6875 C13.875 95.5 13.875 95.5 13.5625 91.625 C13.73560131 88.20144085 14.20239673 84.86301636 14.875 81.5 C14.215 82.49 13.555 83.48 12.875 84.5 C10.4375 83.875 10.4375 83.875 7.875 82.5 C5.81624014 77.48177285 7.65896518 72.93135953 9.18359375 67.98828125 C10.00886094 65.44867758 10.00886094 65.44867758 9.875 62.5 C8.225 62.5 6.575 62.5 4.875 62.5 C2.18062791 58.18900465 1.44337072 52.96645301 2.3125 48 C2.498125 47.505 2.68375 47.01 2.875 46.5 C1.885 46.5 0.895 46.5 -0.125 46.5 C-1.22742833 43.19271502 -0.9860103 42.20395783 -0.125 38.9375 C0.89553325 35.63239978 0.89553325 35.63239978 -0.125 32.5 C-1.445 33.16 -2.765 33.82 -4.125 34.5 C-6.13624138 30.47751725 -5.34104913 26.24266888 -4.125 22.0625 C-3.63 20.7940625 -3.63 20.7940625 -3.125 19.5 C-4.445 19.17 -5.765 18.84 -7.125 18.5 C-7.23364945 16.43867858 -7.31088321 14.37568679 -7.375 12.3125 C-7.42140625 11.16394531 -7.4678125 10.01539063 -7.515625 8.83203125 C-6.92817937 3.82112007 -5.11029139 0.81764662 0 0 Z M71.875 9.5 C72.875 11.5 72.875 11.5 72.875 11.5 Z M7.875 11.5 C8.875 13.5 8.875 13.5 8.875 13.5 Z M70.875 12.5 C71.875 14.5 71.875 14.5 71.875 14.5 Z M67.875 19.5 C68.875 21.5 68.875 21.5 68.875 21.5 Z M25.875 22.5 C26.875 24.5 26.875 24.5 26.875 24.5 Z M98.875 23.5 C99.875 25.5 99.875 25.5 99.875 25.5 Z M97.875 25.5 C98.875 27.5 98.875 27.5 98.875 27.5 Z M96.875 27.5 C97.875 30.5 97.875 30.5 97.875 30.5 Z M95.875 30.5 C96.875 32.5 96.875 32.5 96.875 32.5 Z M94.875 32.5 C95.875 35.5 95.875 35.5 95.875 35.5 Z M93.875 35.5 C94.875 37.5 94.875 37.5 94.875 37.5 Z M92.875 37.5 C93.875 39.5 93.875 39.5 93.875 39.5 Z M31.875 38.5 C32.875 40.5 32.875 40.5 32.875 40.5 Z M18.875 39.5 C19.875 41.5 19.875 41.5 19.875 41.5 Z M91.875 40.5 C92.875 42.5 92.875 42.5 92.875 42.5 Z M90.875 42.5 C91.875 44.5 91.875 44.5 91.875 44.5 Z M16.875 44.5 C17.875 46.5 17.875 46.5 17.875 46.5 Z M89.875 44.5 C90.875 47.5 90.875 47.5 90.875 47.5 Z M88.875 47.5 C89.875 49.5 89.875 49.5 89.875 49.5 Z M87.875 49.5 C88.875 51.5 88.875 51.5 88.875 51.5 Z M13.875 51.5 C14.875 53.5 14.875 53.5 14.875 53.5 Z M86.875 52.5 C87.875 54.5 87.875 54.5 87.875 54.5 Z M85.875 54.5 C86.875 56.5 86.875 56.5 86.875 56.5 Z M11.875 56.5 C12.875 58.5 12.875 58.5 12.875 58.5 Z M84.875 56.5 C85.875 59.5 85.875 59.5 85.875 59.5 Z M83.875 59.5 C84.875 61.5 84.875 61.5 84.875 61.5 Z M82.875 61.5 C83.875 64.5 83.875 64.5 83.875 64.5 Z M81.875 64.5 C82.875 66.5 82.875 66.5 82.875 66.5 Z M36.875 66.5 C37.875 68.5 37.875 68.5 37.875 68.5 Z M80.875 66.5 C81.875 68.5 81.875 68.5 81.875 68.5 Z M35.875 68.5 C36.875 70.5 36.875 70.5 36.875 70.5 Z M79.875 68.5 C80.875 71.5 80.875 71.5 80.875 71.5 Z M34.875 70.5 C35.875 73.5 35.875 73.5 35.875 73.5 Z M78.875 71.5 C79.875 73.5 79.875 73.5 79.875 73.5 Z M33.875 73.5 C34.875 75.5 34.875 75.5 34.875 75.5 Z M77.875 73.5 C78.875 76.5 78.875 76.5 78.875 76.5 Z M32.875 75.5 C33.875 77.5 33.875 77.5 33.875 77.5 Z M76.875 76.5 C77.875 78.5 77.875 78.5 77.875 78.5 Z M15.875 77.5 C16.875 79.5 16.875 79.5 16.875 79.5 Z M31.875 77.5 C32.875 80.5 32.875 80.5 32.875 80.5 Z M75.875 78.5 C76.875 80.5 76.875 80.5 76.875 80.5 Z M30.875 80.5 C31.875 82.5 31.875 82.5 31.875 82.5 Z M74.875 80.5 C75.875 83.5 75.875 83.5 75.875 83.5 Z M29.875 82.5 C30.875 85.5 30.875 85.5 30.875 85.5 Z M73.875 83.5 C74.875 85.5 74.875 85.5 74.875 85.5 Z M28.875 85.5 C29.875 87.5 29.875 87.5 29.875 87.5 Z M72.875 85.5 C73.875 88.5 73.875 88.5 73.875 88.5 Z M27.875 87.5 C28.875 89.5 28.875 89.5 28.875 89.5 Z M71.875 88.5 C72.875 90.5 72.875 90.5 72.875 90.5 Z M26.875 90.5 C27.875 92.5 27.875 92.5 27.875 92.5 Z M70.875 90.5 C71.875 92.5 71.875 92.5 71.875 92.5 Z M25.875 92.5 C26.875 94.5 26.875 94.5 26.875 94.5 Z M69.875 93.5 C70.875 95.5 70.875 95.5 70.875 95.5 Z M24.875 94.5 C25.875 97.5 25.875 97.5 25.875 97.5 Z M68.875 95.5 C69.875 97.5 69.875 97.5 69.875 97.5 Z M23.875 97.5 C24.875 99.5 24.875 99.5 24.875 99.5 Z M67.875 97.5 C68.875 100.5 68.875 100.5 68.875 100.5 Z M22.875 99.5 C23.875 101.5 23.875 101.5 23.875 101.5 Z M66.875 100.5 C67.875 102.5 67.875 102.5 67.875 102.5 Z M33.875 101.5 C34.875 103.5 34.875 103.5 34.875 103.5 Z M65.875 102.5 C66.875 105.5 66.875 105.5 66.875 105.5 Z M64.875 105.5 C65.875 107.5 65.875 107.5 65.875 107.5 Z " fill="#46C7D6" transform="translate(7.125,0.5)"/>
<path d="M0 0 C1.32 0 2.64 0 4 0 C4.495 4.455 4.495 4.455 5 9 C5.680625 7.700625 6.36125 6.40125 7.0625 5.0625 C9.17242544 1.67219245 9.64104229 1.11758959 13.625 -0.1875 C17 0 17 0 18.6875 1.5 C19.120625 1.995 19.55375 2.49 20 3 C22.05396726 2.59070014 22.05396726 2.59070014 24 2 C26 4 26 4 26 8 C26.4125 7.21625 26.825 6.4325 27.25 5.625 C29.09385619 2.85921572 29.8445999 1.90154289 33 1 C36.25 1.375 36.25 1.375 39 2 C40 6.75 40 6.75 40 9 C40.4125 8.34 40.825 7.68 41.25 7 C42.11625 6.01 42.11625 6.01 43 5 C44.32 5 45.64 5 47 5 C46.9175 5.7425 46.835 6.485 46.75 7.25 C47.07510715 10.8261787 48.48067435 11.55701755 51 14 C52.33180269 17.89296171 51.83331247 21.01861821 51 25 C51.99 25 52.98 25 54 25 C55.15837626 29.05431692 54.83691257 31.21812119 53 35 C53.639375 35.28875 54.27875 35.5775 54.9375 35.875 C57 37 57 37 58 39 C58.50802452 48.65246595 55.93097543 56.80991508 52.2265625 65.63671875 C51.67903824 66.96132866 51.67903824 66.96132866 51.12045288 68.31269836 C50.35245539 70.16544646 49.58080596 72.01668464 48.80566406 73.86645508 C47.6256085 76.68604607 46.4605012 79.51148577 45.296875 82.33789062 C44.54515486 84.14620108 43.79257971 85.95415639 43.0390625 87.76171875 C42.52166 89.01815437 42.52166 89.01815437 41.99380493 90.29997253 C39.67447042 95.8018541 37.27297761 100.72702239 33 105 C30.5625 105.75 30.5625 105.75 28 106 C25 104 25 104 24.3125 101.375 C24.209375 100.59125 24.10625 99.8075 24 99 C23.34 99 22.68 99 22 99 C21.67 98.34 21.34 97.68 21 97 C20.649375 97.804375 20.29875 98.60875 19.9375 99.4375 C18 102 18 102 14.5 102.9375 C11 103 11 103 8 101 C6.02 103.97 4.04 106.94 2 110 C0.68 109.67 -0.64 109.34 -2 109 C-2.226875 109.886875 -2.45375 110.77375 -2.6875 111.6875 C-4.23384933 115.59019117 -5.61141085 117.51503462 -9 120 C-12.8125 119.8125 -12.8125 119.8125 -16 119 C-16.66 117.35 -17.32 115.7 -18 114 C-18.37125 114.515625 -18.7425 115.03125 -19.125 115.5625 C-19.74375 116.036875 -20.3625 116.51125 -21 117 C-23.00636471 116.70740515 -25.00714063 116.37366113 -27 116 C-28.485 116.99 -28.485 116.99 -30 118 C-32.5625 118.25 -32.5625 118.25 -35 118 C-37.1385485 115.8614515 -37.42655063 114.86724686 -38 112 C-38.495 112.99 -38.495 112.99 -39 114 C-40.32 113.67 -41.64 113.34 -43 113 C-41.21687927 106.37152351 -38.87329286 100.14618482 -36.1796875 93.83813477 C-30.8317061 81.28028836 -26.07324175 68.55802961 -21.6484375 55.6484375 C-21.41647297 54.97185152 -21.18450844 54.29526554 -20.94551468 53.59817696 C-18.58389072 46.70065046 -16.24322779 39.79623995 -13.92691994 32.88336563 C-13.04201758 30.24672387 -12.15072019 27.61226688 -11.25859451 24.97806168 C-10.64435699 23.15510465 -10.0400765 21.32880206 -9.43612671 19.50241089 C-4.2855492 4.2855492 -4.2855492 4.2855492 0 0 Z M24 10 C25 12 25 12 25 12 Z M38 11 C39 13 39 13 39 13 Z M29 34 C30 36 30 36 30 36 Z M28 36 C29 38 29 38 29 38 Z M24.6875 41.1875 C23.800625 42.115625 22.91375 43.04375 22 44 C21.3503125 44.66 20.700625 45.32 20.03125 46 C17.11709774 50.30397872 16.08953518 54.81381943 14.8125 59.8125 C14.55275391 60.77220703 14.29300781 61.73191406 14.02539062 62.72070312 C12.59226496 68.14584293 11.54852436 73.41562549 11 79 C11.61875 78.195625 12.2375 77.39125 12.875 76.5625 C15 74 15 74 17 73 C17.33 73.66 17.66 74.32 18 75 C20.16877727 75.22713951 20.16877727 75.22713951 21.8125 73.3125 C22.534375 72.549375 23.25625 71.78625 24 71 C24.86496094 70.29359375 25.72992188 69.5871875 26.62109375 68.859375 C29.66059213 65.20598778 29.54811185 62.45472261 29.25 57.9375 C28.87166532 49.29097615 28.87166532 49.29097615 30 46 C29.34 45.67 28.68 45.34 28 45 C28 43.02 28 41.04 28 39 C26.59054342 38.88546669 26.59054342 38.88546669 24.6875 41.1875 Z M-35 103 C-34 105 -34 105 -34 105 Z M-37 108 C-36 110 -36 110 -36 110 Z " fill="#4AC9D7" transform="translate(157,4)"/>
<path d="M0 0 C1.423125 0.2475 1.423125 0.2475 2.875 0.5 C3.535 1.49 4.195 2.48 4.875 3.5 C7.43782742 4.22965366 7.43782742 4.22965366 9.875 4.5 C9.875 6.15 9.875 7.8 9.875 9.5 C10.1225 8.860625 10.37 8.22125 10.625 7.5625 C11.875 5.5 11.875 5.5 14 4.75 C14.61875 4.6675 15.2375 4.585 15.875 4.5 C15.875 5.49 15.875 6.48 15.875 7.5 C16.865 7.83 17.855 8.16 18.875 8.5 C19.24625 7.675 19.6175 6.85 20 6 C21.875 3.5 21.875 3.5 24.9375 3.0625 C27.875 3.5 27.875 3.5 29.875 5.5 C30.09825051 10.03942698 29.98220735 14.07117061 28.875 18.5 C29.865 17.84 30.855 17.18 31.875 16.5 C31.83375 17.44875 31.7925 18.3975 31.75 19.375 C31.52526182 22.60244856 31.52526182 22.60244856 33.875 24.5 C34.0703125 27.5390625 34.0703125 27.5390625 34 31.125 C33.98195312 32.31351563 33.96390625 33.50203125 33.9453125 34.7265625 C33.92210937 35.64179687 33.89890625 36.55703125 33.875 37.5 C34.865 37.17 35.855 36.84 36.875 36.5 C37.865 37.16 38.855 37.82 39.875 38.5 C40.203125 41.14453125 40.203125 41.14453125 40.125 44.3125 C40.10953125 45.35019531 40.0940625 46.38789062 40.078125 47.45703125 C39.89298486 50.23057302 39.41958019 52.78175357 38.875 55.5 C39.26897335 58.13804589 39.26897335 58.13804589 39.875 60.5 C39.875 61.16 39.875 61.82 39.875 62.5 C40.535 61.51 41.195 60.52 41.875 59.5 C42.535 59.5 43.195 59.5 43.875 59.5 C43.545 60.82 43.215 62.14 42.875 63.5 C43.535 63.5 44.195 63.5 44.875 63.5 C44.545 64.49 44.215 65.48 43.875 66.5 C43.23941162 66.79656494 42.60382324 67.09312988 41.94897461 67.39868164 C39.18462528 68.86660157 38.80548573 70.23113007 37.69140625 73.12109375 C37.32354004 74.05155518 36.95567383 74.9820166 36.57666016 75.94067383 C36.2007373 76.92962646 35.82481445 77.9185791 35.4375 78.9375 C34.64614873 80.95115724 33.85319815 82.96418675 33.05859375 84.9765625 C32.68202637 85.93852539 32.30545898 86.90048828 31.91748047 87.89160156 C30.70951937 90.91405036 29.38763755 93.86851517 28 96.8125 C24.86700305 103.5646486 22.66371899 110.08604152 21.875 117.5 C25.16648243 116.36500606 25.8709869 115.50716624 27.625 112.375 C28.0375 111.42625 28.45 110.4775 28.875 109.5 C29.535 109.5 30.195 109.5 30.875 109.5 C29.71914715 113.41211733 28.51965038 116.3745041 25.875 119.5 C23.895 119.17 21.915 118.84 19.875 118.5 C19.68107799 112.97322267 20.1270497 108.74385089 21.875 103.5 C20.39 104.49 20.39 104.49 18.875 105.5 C18.38 105.005 18.38 105.005 17.875 104.5 C17.9678125 103.3553125 17.9678125 103.3553125 18.0625 102.1875 C18.17639837 99.35275625 18.17639837 99.35275625 15.875 97.6875 C13.875 95.5 13.875 95.5 13.5625 91.625 C13.73560131 88.20144085 14.20239673 84.86301636 14.875 81.5 C14.215 82.49 13.555 83.48 12.875 84.5 C10.4375 83.875 10.4375 83.875 7.875 82.5 C5.81624014 77.48177285 7.65896518 72.93135953 9.18359375 67.98828125 C10.00886094 65.44867758 10.00886094 65.44867758 9.875 62.5 C8.225 62.5 6.575 62.5 4.875 62.5 C2.18062791 58.18900465 1.44337072 52.96645301 2.3125 48 C2.498125 47.505 2.68375 47.01 2.875 46.5 C1.885 46.5 0.895 46.5 -0.125 46.5 C-1.22742833 43.19271502 -0.9860103 42.20395783 -0.125 38.9375 C0.89553325 35.63239978 0.89553325 35.63239978 -0.125 32.5 C-1.445 33.16 -2.765 33.82 -4.125 34.5 C-6.13624138 30.47751725 -5.34104913 26.24266888 -4.125 22.0625 C-3.63 20.7940625 -3.63 20.7940625 -3.125 19.5 C-4.445 19.17 -5.765 18.84 -7.125 18.5 C-7.23364945 16.43867858 -7.31088321 14.37568679 -7.375 12.3125 C-7.42140625 11.16394531 -7.4678125 10.01539063 -7.515625 8.83203125 C-6.92817937 3.82112007 -5.11029139 0.81764662 0 0 Z M7.875 11.5 C8.875 13.5 8.875 13.5 8.875 13.5 Z M25.875 22.5 C26.875 24.5 26.875 24.5 26.875 24.5 Z M31.875 38.5 C32.875 40.5 32.875 40.5 32.875 40.5 Z M18.875 39.5 C19.875 41.5 19.875 41.5 19.875 41.5 Z M16.875 44.5 C17.875 46.5 17.875 46.5 17.875 46.5 Z M13.875 51.5 C14.875 53.5 14.875 53.5 14.875 53.5 Z M11.875 56.5 C12.875 58.5 12.875 58.5 12.875 58.5 Z M36.875 66.5 C37.875 68.5 37.875 68.5 37.875 68.5 Z M35.875 68.5 C36.875 70.5 36.875 70.5 36.875 70.5 Z M34.875 70.5 C35.875 73.5 35.875 73.5 35.875 73.5 Z M33.875 73.5 C34.875 75.5 34.875 75.5 34.875 75.5 Z M32.875 75.5 C33.875 77.5 33.875 77.5 33.875 77.5 Z M15.875 77.5 C16.875 79.5 16.875 79.5 16.875 79.5 Z M31.875 77.5 C32.875 80.5 32.875 80.5 32.875 80.5 Z M30.875 80.5 C31.875 82.5 31.875 82.5 31.875 82.5 Z M29.875 82.5 C30.875 85.5 30.875 85.5 30.875 85.5 Z M28.875 85.5 C29.875 87.5 29.875 87.5 29.875 87.5 Z M27.875 87.5 C28.875 89.5 28.875 89.5 28.875 89.5 Z M26.875 90.5 C27.875 92.5 27.875 92.5 27.875 92.5 Z M25.875 92.5 C26.875 94.5 26.875 94.5 26.875 94.5 Z M24.875 94.5 C25.875 97.5 25.875 97.5 25.875 97.5 Z M23.875 97.5 C24.875 99.5 24.875 99.5 24.875 99.5 Z M22.875 99.5 C23.875 101.5 23.875 101.5 23.875 101.5 Z " fill="#48C8D6" transform="translate(7.125,0.5)"/>
<path d="M0 0 C0.763125 0.226875 1.52625 0.45375 2.3125 0.6875 C2.3125 2.6675 2.3125 4.6475 2.3125 6.6875 C2.9725 7.0175 3.6325 7.3475 4.3125 7.6875 C4.580625 6.883125 4.84875 6.07875 5.125 5.25 C5.516875 4.404375 5.90875 3.55875 6.3125 2.6875 C7.3025 2.3575 8.2925 2.0275 9.3125 1.6875 C8.06341993 10.95698897 4.47319081 18.92960203 0.75289917 27.42373657 C-1.18796778 31.85692057 -3.09640585 36.30405359 -5.0078125 40.75 C-5.39914871 41.65829056 -5.79048492 42.56658112 -6.19367981 43.50239563 C-10.18054711 52.78086796 -13.97972525 62.1318903 -17.75 71.5 C-18.37609032 73.05127364 -19.00238916 74.60246313 -19.62890625 76.15356445 C-20.79576809 79.04308449 -21.9621306 81.93280494 -23.12792969 84.82275391 C-25.19684084 89.94995266 -27.26703108 95.07620069 -29.375 100.1875 C-29.66576416 100.91042236 -29.95652832 101.63334473 -30.25610352 102.37817383 C-31.9018262 106.33213184 -33.7377109 109.5634871 -36.6875 112.6875 C-37.3475 112.6875 -38.0075 112.6875 -38.6875 112.6875 C-38.3575 110.7075 -38.0275 108.7275 -37.6875 106.6875 C-41.68746286 108.02082095 -42.52532337 110.1832827 -44.6875 113.6875 C-46.3375 113.3575 -47.9875 113.0275 -49.6875 112.6875 C-49.92704245 108.11113486 -49.27795052 104.97963831 -47.484375 100.77734375 C-47.00500488 99.63821533 -46.52563477 98.49908691 -46.03173828 97.32543945 C-45.50039702 96.09192883 -44.96898215 94.85844992 -44.4375 93.625 C-43.88802409 92.3275476 -43.339705 91.02960474 -42.79248047 89.73120117 C-41.65684298 87.03924409 -40.51628691 84.34945402 -39.37207031 81.66113281 C-36.80770862 75.62589823 -34.31324449 69.5617979 -31.8125 63.5 C-31.32797363 62.33082031 -30.84344727 61.16164062 -30.34423828 59.95703125 C-27.86993319 53.98584786 -25.4075643 48.01016255 -22.9680481 42.02467346 C-21.72255417 38.96928377 -20.4737833 35.91523699 -19.22503662 32.86117554 C-18.62716098 31.39607829 -18.03094783 29.93030126 -17.43658447 28.46377563 C-5.6338359 -0.6550972 -5.6338359 -0.6550972 0 0 Z " fill="#FAFDFE" transform="translate(171.6875,6.3125)"/>
<path d="M0 0 C1.32 0 2.64 0 4 0 C4.495 4.455 4.495 4.455 5 9 C5.680625 7.700625 6.36125 6.40125 7.0625 5.0625 C9.17242544 1.67219245 9.64104229 1.11758959 13.625 -0.1875 C17 0 17 0 18.6875 1.5 C19.120625 1.995 19.55375 2.49 20 3 C22.05396726 2.59070014 22.05396726 2.59070014 24 2 C26 4 26 4 26 8 C26.4125 7.21625 26.825 6.4325 27.25 5.625 C29.09385619 2.85921572 29.8445999 1.90154289 33 1 C36.25 1.375 36.25 1.375 39 2 C39.84454356 5.37817425 40.10844919 7.67465243 39 11 C38.34 11 37.68 11 37 11 C37 8.69 37 6.38 37 4 C34.12054796 3.97020543 34.12054796 3.97020543 31 5 C29.36270514 7.30320587 28.30646334 9.17908363 27.18359375 11.72265625 C26.85064804 12.43220963 26.51770233 13.141763 26.17466736 13.87281799 C25.0829145 16.23502263 24.03539159 18.61257914 23 21 C22.64770325 21.81233093 22.29540649 22.62466187 21.93243408 23.46160889 C19.22986148 29.75474005 16.64288825 36.09354058 14.0625 42.4375 C13.24172704 44.44200987 12.42026362 46.44623716 11.59814453 48.45019531 C9.90870762 52.56922799 8.22183659 56.68929717 6.53662109 60.81005859 C2.8858147 69.72865516 -0.80432907 78.6309312 -4.49758911 87.53201294 C-5.61012909 90.21414888 -6.72110263 92.89692923 -7.83178711 95.57983398 C-8.504988 97.20428818 -9.1782433 98.82871983 -9.8515625 100.453125 C-10.15793137 101.19359573 -10.46430023 101.93406647 -10.779953 102.69697571 C-12.88566065 107.77132129 -12.88566065 107.77132129 -14 110 C-14.04022391 112.3329866 -14.04320247 114.66706666 -14 117 C-11.13357197 117.07145814 -11.13357197 117.07145814 -8 116 C-6.2836192 113.53514491 -5.05830467 111.43366037 -3.8125 108.75 C-3.15331088 107.41098179 -2.49317257 106.07243039 -1.83203125 104.734375 C-1.52217285 104.09435547 -1.21231445 103.45433594 -0.89306641 102.79492188 C0.75067191 99.49126848 2.38745372 96.61254628 5 94 C6 97 6 97 5 101 C6.32 98.36 7.64 95.72 9 93 C9.99 93.33 10.98 93.66 12 94 C12 95.98 12 97.96 12 100 C14.31 99.67 16.62 99.34 19 99 C18.505 100.485 18.505 100.485 18 102 C11.375 103.25 11.375 103.25 8 101 C6.02 103.97 4.04 106.94 2 110 C0.68 109.67 -0.64 109.34 -2 109 C-2.226875 109.886875 -2.45375 110.77375 -2.6875 111.6875 C-4.23384933 115.59019117 -5.61141085 117.51503462 -9 120 C-12.8125 119.8125 -12.8125 119.8125 -16 119 C-16.66 117.35 -17.32 115.7 -18 114 C-18.37125 114.515625 -18.7425 115.03125 -19.125 115.5625 C-19.74375 116.036875 -20.3625 116.51125 -21 117 C-23.00636471 116.70740515 -25.00714063 116.37366113 -27 116 C-28.485 116.99 -28.485 116.99 -30 118 C-32.5625 118.25 -32.5625 118.25 -35 118 C-37.1385485 115.8614515 -37.42655063 114.86724686 -38 112 C-38.495 112.99 -38.495 112.99 -39 114 C-40.32 113.67 -41.64 113.34 -43 113 C-41.21687927 106.37152351 -38.87329286 100.14618482 -36.1796875 93.83813477 C-30.8317061 81.28028836 -26.07324175 68.55802961 -21.6484375 55.6484375 C-21.41647297 54.97185152 -21.18450844 54.29526554 -20.94551468 53.59817696 C-18.58389072 46.70065046 -16.24322779 39.79623995 -13.92691994 32.88336563 C-13.04201758 30.24672387 -12.15072019 27.61226688 -11.25859451 24.97806168 C-10.64435699 23.15510465 -10.0400765 21.32880206 -9.43612671 19.50241089 C-4.2855492 4.2855492 -4.2855492 4.2855492 0 0 Z M12 2 C5.04003716 9.73329204 1.61824853 20.1026871 -2.1875 29.625 C-3.1580587 32.03026905 -4.12942885 34.43521081 -5.1015625 36.83984375 C-5.58657227 38.04108887 -6.07158203 39.24233398 -6.57128906 40.47998047 C-8.70203572 45.72965669 -10.87774013 50.96011522 -13.0625 56.1875 C-13.46855469 57.15969482 -13.87460938 58.13188965 -14.29296875 59.13354492 C-15.11262489 61.0950276 -15.93261136 63.05637228 -16.75292969 65.01757812 C-18.0373065 68.08922008 -19.31981781 71.16163382 -20.6015625 74.234375 C-21.03090088 75.26361084 -21.46023926 76.29284668 -21.90258789 77.35327148 C-22.74947026 79.3860788 -23.59504218 81.41943263 -24.43920898 83.45336914 C-26.32870618 88.00501335 -28.23016695 92.54959951 -30.18359375 97.07421875 C-30.679198 98.23642944 -30.679198 98.23642944 -31.18481445 99.42211914 C-31.78791964 100.83521135 -32.39905051 102.24492064 -33.02026367 103.65014648 C-34.6887336 107.58940551 -35.30222824 110.72938359 -35 115 C-33.35 115.33 -31.7 115.66 -30 116 C-29.401875 115.030625 -28.80375 114.06125 -28.1875 113.0625 C-26 110 -26 110 -23 109 C-23.33 110.98 -23.66 112.96 -24 115 C-20.80195066 113.66901226 -19.44682649 112.64287255 -18.01049805 109.48999023 C-17.51385147 108.4144136 -17.51385147 108.4144136 -17.00717163 107.31710815 C-16.67480499 106.55246246 -16.34243835 105.78781677 -16 105 C-15.66948639 104.24461945 -15.33897278 103.48923889 -14.9984436 102.71096802 C-13.92227733 100.20223457 -12.87418971 97.68320062 -11.83203125 95.16015625 C-11.43948151 94.21640137 -11.04693176 93.27264648 -10.64248657 92.30029297 C-9.36299044 89.22219675 -8.0876186 86.14241192 -6.8125 83.0625 C-5.92412002 80.92170625 -5.03552704 78.78100088 -4.14672852 76.64038086 C-2.32657103 72.25562106 -0.50806181 67.87018218 1.30957031 63.484375 C3.46110198 58.29530718 5.62037729 53.10952041 7.78416443 47.92555237 C9.34427843 44.18767536 10.90189511 40.44876062 12.45913696 36.70968628 C13.18827006 34.96035169 13.91837554 33.21142204 14.64950562 31.46292114 C15.66647281 29.02990359 16.67939742 26.5952396 17.69140625 24.16015625 C17.98429535 23.46212891 18.27718445 22.76410156 18.57894897 22.04492188 C22.47165033 13.28808637 22.47165033 13.28808637 24 4 C21.9837767 4.71563266 21.9837767 4.71563266 20 6 C19.19471111 8.05000871 19.19471111 8.05000871 19 10 C18.34 9.67 17.68 9.34 17 9 C17 7.02 17 5.04 17 3 C15.35 2.67 13.7 2.34 12 2 Z M24 10 C25 12 25 12 25 12 Z M-35 103 C-34 105 -34 105 -34 105 Z M-37 108 C-36 110 -36 110 -36 110 Z " fill="#48C8D6" transform="translate(157,4)"/>
<path d="M0 0 C26.46666667 0 26.46666667 0 33.05859375 5.81640625 C33.74115234 6.68072266 33.74115234 6.68072266 34.4375 7.5625 C34.91058594 8.14128906 35.38367188 8.72007813 35.87109375 9.31640625 C38.86923076 13.78767633 38.29706016 19.01867131 38.375 24.1875 C38.43107422 25.56905273 38.43107422 25.56905273 38.48828125 26.97851562 C38.57317098 33.62349501 37.24053201 37.84870755 33 43 C23.72356597 52.03857674 12.92060757 49 0 49 C0 32.83 0 16.66 0 0 Z " fill="#3DC5D4" transform="translate(465,74)"/>
<path d="M0 0 C0.99 0.33 1.98 0.66 3 1 C3.6875 3.0625 3.6875 3.0625 4 5 C4.66 4.01 5.32 3.02 6 2 C8.475 2.495 8.475 2.495 11 3 C10.45730764 9.7408104 8.07185575 15.51146278 5.5625 21.75 C5.08876953 22.94230225 4.61503906 24.13460449 4.12695312 25.36303711 C-1.19506024 38.6961382 -6.78059449 51.92315929 -12.35400391 65.15258789 C-15.76047307 73.24123274 -19.16127469 81.32937212 -22.42578125 89.4765625 C-22.80595901 90.42313972 -22.80595901 90.42313972 -23.19381714 91.38883972 C-24.32792242 94.21622231 -25.45319123 97.04660832 -26.56445312 99.88305664 C-31.25849687 111.64452608 -31.25849687 111.64452608 -35 116 C-37.8125 116.5 -37.8125 116.5 -40 116 C-40.495 113.03 -40.495 113.03 -41 110 C-43.475 110.99 -43.475 110.99 -46 112 C-46.57302417 106.13824455 -44.59205454 102.17867135 -42.1875 97 C-37.19498162 85.88907072 -32.50620625 74.66661673 -27.87106323 63.40289307 C-26.62424347 60.37316166 -25.37500916 57.34443551 -24.12524414 54.31591797 C-20.78264214 46.21171081 -17.4439369 38.10606835 -14.14468384 29.98410034 C-13.05497876 27.30257006 -11.96045951 24.62301904 -10.86541748 21.94366455 C-10.15164152 20.19043875 -9.44602109 18.43389943 -8.74072266 16.67724609 C-6.2970732 10.69845657 -3.6060091 5.36377698 0 0 Z " fill="#FAFDFE" transform="translate(98,5)"/>
<path d="M0 0 C0.78375 0.04125 1.5675 0.0825 2.375 0.125 C4.25013847 5.63321926 4.56757329 10.33710279 4.375 16.125 C3.92362898 19.98823949 3.92362898 19.98823949 5.8125 21.6875 C6.328125 22.161875 6.84375 22.63625 7.375 23.125 C8.42476964 26.27430893 8.47631595 28.51314456 8.4375 31.8125 C8.42847656 32.80636719 8.41945312 33.80023438 8.41015625 34.82421875 C8.39855469 35.58347656 8.38695312 36.34273437 8.375 37.125 C9.365 36.465 10.355 35.805 11.375 35.125 C12.695 35.785 14.015 36.445 15.375 37.125 C15.7821947 47.75730596 14.90785403 58.51857528 8 67.0625 C5.375 69.125 5.375 69.125 2.6875 69.5625 C0.375 69.125 0.375 69.125 -1.625 67.125 C-2.25 65 -2.25 65 -2.625 63.125 C-3.553125 64.548125 -3.553125 64.548125 -4.5 66 C-6.625 69.125 -6.625 69.125 -8.625 71.125 C-11.625 71.375 -11.625 71.375 -14.625 71.125 C-16.625 69.125 -16.625 69.125 -17 65.1875 C-17.16782584 63.03951744 -17.16782584 63.03951744 -17.625 61.125 C-18.264375 60.650625 -18.90375 60.17625 -19.5625 59.6875 C-22.50054188 57.4617107 -22.77295098 55.29845356 -23.48071289 51.76245117 C-23.75404265 46.76620507 -21.76426691 42.54486748 -19.875 38 C-19.46757568 36.97116699 -19.06015137 35.94233398 -18.64038086 34.88232422 C-17.33314052 31.61608624 -15.9857667 28.36927575 -14.625 25.125 C-14.16818848 24.02865234 -13.71137695 22.93230469 -13.24072266 21.80273438 C-11.09717713 16.68740348 -8.92274549 11.58550498 -6.69140625 6.5078125 C-6.34021729 5.70746582 -5.98902832 4.90711914 -5.62719727 4.08251953 C-4.12075417 1.14009303 -3.37643281 0.16078251 0 0 Z M6.375 39.125 C7.375 41.125 7.375 41.125 7.375 41.125 Z M-1.625 59.125 C-0.625 61.125 -0.625 61.125 -0.625 61.125 Z " fill="#FBFDFE" transform="translate(220.625,51.875)"/>
<path d="M0 0 C11.88 0 23.76 0 36 0 C36 4.29 36 8.58 36 13 C28.74 13 21.48 13 14 13 C14 14.65 14 16.3 14 18 C19.94 18 25.88 18 32 18 C32 22.29 32 26.58 32 31 C26.06 31 20.12 31 14 31 C14 32.65 14 34.3 14 36 C21.26 36 28.52 36 36 36 C36 40.29 36 44.58 36 49 C24.12 49 12.24 49 0 49 C0 32.83 0 16.66 0 0 Z " fill="#3EC5D4" transform="translate(516,74)"/>
<path d="M0 0 C11.88 0 23.76 0 36 0 C36 4.29 36 8.58 36 13 C28.74 13 21.48 13 14 13 C14 14.65 14 16.3 14 18 C19.94 18 25.88 18 32 18 C32 22.29 32 26.58 32 31 C26.06 31 20.12 31 14 31 C14 32.65 14 34.3 14 36 C21.26 36 28.52 36 36 36 C36 40.29 36 44.58 36 49 C24.12 49 12.24 49 0 49 C0 32.83 0 16.66 0 0 Z " fill="#3DC5D4" transform="translate(363,5)"/>
<path d="M0 0 C2.3125 0.1875 2.3125 0.1875 4 1 C4 1.66 4 2.32 4 3 C4.94875 2.814375 5.8975 2.62875 6.875 2.4375 C10 2 10 2 12 3 C13.91528081 8.74584242 11.91286086 13.5315955 10 19 C10.33 18.34 10.66 17.68 11 17 C11.66 17.33 12.32 17.66 13 18 C7.43466192 37.43556079 1.79637425 56.84843411 -4.03384399 76.20639038 C-4.58825665 78.04768084 -5.14148729 79.88932768 -5.69345093 81.73135376 C-7.42353885 87.50004835 -9.18985898 93.25592779 -11 99 C-11.2211145 99.71140137 -11.442229 100.42280273 -11.67004395 101.15576172 C-12.28440207 103.10993726 -12.92659416 105.05529831 -13.5703125 107 C-13.92109863 108.0725 -14.27188477 109.145 -14.63330078 110.25 C-16.2646921 113.53259947 -17.91202311 115.05504074 -21 117 C-24.3125 116.75 -24.3125 116.75 -27 116 C-27 113.03 -27 110.06 -27 107 C-27.37511719 107.84304687 -27.75023438 108.68609375 -28.13671875 109.5546875 C-28.90435547 111.19824219 -28.90435547 111.19824219 -29.6875 112.875 C-30.18636719 113.96554688 -30.68523437 115.05609375 -31.19921875 116.1796875 C-33.23052417 119.36103786 -34.37278273 120.14413974 -38 121 C-40.25 120.3125 -40.25 120.3125 -42 119 C-42.33 118.01 -42.66 117.02 -43 116 C-48.06834645 114.9329797 -51.85025792 115.23707525 -57 116 C-56.67 114.02 -56.34 112.04 -56 110 C-56.66 110 -57.32 110 -58 110 C-57.505 109.01 -57.505 109.01 -57 108 C-56.34 108.33 -55.68 108.66 -55 109 C-55 110.65 -55 112.3 -55 114 C-52.63970913 113.04843367 -51.26801427 112.41387866 -49.8659668 110.2487793 C-49.41217651 109.17237183 -49.41217651 109.17237183 -48.94921875 108.07421875 C-48.4085376 106.81532837 -48.4085376 106.81532837 -47.85693359 105.53100586 C-47.47102051 104.59264893 -47.08510742 103.65429199 -46.6875 102.6875 C-46.26291504 101.68404541 -45.83833008 100.68059082 -45.40087891 99.64672852 C-40.81148308 88.72481002 -36.40672414 77.72391698 -31.98046875 66.73510742 C-26.49134663 53.12256107 -20.82218266 39.5892999 -15.10302734 26.07202148 C-14.77602341 25.29914291 -14.44901947 24.52626434 -14.11210632 23.72996521 C-13.50308025 22.29150222 -12.8934358 20.85330082 -12.28303528 19.41542053 C-8.88641742 11.42975226 -8.88641742 11.42975226 -7 3 C-6.34 3.66 -5.68 4.32 -5 5 C-4.2575 4.154375 -3.515 3.30875 -2.75 2.4375 C-1.8425 1.633125 -0.935 0.82875 0 0 Z M0 2 C-5.25306836 9.18352457 -8.28945085 17.44107389 -11.625 25.625 C-12.26882224 27.18876866 -12.91337259 28.75223771 -13.55859375 30.31542969 C-14.95606166 33.70446061 -16.34926366 37.09520168 -17.73925781 40.48730469 C-21.39661145 49.41076553 -25.07822571 58.32423025 -28.75799561 67.23846436 C-29.97049471 70.17845738 -31.18011272 73.11962125 -32.38916016 76.06103516 C-33.15512302 77.92096039 -33.92123304 79.78082503 -34.6875 81.640625 C-35.23644424 82.97684402 -35.23644424 82.97684402 -35.79647827 84.34005737 C-37.51006462 88.4896446 -39.25846093 92.61431199 -41.1171875 96.70117188 C-41.44630127 97.42866638 -41.77541504 98.15616089 -42.11450195 98.90570068 C-42.72259643 100.2390688 -43.34012775 101.56819664 -43.96948242 102.8916626 C-45.73260118 106.75445472 -46.30351194 109.76536272 -46 114 C-43.525 113.01 -43.525 113.01 -41 112 C-40.67 113.98 -40.34 115.96 -40 118 C-38.35 118 -36.7 118 -35 118 C-29.19414205 108.233266 -25.00829954 97.85501758 -20.6875 87.375 C-19.9019471 85.48131981 -19.115887 83.58784995 -18.3293457 81.69458008 C-16.70081486 77.77211913 -15.07579554 73.84822852 -13.453125 69.92333984 C-11.05511646 64.12684254 -8.63821409 58.33834789 -6.21875 52.55078125 C-5.0744918 49.80882654 -3.93081018 47.06663246 -2.7875061 44.32427979 C-2.06432265 42.59076622 -1.34020827 40.85764067 -0.61508179 39.12493896 C2.70969001 31.17468081 6.01494815 23.21348083 9.04296875 15.14453125 C9.44926514 14.07178955 9.85556152 12.99904785 10.27416992 11.89379883 C11.04688031 8.81309375 10.88735188 7.01713565 10 4 C7.52733235 4.34444881 7.52733235 4.34444881 5 5 C4.67 5.66 4.34 6.32 4 7 C3.34 5.35 2.68 3.7 2 2 C1.34 2 0.68 2 0 2 Z M8 21 C9 23 9 23 9 23 Z M7 23 C8 25 8 25 8 25 Z M6 25 C7 28 7 28 7 28 Z M5 28 C6 30 6 30 6 30 Z M4 30 C5 33 5 33 5 33 Z M3 33 C4 35 4 35 4 35 Z M2 35 C3 37 3 37 3 37 Z M1 38 C2 40 2 40 2 40 Z M0 40 C1 42 1 42 1 42 Z M-1 42 C0 45 0 45 0 45 Z M-2 45 C-1 47 -1 47 -1 47 Z M-3 47 C-2 49 -2 49 -2 49 Z M-4 50 C-3 52 -3 52 -3 52 Z M-5 52 C-4 54 -4 54 -4 54 Z M-6 54 C-5 57 -5 57 -5 57 Z M-7 57 C-6 59 -6 59 -6 59 Z M-8 59 C-7 62 -7 62 -7 62 Z M-9 62 C-8 64 -8 64 -8 64 Z M-10 64 C-9 66 -9 66 -9 66 Z M-11 66 C-10 69 -10 69 -10 69 Z M-12 69 C-11 71 -11 71 -11 71 Z M-13 71 C-12 74 -12 74 -12 74 Z M-14 74 C-13 76 -13 76 -13 76 Z M-15 76 C-14 78 -14 78 -14 78 Z M-16 78 C-15 81 -15 81 -15 81 Z M-17 81 C-16 83 -16 83 -16 83 Z M-18 83 C-17 86 -17 86 -17 86 Z M-19 86 C-18 88 -18 88 -18 88 Z M-20 88 C-19 90 -19 90 -19 90 Z M-21 91 C-20 93 -20 93 -20 93 Z M-22 93 C-21 95 -21 95 -21 95 Z M-23 95 C-22 98 -22 98 -22 98 Z M-24 98 C-23 100 -23 100 -23 100 Z M-25 100 C-24 103 -24 103 -24 103 Z M-26 103 C-25 105 -25 105 -25 105 Z " fill="#49C8D6" transform="translate(98,3)"/>
<path d="M0 0 C4.9657441 2.88399044 7.94841535 6.79771079 9.5625 12.3125 C9.5625 14.2925 9.5625 16.2725 9.5625 18.3125 C5.2725 18.3125 0.9825 18.3125 -3.4375 18.3125 C-4.4275 16.3325 -5.4175 14.3525 -6.4375 12.3125 C-7.71625 12.250625 -8.995 12.18875 -10.3125 12.125 C-11.03179687 12.09019531 -11.75109375 12.05539063 -12.4921875 12.01953125 C-13.13414062 12.11621094 -13.77609375 12.21289062 -14.4375 12.3125 C-16.93367831 16.05676746 -16.69813055 18.98625072 -16.625 23.3125 C-16.6240332 24.39917969 -16.6240332 24.39917969 -16.62304688 25.5078125 C-16.59657756 28.69589447 -16.4519479 31.26915629 -15.4375 34.3125 C-12.48085481 35.7908226 -9.69520263 35.37282783 -6.4375 35.3125 C-5.4475 33.3325 -4.4575 31.3525 -3.4375 29.3125 C0.8525 29.3125 5.1425 29.3125 9.5625 29.3125 C10.04273342 35.19535937 9.07179433 38.71726768 5.5625 43.3125 C1.0260301 47.72958911 -3.55345631 49.37764948 -9.8125 49.625 C-15.29711345 49.45907892 -20.06805291 48.48755786 -24.19921875 44.6953125 C-30.21128266 37.91172465 -30.77770176 32.84638543 -30.75 23.9375 C-30.76611328 22.90882812 -30.78222656 21.88015625 -30.79882812 20.8203125 C-30.80305655 14.25779894 -30.3562602 9.5494189 -25.7890625 4.484375 C-25.21929687 4.01515625 -24.64953125 3.5459375 -24.0625 3.0625 C-23.21558594 2.34320313 -23.21558594 2.34320313 -22.3515625 1.609375 C-15.73911042 -2.87089865 -7.23553422 -3.34677332 0 0 Z " fill="#3DC5D4" transform="translate(391.4375,74.6875)"/>
<path d="M0 0 C-1.17415678 7.08650377 -3.08866853 13.4872638 -5.8125 20.125 C-6.3084668 21.38763672 -6.3084668 21.38763672 -6.81445312 22.67578125 C-12.2340549 36.09475685 -12.2340549 36.09475685 -17.5859375 39.78125 C-21.57629783 43.44876564 -22.27457686 48.37339363 -23.625 53.5 C-24.05425781 55.03914063 -24.05425781 55.03914063 -24.4921875 56.609375 C-25.62342366 60.70239312 -26.72483065 64.7935114 -27.66918945 68.93408203 C-29.4323621 76.60423607 -32.08388092 83.73602144 -35.13354492 90.96582031 C-35.94353954 92.88934231 -36.73717254 94.81905979 -37.52929688 96.75 C-38.04853121 97.99779072 -38.56868093 99.24520101 -39.08984375 100.4921875 C-39.55253662 101.59933105 -40.01522949 102.70647461 -40.49194336 103.84716797 C-42.07796163 107.16299117 -43.77386409 110.07366716 -46 113 C-49.1875 113.9375 -49.1875 113.9375 -52 114 C-53 113 -53 113 -53.33984375 110.1171875 C-53.2391178 104.66142856 -50.7601134 100.02354121 -48.5625 95.125 C-47.54867412 92.79909441 -46.53711283 90.47220093 -45.52734375 88.14453125 C-45.25212891 87.51377182 -44.97691406 86.88301239 -44.69335938 86.23313904 C-41.26242611 78.35250255 -37.99671077 70.40344142 -34.71786499 62.45864868 C-32.89754906 58.05112658 -31.06917566 53.64694692 -29.2421875 49.2421875 C-26.85751854 43.49097837 -24.4787146 37.7374383 -22.11032104 31.97950745 C-20.93547907 29.12692155 -19.75493376 26.27672114 -18.57293701 23.42709351 C-18.03293648 22.12154821 -17.49545544 20.81495736 -16.96075439 19.50723267 C-14.14387543 12.62051453 -11.37189501 6.05170031 -7 0 C-3.86650268 -1.04449911 -3.01031744 -0.93423645 0 0 Z " fill="#F9FDFD" transform="translate(195,8)"/>
<path d="M0 0 C0.66 0 1.32 0 2 0 C2.29869549 5.44086669 1.46061587 9.12742541 -0.68359375 14.1171875 C-0.97036987 14.79496246 -1.257146 15.47273743 -1.5526123 16.17105103 C-2.50300376 18.41067713 -3.47039693 20.64254584 -4.4375 22.875 C-5.1121661 24.45838533 -5.78539549 26.04238351 -6.45727539 27.62695312 C-7.88622074 30.9951321 -9.32049426 34.36097217 -10.7578125 37.72558594 C-14.17903744 45.75290958 -17.51428642 53.81599663 -20.85159302 61.878479 C-21.90264474 64.41585487 -22.9566765 66.95197258 -24.01147461 69.48779297 C-24.683608 71.10637182 -25.35556636 72.72502336 -26.02734375 74.34375 C-26.35451889 75.13081329 -26.68169403 75.91787659 -27.01878357 76.72879028 C-28.75791941 80.93068851 -30.45618416 85.14496854 -32.10595703 89.3828125 C-32.45525772 90.27504517 -32.80455841 91.16727783 -33.16444397 92.08654785 C-33.8255337 93.7809838 -34.48007182 95.47799806 -35.12644958 97.17810059 C-37.13959968 102.33019199 -39.30749202 107.80383942 -43 112 C-43.99 112 -44.98 112 -46 112 C-46 110.35 -46 108.7 -46 107 C-46.66 107 -47.32 107 -48 107 C-47.42212981 102.84377976 -46.46924421 99.25112363 -44.890625 95.3671875 C-44.46523438 94.31273438 -44.03984375 93.25828125 -43.6015625 92.171875 C-43.15554687 91.08390625 -42.70953125 89.9959375 -42.25 88.875 C-41.81945313 87.81023437 -41.38890625 86.74546875 -40.9453125 85.6484375 C-36.50738172 74.69976994 -31.94260718 63.81447776 -27.1875 53 C-23.93512972 45.56817908 -20.7948299 38.10669008 -17.8125 30.5625 C-16.8539232 28.15647702 -15.89410076 25.75095614 -14.93359375 23.34570312 C-14.30457666 21.76526478 -13.67965646 20.18319044 -13.05859375 18.59960938 C-12.16233083 16.32895165 -11.24094964 14.07015237 -10.3125 11.8125 C-10.05122314 11.13453369 -9.78994629 10.45656738 -9.52075195 9.75805664 C-8.73828125 7.89453125 -8.73828125 7.89453125 -7 5 C-4.375 4.203125 -4.375 4.203125 -2 4 C-0.63979849 2.03241727 -0.63979849 2.03241727 0 0 Z " fill="#F8FDFD" transform="translate(89,5)"/>
<path d="M0 0 C10.56 0 21.12 0 32 0 C32 4.29 32 8.58 32 13 C27.38 13 22.76 13 18 13 C18 20.59 18 28.18 18 36 C22.62 36 27.24 36 32 36 C32 40.29 32 44.58 32 49 C21.44 49 10.88 49 0 49 C0 44.71 0 40.42 0 36 C4.62 36 9.24 36 14 36 C14 28.41 14 20.82 14 13 C9.38 13 4.76 13 0 13 C0 8.71 0 4.42 0 0 Z " fill="#3EC5D4" transform="translate(314,5)"/>
<path d="M0 0 C1.25541557 3.76624671 0.37061958 5.37188934 -1 9 C0.65 9.99 2.3 10.98 4 12 C4.29873597 24.63040015 0.10580977 34.48500446 -4.8125 45.875 C-5.54675211 47.62162756 -6.27918599 49.36902063 -7.00976562 51.1171875 C-9.58852572 57.24718849 -12.17318026 63.36782004 -15.0534668 69.36376953 C-15.35512253 69.99187531 -15.65677826 70.61998108 -15.96757507 71.26712036 C-17.11857483 73.19902262 -18.26981621 74.56280987 -20 76 C-22.6875 76.1875 -22.6875 76.1875 -25 76 C-25.12375 75.195625 -25.2475 74.39125 -25.375 73.5625 C-25.58125 72.716875 -25.7875 71.87125 -26 71 C-26.66 70.67 -27.32 70.34 -28 70 C-27.44649225 64.16710341 -25.76207795 59.417022 -23.46484375 54.05078125 C-23.10789932 53.19808151 -22.7509549 52.34538177 -22.38319397 51.46684265 C-21.24229261 48.74543068 -20.09038402 46.02885445 -18.9375 43.3125 C-17.81669082 40.65303931 -16.69825649 37.9925936 -15.58071899 35.33175659 C-14.83773357 33.56332327 -14.09325031 31.79551848 -13.34725952 30.02835083 C-11.4260107 25.46318738 -9.54590759 20.88581432 -7.72705078 16.27880859 C-7.36358047 15.35819138 -7.00011017 14.43757416 -6.62562561 13.48905945 C-5.9341172 11.72892414 -5.24724612 9.96695789 -4.56565857 8.20295715 C-4.2572554 7.41692612 -3.94885223 6.63089508 -3.63110352 5.82104492 C-3.36330582 5.12927658 -3.09550812 4.43750824 -2.81959534 3.72477722 C-2 2 -2 2 0 0 Z " fill="#FAFDFE" transform="translate(209,31)"/>
<path d="M0 0 C13.53 0 27.06 0 41 0 C39.36791066 4.08022334 38.1272064 6.40561046 35.55859375 9.78125 C25.93485477 22.99803769 21.66080038 32.57361474 23 49 C21.68 49 20.36 49 19 49 C19.07863281 47.70449219 19.15726563 46.40898438 19.23828125 45.07421875 C19.61797635 30.54950528 15.62571754 22.20515959 6.61523438 11.01269531 C0 2.76964933 0 2.76964933 0 0 Z " fill="#3DC5D4" transform="translate(615,74)"/>
<path d="M0 0 C1.32 0 2.64 0 4 0 C6.13017236 3.72623466 8.25322065 7.45648082 10.375 11.1875 C10.97828125 12.24259766 11.5815625 13.29769531 12.203125 14.38476562 C13.07324219 15.91713867 13.07324219 15.91713867 13.9609375 17.48046875 C14.49509277 18.41785889 15.02924805 19.35524902 15.57958984 20.32104492 C16.91255591 22.83507666 17.99961005 25.33862506 19 28 C19.66 28 20.32 28 21 28 C21.26731934 27.28884033 21.53463867 26.57768066 21.81005859 25.8449707 C23.03614748 22.91357682 24.46629021 20.24052993 26.0390625 17.48046875 C26.90917969 15.9480957 26.90917969 15.9480957 27.796875 14.38476562 C28.40015625 13.32966797 29.0034375 12.27457031 29.625 11.1875 C30.23601563 10.11306641 30.84703125 9.03863281 31.4765625 7.93164062 C32.98155885 5.28613924 34.48945791 2.6423375 36 0 C37.32 0 38.64 0 40 0 C40.0252689 6.81761894 40.04283244 13.63522589 40.05493164 20.45288086 C40.05997333 22.77417451 40.06680651 25.09546497 40.07543945 27.41674805 C40.08751225 30.74528795 40.09322979 34.07378602 40.09765625 37.40234375 C40.10281754 38.44712387 40.10797882 39.49190399 40.11329651 40.56834412 C40.11337204 41.52926468 40.11344757 42.49018524 40.11352539 43.48022461 C40.115746 44.33071884 40.11796661 45.18121307 40.12025452 46.05747986 C40 48 40 48 39 49 C36.11588825 49.08864512 33.25517191 49.11528526 30.37109375 49.09765625 C29.22259949 49.09614563 29.22259949 49.09614563 28.05090332 49.09460449 C25.17975373 49.08935663 22.30862542 49.07539547 19.4375 49.0625 C13.023125 49.041875 6.60875 49.02125 0 49 C0 32.83 0 16.66 0 0 Z M3 7 C3 19.54 3 32.08 3 45 C13.89 45 24.78 45 36 45 C36 33.12 36 21.24 36 9 C33.47907509 11.52092491 32.04728041 13.36734109 30.30078125 16.37890625 C29.81416016 17.21744141 29.32753906 18.05597656 28.82617188 18.91992188 C28.0769043 20.22799805 28.0769043 20.22799805 27.3125 21.5625 C26.80138672 22.43841797 26.29027344 23.31433594 25.76367188 24.21679688 C23.05644404 28.35741611 23.05644404 28.35741611 22 33 C20.21582031 32.84790039 20.21582031 32.84790039 18 32 C16.26074219 29.59155273 16.26074219 29.59155273 14.546875 26.43359375 C13.928125 25.30888672 13.309375 24.18417969 12.671875 23.02539062 C12.03096395 21.82958035 11.39034263 20.63361475 10.75 19.4375 C10.09495929 18.2369696 9.43872277 17.03709083 8.78125 15.83789062 C7.17560115 12.89813649 5.58253968 9.9522398 4 7 C3.67 7 3.34 7 3 7 Z " fill="#3DC5D3" transform="translate(565,74)"/>
<path d="M0 0 C0.78375 0.04125 1.5675 0.0825 2.375 0.125 C4.25013847 5.63321926 4.56757329 10.33710279 4.375 16.125 C3.92362898 19.98823949 3.92362898 19.98823949 5.8125 21.6875 C6.328125 22.161875 6.84375 22.63625 7.375 23.125 C8.42476964 26.27430893 8.47631595 28.51314456 8.4375 31.8125 C8.42847656 32.80636719 8.41945312 33.80023438 8.41015625 34.82421875 C8.39855469 35.58347656 8.38695312 36.34273437 8.375 37.125 C9.365 36.465 10.355 35.805 11.375 35.125 C12.695 35.785 14.015 36.445 15.375 37.125 C15.7821947 47.75730596 14.90785403 58.51857528 8 67.0625 C5.375 69.125 5.375 69.125 2.6875 69.5625 C0.375 69.125 0.375 69.125 -1.625 67.125 C-2.25 65 -2.25 65 -2.625 63.125 C-3.553125 64.548125 -3.553125 64.548125 -4.5 66 C-6.625 69.125 -6.625 69.125 -8.625 71.125 C-11.625 71.375 -11.625 71.375 -14.625 71.125 C-16.625 69.125 -16.625 69.125 -17 65.1875 C-17.16782584 63.03951744 -17.16782584 63.03951744 -17.625 61.125 C-18.264375 60.650625 -18.90375 60.17625 -19.5625 59.6875 C-22.50054188 57.4617107 -22.77295098 55.29845356 -23.48071289 51.76245117 C-23.75404265 46.76620507 -21.76426691 42.54486748 -19.875 38 C-19.46757568 36.97116699 -19.06015137 35.94233398 -18.64038086 34.88232422 C-17.33314052 31.61608624 -15.9857667 28.36927575 -14.625 25.125 C-14.16818848 24.02865234 -13.71137695 22.93230469 -13.24072266 21.80273438 C-11.09717713 16.68740348 -8.92274549 11.58550498 -6.69140625 6.5078125 C-6.34021729 5.70746582 -5.98902832 4.90711914 -5.62719727 4.08251953 C-4.12075417 1.14009303 -3.37643281 0.16078251 0 0 Z M-1.625 2.125 C-8.2524031 14.54675274 -13.50672062 27.40267328 -18.60693359 40.51635742 C-19.29169732 42.27096184 -20.01435319 44.01119703 -20.77197266 45.7355957 C-21.98548568 49.13475197 -21.39773175 51.64770713 -20.625 55.125 C-19.965 56.115 -19.305 57.105 -18.625 58.125 C-16.15 57.63 -16.15 57.63 -13.625 57.125 C-13.79 57.640625 -13.955 58.15625 -14.125 58.6875 C-14.77549 61.85863876 -14.6870734 64.89718334 -14.625 68.125 C-12.975 68.455 -11.325 68.785 -9.625 69.125 C-4.47619802 63.80951019 -2.09917482 57.81043705 0.625 51 C1.07101563 49.91589844 1.51703125 48.83179688 1.9765625 47.71484375 C5.41441081 39.42811571 5.41441081 39.42811571 6.5625 30.625 C6.57667969 29.8721875 6.59085938 29.119375 6.60546875 28.34375 C6.34917278 25.87635827 5.60345153 24.26143744 4.375 22.125 C3.055 22.125 1.735 22.125 0.375 22.125 C0.705 21.320625 1.035 20.51625 1.375 19.6875 C3.06966161 13.65026801 3.31356542 7.81847049 0.375 2.125 C-0.285 2.125 -0.945 2.125 -1.625 2.125 Z M6.375 39.125 C7.375 41.125 7.375 41.125 7.375 41.125 Z M-1.625 59.125 C-0.625 61.125 -0.625 61.125 -0.625 61.125 Z " fill="#4BC9D7" transform="translate(220.625,51.875)"/>
<path d="M0 0 C13.2 0 26.4 0 40 0 C40 4.29 40 8.58 40 13 C34.06 13 28.12 13 22 13 C22 24.88 22 36.76 22 49 C20.68 49 19.36 49 18 49 C18 37.12 18 25.24 18 13 C12.06 13 6.12 13 0 13 C0 8.71 0 4.42 0 0 Z " fill="#3DC5D4" transform="translate(412,5)"/>
<path d="M0 0 C0.99 0 1.98 0 3 0 C2.44281281 5.88332773 0.72440446 10.71862664 -1.5625 16.14453125 C-2.08952515 17.42102791 -2.08952515 17.42102791 -2.62719727 18.72331238 C-3.74395222 21.42289635 -4.87186861 24.11765327 -6 26.8125 C-6.75853476 28.64227888 -7.51635472 30.47235425 -8.2734375 32.30273438 C-9.65588872 35.63826635 -11.04049917 38.97285264 -12.43359375 42.30395508 C-12.71259521 42.97123123 -12.99159668 43.63850739 -13.27905273 44.32600403 C-13.81397947 45.56807158 -14.39520608 46.79041216 -15 48 C-15.04022391 50.3329866 -15.04320247 52.66706666 -15 55 C-12.13357197 55.07145814 -12.13357197 55.07145814 -9 54 C-7.2836192 51.53514491 -6.05830467 49.43366037 -4.8125 46.75 C-4.15331088 45.41098179 -3.49317257 44.07243039 -2.83203125 42.734375 C-2.36724365 41.7743457 -2.36724365 41.7743457 -1.89306641 40.79492188 C-0.24932809 37.49126848 1.38745372 34.61254628 4 32 C5 35 5 35 4 39 C5.32 36.36 6.64 33.72 8 31 C8.99 31.33 9.98 31.66 11 32 C11 33.98 11 35.96 11 38 C13.31 37.67 15.62 37.34 18 37 C17.67 37.99 17.34 38.98 17 40 C10.375 41.25 10.375 41.25 7 39 C5.02 41.97 3.04 44.94 1 48 C-0.32 47.67 -1.64 47.34 -3 47 C-3.226875 47.886875 -3.45375 48.77375 -3.6875 49.6875 C-5.23384933 53.59019117 -6.61141085 55.51503462 -10 58 C-13.8125 57.8125 -13.8125 57.8125 -17 57 C-17.66 55.35 -18.32 53.7 -19 52 C-19.37125 52.515625 -19.7425 53.03125 -20.125 53.5625 C-20.74375 54.036875 -21.3625 54.51125 -22 55 C-24.00636471 54.70740515 -26.00714063 54.37366113 -28 54 C-28.99 54.66 -29.98 55.32 -31 56 C-33.5625 56.25 -33.5625 56.25 -36 56 C-38.1385485 53.8614515 -38.42655063 52.86724686 -39 50 C-39.33 50.66 -39.66 51.32 -40 52 C-41.32 51.67 -42.64 51.34 -44 51 C-42.17778624 44.38757278 -39.94776396 38.19479329 -37 32 C-35.84042793 35.47871621 -36.22543349 36.34219645 -37.4375 39.6875 C-37.72496094 40.49574219 -38.01242188 41.30398437 -38.30859375 42.13671875 C-38.53675781 42.75160156 -38.76492187 43.36648437 -39 44 C-38.68546875 43.19175781 -38.3709375 42.38351563 -38.046875 41.55078125 C-37.61890625 40.48214844 -37.1909375 39.41351563 -36.75 38.3125 C-36.33234375 37.25675781 -35.9146875 36.20101562 -35.484375 35.11328125 C-33.98856888 31.97602473 -32.2151414 29.65816968 -30 27 C-29.22166466 24.81785432 -29.22166466 24.81785432 -29 23 C-28.34 23 -27.68 23 -27 23 C-27.6143522 29.56751151 -29.86408772 34.80339181 -32.56054688 40.77148438 C-34.41475173 45.03653944 -35.41301886 48.24652837 -35 53 C-32.59122743 52.88658466 -32.59122743 52.88658466 -30 52 C-28.9590934 50.35857037 -27.95495674 48.69287785 -27 47 C-26.01 47 -25.02 47 -24 47 C-24.33 48.98 -24.66 50.96 -25 53 C-20.19932991 48.88260265 -18.20665389 44.61080588 -15.8984375 38.7890625 C-15.53529449 37.90270111 -15.17215149 37.01633972 -14.79800415 36.1031189 C-13.64511177 33.28174858 -12.50976006 30.4537052 -11.375 27.625 C-10.60533791 25.73129438 -9.83451583 23.83805978 -9.0625 21.9453125 C-7.64163265 18.45943543 -6.22847234 14.97062106 -4.82177734 11.47900391 C-3.26583361 7.62941184 -1.65117374 3.80966277 0 0 Z M-36 41 C-35 43 -35 43 -35 43 Z M-38 46 C-37 48 -37 48 -37 48 Z " fill="#46C7D6" transform="translate(158,66)"/>
<path d="M0 0 C0.66 0.33 1.32 0.66 2 1 C2.44032071 8.51806849 1.28612778 14.84224277 -1 22 C-0.01 21.34 0.98 20.68 2 20 C1.31740979 24.49901343 -0.31354489 28.48061328 -2.08984375 32.63671875 C-2.39443008 33.35737015 -2.69901642 34.07802155 -3.01283264 34.82051086 C-3.65522223 36.33681909 -4.2999996 37.85211769 -4.94702148 39.36645508 C-5.93740335 41.6872735 -6.9173993 44.01228745 -7.89648438 46.33789062 C-8.52281936 47.81276266 -9.14975191 49.2873811 -9.77734375 50.76171875 C-10.07011703 51.45754562 -10.36289032 52.1533725 -10.66453552 52.87028503 C-11.872008 55.68016766 -12.81651981 57.81651981 -15 60 C-18.875 58.25 -18.875 58.25 -20 56 C-20.98460713 44.43086619 -15.30533678 33.30370855 -10.95703125 22.86352539 C-9.99323266 20.54622904 -9.04290392 18.22371826 -8.09375 15.90039062 C-7.47995533 14.41373664 -6.86539941 12.92739667 -6.25 11.44140625 C-5.82799316 10.40857262 -5.82799316 10.40857262 -5.39746094 9.35487366 C-3.94264198 5.88491262 -2.4349047 2.88182339 0 0 Z " fill="#F9FDFD" transform="translate(43,39)"/>
<path d="M0 0 C1 3 1 3 0.0625 5.1875 C-0.288125 5.785625 -0.63875 6.38375 -1 7 C0.65 6.67 2.3 6.34 4 6 C6.15224983 9.22837475 6.19911953 10.10288676 5.52978516 13.76245117 C2.84170624 25.11555865 -1.63147973 35.64675055 -6.25 46.3125 C-6.9068563 47.84283886 -7.5631101 49.37343648 -8.21875 50.90429688 C-9.80559038 54.60587555 -11.40047157 58.30388745 -13 62 C-13.33 62 -13.66 62 -14 62 C-14.02911321 58.9166866 -14.04683682 55.83340875 -14.0625 52.75 C-14.07087891 51.87730469 -14.07925781 51.00460938 -14.08789062 50.10546875 C-14.09272461 48.83896484 -14.09272461 48.83896484 -14.09765625 47.546875 C-14.10551147 46.38430176 -14.10551147 46.38430176 -14.11352539 45.19824219 C-14 43 -14 43 -13.36889648 40.84082031 C-13.24716064 40.23334961 -13.1254248 39.62587891 -13 39 C-13.66 38.34 -14.32 37.68 -15 37 C-14.72504661 30.93138592 -11.95120382 25.20993138 -9.75 19.625 C-9.36714844 18.62210938 -8.98429688 17.61921875 -8.58984375 16.5859375 C-6.24601719 10.5970295 -3.5919012 5.33690285 0 0 Z " fill="#F7FCFD" transform="translate(201,11)"/>
<path d="M0 0 C0.66 0 1.32 0 2 0 C2.41773682 0.92111572 2.83547363 1.84223145 3.26586914 2.79125977 C4.85115504 6.28625855 6.43751872 9.78076733 8.02416992 13.27514648 C8.70414073 14.77306478 9.38383865 16.271107 10.06323242 17.76928711 C11.05311286 19.95200645 12.04393691 22.13429463 13.03515625 24.31640625 C13.36198395 25.03663971 13.68881165 25.75687317 14.02554321 26.49893188 C15.67895966 30.13324912 17.35069407 33.75740234 19.05810547 37.36669922 C19.38419296 38.05722885 19.71028046 38.74775848 20.04624939 39.45921326 C20.66563356 40.76706519 21.28833322 42.07335362 21.91481018 43.37782288 C24 47.78017038 24 47.78017038 24 50 C8.82 50 -6.36 50 -22 50 C-20.00690479 44.02071437 -18.01708552 38.54790256 -15.3125 32.9296875 C-14.96872314 32.20435822 -14.62494629 31.47902893 -14.27075195 30.73171997 C-13.18533422 28.44381093 -12.09301227 26.15928914 -11 23.875 C-9.90835996 21.58294267 -8.81820635 19.29018928 -7.72924805 16.99685669 C-7.05548397 15.57904281 -6.37998197 14.16205294 -5.70239258 12.74606323 C-3.69614749 8.53785611 -1.81066755 4.29615697 0 0 Z M0 8 C-2.10107287 12.60748883 -4.20063703 17.21566102 -6.29882812 21.82446289 C-7.01228446 23.39105632 -7.72614707 24.95746478 -8.44042969 26.52368164 C-9.4691781 28.77962088 -10.49644623 31.03622915 -11.5234375 33.29296875 C-11.84122162 33.98899704 -12.15900574 34.68502533 -12.48641968 35.40214539 C-14.0806962 38.90931302 -15.56812474 42.42031184 -17 46 C-5.45 46 6.1 46 18 46 C16.12234934 40.36704803 14.38220289 35.34198399 11.93359375 30.03125 C11.65403336 29.42486694 11.37447296 28.81848389 11.08644104 28.19372559 C10.50316058 26.9323914 9.91745242 25.67217708 9.3293457 24.41308594 C8.42801679 22.4796577 7.53889384 20.54091272 6.65039062 18.6015625 C6.07884572 17.36945709 5.50660595 16.13767371 4.93359375 14.90625 C4.41853271 13.79572266 3.90347168 12.68519531 3.37280273 11.54101562 C2.25339546 8.88738311 2.25339546 8.88738311 0 8 Z " fill="#3DC5D3" transform="translate(482,4)"/>
<path d="M0 0 C0.66 0 1.32 0 2 0 C4.49106756 5.38901969 6.98127047 10.77843777 9.47070312 16.16821289 C10.31617368 17.99839847 11.16187271 19.82847852 12.0078125 21.65844727 C13.22978096 24.30196277 14.45090353 26.94586764 15.671875 29.58984375 C16.04495789 30.39646957 16.41804077 31.2030954 16.8024292 32.03416443 C17.87312326 34.35392668 18.93775345 36.67635869 20 39 C20.38240845 39.83056915 20.76481689 40.66113831 21.15881348 41.51687622 C21.52567261 42.32414154 21.89253174 43.13140686 22.27050781 43.96313477 C22.60270325 44.69033218 22.93489868 45.4175296 23.27716064 46.16676331 C24 48 24 48 24 50 C8.82 50 -6.36 50 -22 50 C-20.79681407 46.3904422 -19.72728433 43.20140164 -18.15234375 39.81811523 C-17.79857666 39.05389755 -17.44480957 38.28967987 -17.08032227 37.50230408 C-16.70319092 36.69587967 -16.32605957 35.88945526 -15.9375 35.05859375 C-15.54554443 34.21329605 -15.15358887 33.36799835 -14.74975586 32.49708557 C-13.50285393 29.80914369 -12.25168146 27.12321912 -11 24.4375 C-9.74898267 21.74790905 -8.49889646 19.05789251 -7.25024414 16.36720276 C-6.47491537 14.69700874 -5.69812561 13.02749193 -4.91967773 11.35874939 C-3.17602353 7.60759465 -1.47947452 3.86570812 0 0 Z M0 9 C-2.28602775 13.78371066 -4.56447421 18.57092872 -6.8359375 23.36157227 C-7.60989834 24.99114291 -8.38593006 26.61973165 -9.1640625 28.24731445 C-10.28149193 30.58550703 -11.39145222 32.92711736 -12.5 35.26953125 C-12.84998047 35.99775589 -13.19996094 36.72598053 -13.56054688 37.47627258 C-15.48926548 41.55837934 -15.48926548 41.55837934 -16 46 C-4.78 46 6.44 46 18 46 C16.10594689 40.31784067 14.36713529 35.32608006 11.86328125 29.99609375 C11.57897751 29.38733902 11.29467377 28.77858429 11.00175476 28.15138245 C10.10994636 26.24455276 9.21138319 24.34100311 8.3125 22.4375 C7.6994155 21.12977017 7.08678178 19.82182892 6.47460938 18.51367188 C4.98825841 15.33999516 3.49584 12.16921737 2 9 C1.34 9 0.68 9 0 9 Z " fill="#3DC5D3" transform="translate(329,73)"/>
<path d="M0 0 C0.66 0 1.32 0 2 0 C2.41773682 0.92111572 2.83547363 1.84223145 3.26586914 2.79125977 C4.85115504 6.28625855 6.43751872 9.78076733 8.02416992 13.27514648 C8.70414073 14.77306478 9.38383865 16.271107 10.06323242 17.76928711 C11.05311286 19.95200645 12.04393691 22.13429463 13.03515625 24.31640625 C13.36198395 25.03663971 13.68881165 25.75687317 14.02554321 26.49893188 C15.67895966 30.13324912 17.35069407 33.75740234 19.05810547 37.36669922 C19.38419296 38.05722885 19.71028046 38.74775848 20.04624939 39.45921326 C20.66563356 40.76706519 21.28833322 42.07335362 21.91481018 43.37782288 C24 47.78017038 24 47.78017038 24 50 C8.82 50 -6.36 50 -22 50 C-19.94708397 43.84125191 -17.85275669 38.21073985 -15.05859375 32.421875 C-14.69024918 31.64741028 -14.3219046 30.87294556 -13.94239807 30.07501221 C-12.7789841 27.63097482 -11.60861051 25.19035741 -10.4375 22.75 C-9.26412521 20.29476087 -8.09224805 17.83881978 -6.92189026 15.38214111 C-6.19715253 13.86192125 -5.47047563 12.34262383 -4.74156189 10.82440186 C-3.03594325 7.25689178 -1.41082176 3.6977001 0 0 Z M0 9 C-2.42350663 14.10748713 -4.8445182 19.21614624 -7.26318359 24.32592773 C-8.08703536 26.06551368 -8.9115786 27.80477232 -9.73681641 29.54370117 C-10.9200977 32.03739902 -12.10092016 34.53224782 -13.28125 37.02734375 C-13.65310425 37.80963852 -14.0249585 38.59193329 -14.40808105 39.39793396 C-16.19760277 42.57330301 -16.19760277 42.57330301 -17 46 C-5.45 46 6.1 46 18 46 C16.10594689 40.31784067 14.36713529 35.32608006 11.86328125 29.99609375 C11.57897751 29.38733902 11.29467377 28.77858429 11.00175476 28.15138245 C10.10994636 26.24455276 9.21138319 24.34100311 8.3125 22.4375 C7.6994155 21.12977017 7.08678178 19.82182892 6.47460938 18.51367188 C4.98825841 15.33999516 3.49584 12.16921737 2 9 C1.34 9 0.68 9 0 9 Z " fill="#3DC5D3" transform="translate(431,73)"/>
<path d="M0 0 C15.18 0 30.36 0 46 0 C44.76982077 3.6905377 43.6573473 6.94906059 42.04467773 10.41308594 C41.6676622 11.2270282 41.29064667 12.04097046 40.90220642 12.87957764 C40.29899315 14.16895233 40.29899315 14.16895233 39.68359375 15.484375 C39.26707047 16.38117981 38.85054718 17.27798462 38.42140198 18.20196533 C37.09645116 21.05272482 35.76700809 23.90136349 34.4375 26.75 C33.53942414 28.680855 32.64163458 30.6118432 31.74414062 32.54296875 C30.10644928 36.06427687 28.4678745 39.58516605 26.82592773 43.10449219 C26.4966478 43.81031433 26.16736786 44.51613647 25.82810974 45.24334717 C25.2342869 46.50301183 24.62279702 47.75440596 24 49 C23.34 49 22.68 49 22 49 C19.66943295 44.07496289 17.3399717 39.14940477 15.01147461 34.22338867 C14.22140388 32.55235127 13.43104623 30.88144949 12.64038086 29.21069336 C10.08520695 23.81105007 7.53700685 18.40820436 5 13 C4.45005371 11.82775879 3.90010742 10.65551758 3.33349609 9.44775391 C2.87668457 8.46081543 2.41987305 7.47387695 1.94921875 6.45703125 C1.56467529 5.62792236 1.18013184 4.79881348 0.78393555 3.94458008 C0 2 0 2 0 0 Z M5 3 C10.62641981 15.6850192 16.29467953 28.35028456 22 41 C22.66 41 23.32 41 24 41 C26.26497835 36.2333072 28.52517988 31.46439034 30.78100586 26.69335938 C31.54890525 25.07099562 32.31810091 23.44924475 33.08862305 21.828125 C34.19662263 19.49639668 35.29992511 17.16249612 36.40234375 14.828125 C36.91957253 13.74352997 36.91957253 13.74352997 37.44725037 12.63702393 C38.96703583 9.40815189 40.13032931 6.47868277 41 3 C29.12 3 17.24 3 5 3 Z " fill="#3DC5D4" transform="translate(256,5)"/>
<path d="M0 0 C2.475 0.495 2.475 0.495 5 1 C5.78456437 8.94371427 2.99192423 15.11064515 0 22.375 C-0.5019008 23.61977768 -1.00295294 24.86489785 -1.50317383 26.11035156 C-5.43448518 35.84389525 -9.60035668 45.46954054 -14 55 C-15.32 54.67 -16.64 54.34 -18 54 C-19.07497141 43.4891684 -16.05020374 35.42920464 -12 26 C-11.59297852 25.03835937 -11.18595703 24.07671875 -10.76660156 23.0859375 C-8.59629808 17.96575368 -6.40333293 12.85556569 -4.171875 7.76171875 C-3.8015918 6.91569092 -3.43130859 6.06966309 -3.04980469 5.19799805 C-2 3 -2 3 0 0 Z " fill="#F8FDFD" transform="translate(30,6)"/>
<path d="M0 0 C2.3125 0.1875 2.3125 0.1875 4 1 C4 1.66 4 2.32 4 3 C4.94875 2.814375 5.8975 2.62875 6.875 2.4375 C10 2 10 2 12 3 C13.91182937 8.7445489 11.92832979 13.02443243 9.8125 18.375 C9.50763672 19.18710937 9.20277344 19.99921875 8.88867188 20.8359375 C7.13296508 25.42948483 5.17297479 29.84325953 2.8996582 34.20385742 C1.95843253 36.08298829 1.16319091 37.98978502 0.375 39.9375 C-1 43 -1 43 -3 44 C-0.41921721 35.95794782 2.66792595 28.16859278 5.859375 20.3515625 C7.92149074 15.18944495 9.54886925 10.55357509 10 5 C6.12202338 4.56613908 6.12202338 4.56613908 4.25 6.5 C3.63125 7.2425 3.63125 7.2425 3 8 C2.505 5.525 2.505 5.525 2 3 C-1.01938733 3.65644673 -1.01938733 3.65644673 -2.02888489 5.61422729 C-2.33493149 6.31242584 -2.64097809 7.01062439 -2.95629883 7.72998047 C-3.30786545 8.51994415 -3.65943207 9.30990784 -4.02165222 10.12380981 C-4.57747734 11.41990677 -4.57747734 11.41990677 -5.14453125 12.7421875 C-5.73485893 14.08771194 -5.73485893 14.08771194 -6.33711243 15.4604187 C-10.61733295 25.28084362 -14.66590293 35.19660642 -18.6875 45.125 C-19.46360653 47.03304989 -20.24014315 48.94092488 -21.01708984 50.84863281 C-22.1959509 53.74321488 -23.37461132 56.63787571 -24.55194092 59.53308105 C-28.38197641 68.95013386 -32.24944435 78.35160824 -36.125 87.75 C-36.7287858 89.21499578 -37.33254643 90.68000193 -37.9362793 92.14501953 C-39.29027994 95.43024943 -40.64491179 98.71521852 -42 102 C-42.99 101.67 -43.98 101.34 -45 101 C-44.29253458 95.96885203 -42.29308442 91.53993158 -40.34375 86.890625 C-39.78178421 85.53514557 -39.78178421 85.53514557 -39.20846558 84.15228271 C-38.39872622 82.20093512 -37.58687111 80.25046442 -36.77313232 78.30078125 C-35.49097828 75.22838143 -34.21474799 72.15358 -32.93994141 69.078125 C-29.04813047 59.69577313 -25.13752902 50.32136167 -21.21026611 40.95379639 C-19.63564346 37.19598945 -18.06533104 33.43638858 -16.49536133 29.67663574 C-15.39191645 27.0404148 -14.28107779 24.40739215 -13.16992188 21.77441406 C-12.49574645 20.16225457 -11.82189974 18.54995755 -11.1484375 16.9375 C-10.84203339 16.21761902 -10.53562927 15.49773804 -10.21994019 14.75604248 C-8.59722416 10.84719442 -7.50917651 7.20460083 -7 3 C-6.34 3.66 -5.68 4.32 -5 5 C-4.2575 4.154375 -3.515 3.30875 -2.75 2.4375 C-1.8425 1.633125 -0.935 0.82875 0 0 Z " fill="#4BC9D7" transform="translate(98,3)"/>
<path d="M0 0 C0.66 0.33 1.32 0.66 2 1 C2.90026054 9.77253877 0.34778378 16.48545926 -3 24.5 C-3.50225329 25.73551735 -4.0033015 26.97152524 -4.50317383 28.20800781 C-8.44593492 37.9021885 -12.61378792 47.49863515 -17 57 C-17.99 57 -18.98 57 -20 57 C-20.33 56.67 -20.66 56.34 -21 56 C-19.63151619 43.17583723 -15.18999864 31.14489897 -10.30883789 19.30639648 C-9.4217209 17.14912881 -8.55502463 14.9843496 -7.68945312 12.81835938 C-7.12618149 11.43441437 -6.56177259 10.05093157 -5.99609375 8.66796875 C-5.73976669 8.0253862 -5.48343964 7.38280365 -5.21934509 6.7207489 C-3.81515814 3.35649676 -3.12526978 2.08351319 0 0 Z " fill="#F7FCFD" transform="translate(37,25)"/>
<path d="M0 0 C1.20952874 3.62858623 0.67132632 4.79168878 -0.4765625 8.3828125 C-0.81494141 9.45861572 -1.15332031 10.53441895 -1.50195312 11.64282227 C-1.87255859 12.79194092 -2.24316406 13.94105957 -2.625 15.125 C-3.37846116 17.51144834 -4.13106644 19.89816708 -4.8828125 22.28515625 C-5.25051758 23.44547363 -5.61822266 24.60579102 -5.99707031 25.80126953 C-7.22146849 29.70634862 -8.37077249 33.62914045 -9.5 37.5625 C-10.08942322 39.57097108 -10.68406266 41.57780816 -11.28125 43.58398438 C-11.82599646 45.41510222 -12.36700234 47.2473334 -12.90625 49.08007812 C-13.91916676 52.49669383 -14.9573886 55.90484017 -16 59.3125 C-16.32033203 60.40570557 -16.64066406 61.49891113 -16.97070312 62.62524414 C-18.36206698 67.10536549 -19.35961425 70.30201858 -22.5625 73.79296875 C-25 75 -25 75 -28 74 C-27.63635555 65.70713276 -24.82787695 58.98660162 -21.5625 51.4375 C-21.0189273 50.15682888 -20.47654423 48.87565223 -19.93530273 47.59399414 C-18.8334965 44.98865153 -17.72584732 42.38592159 -16.61328125 39.78515625 C-14.22161787 34.18655448 -11.89554868 28.56071086 -9.5625 22.9375 C-8.79344578 21.09224903 -8.02393298 19.2471891 -7.25390625 17.40234375 C-4.83378692 11.60245832 -2.41673302 5.80129714 0 0 Z " fill="#F6FCFD" transform="translate(101,43)"/>
<path d="M0 0 C-1.65529421 5.23347972 -3.68428801 10.27307257 -5.7734375 15.34375 C-6.13845367 16.23106812 -6.50346985 17.11838623 -6.87954712 18.03259277 C-7.64996921 19.90225836 -8.4215894 21.77143065 -9.19433594 23.64013672 C-10.37007706 26.4880754 -11.5366576 29.33965902 -12.703125 32.19140625 C-13.45516489 34.01325387 -14.20775099 35.83487612 -14.9609375 37.65625 C-15.3058725 38.50328491 -15.6508075 39.35031982 -16.00619507 40.22302246 C-17.93110806 44.84513806 -19.85727146 49.07614918 -23 53 C-23.99 53 -24.98 53 -26 53 C-26.40284602 46.95730963 -25.05849442 42.47796114 -22.875 36.875 C-22.55877686 36.0404126 -22.24255371 35.2058252 -21.91674805 34.34594727 C-19.63076976 28.39897047 -17.1061259 22.61715364 -14.3359375 16.87890625 C-13.03877603 14.08356121 -11.97998597 11.27311101 -10.9375 8.375 C-9.68185236 5.13343266 -9.19192158 4.15079552 -6.375 1.9375 C-5.59125 1.628125 -4.8075 1.31875 -4 1 C-2 0 -2 0 0 0 Z " fill="#F6FCFD" transform="translate(55,65)"/>
<path d="M0 0 C1.29006871 3.87020614 0.4299518 4.94490482 -1.203125 8.62109375 C-1.68910156 9.72130859 -2.17507812 10.82152344 -2.67578125 11.95507812 C-3.19527344 13.10427734 -3.71476562 14.25347656 -4.25 15.4375 C-4.75402344 16.58283203 -5.25804687 17.72816406 -5.77734375 18.90820312 C-9.91938208 28.19789276 -9.91938208 28.19789276 -13 32 C-14.65 31.67 -16.3 31.34 -18 31 C-18 29.02 -18 27.04 -18 25 C-18.66 24.67 -19.32 24.34 -20 24 C-20.4021875 25.299375 -20.4021875 25.299375 -20.8125 26.625 C-21.97111987 29.91791964 -23.38209839 32.91127875 -25 36 C-26.35793435 31.92619695 -25.16520063 30.44657886 -23.4375 26.5625 C-23.16518555 25.94866455 -22.89287109 25.3348291 -22.61230469 24.70239258 C-14.87353815 7.43676908 -14.87353815 7.43676908 -12 6 C-12 6.66 -12 7.32 -12 8 C-7.79766566 5.58047417 -3.92072351 2.84444647 0 0 Z " fill="#F5FCFC" transform="translate(186,73)"/>
<path d="M0 0 C1.32 0.33 2.64 0.66 4 1 C1.8757291 8.67775251 -0.87321528 16.00124654 -3.875 23.375 C-4.29652344 24.42171875 -4.71804687 25.4684375 -5.15234375 26.546875 C-9.54751617 37.43399935 -14.08345968 48.26222142 -18.6875 59.0625 C-19.27241211 60.44598633 -19.27241211 60.44598633 -19.86914062 61.85742188 C-20.4347168 63.18290039 -20.4347168 63.18290039 -21.01171875 64.53515625 C-21.34647217 65.322854 -21.68122559 66.11055176 -22.02612305 66.92211914 C-23 69 -23 69 -25 72 C-25 70.68 -25 69.36 -25 68 C-25.66 68 -26.32 68 -27 68 C-27 67.34 -27 66.68 -27 66 C-26.505 65.566875 -26.01 65.13375 -25.5 64.6875 C-23.7417768 63.09146049 -23.7417768 63.09146049 -24.03076172 60.71386719 C-23.99539109 57.59339151 -23.26888923 55.73727819 -22.0078125 52.890625 C-21.55051758 51.83810547 -21.09322266 50.78558594 -20.62207031 49.70117188 C-20.3642981 49.11553467 -20.10652588 48.52989746 -19.84094238 47.92651367 C-18.22858043 44.23275603 -16.67951387 40.51199863 -15.1171875 36.796875 C-14.41825604 35.14050374 -13.71903322 33.48425541 -13.01953125 31.828125 C-12.66713379 30.99345703 -12.31473633 30.15878906 -11.95166016 29.29882812 C-11.23077746 27.59224868 -10.50941919 25.88587006 -9.78759766 24.1796875 C-8.72932282 21.67770199 -7.67308938 19.17486272 -6.6171875 16.671875 C-6.29837616 15.91960632 -5.97956482 15.16733765 -5.65109253 14.39227295 C-3.646825 9.63523365 -1.78449626 4.84392583 0 0 Z " fill="#48C8D6" transform="translate(158,15)"/>
<path d="M0 0 C0.33 0 0.66 0 1 0 C1.31109881 6.60882438 0.61311527 11.23203716 -2 17.26953125 C-2.46741608 18.40239059 -2.46741608 18.40239059 -2.9442749 19.55813599 C-3.94830503 21.98261757 -4.97379437 24.39733267 -6 26.8125 C-6.69461648 28.47858911 -7.38764561 30.14534088 -8.07910156 31.81274414 C-9.43358391 35.07552643 -10.79500587 38.33526069 -12.16210938 41.59277344 C-14.74891156 47.77272388 -17.20748079 54.00232316 -19.65234375 60.23950195 C-21.24860817 64.26903916 -23.00159059 68.15366382 -25 72 C-26.47465373 67.4117672 -24.83874922 64.17913326 -23.125 59.875 C-22.46868273 58.16508548 -21.81519037 56.45408484 -21.1640625 54.7421875 C-20.8124707 53.82018555 -20.46087891 52.89818359 -20.09863281 51.94824219 C-18.1308526 46.66759466 -16.32453458 41.3314525 -14.5 36 C-11.75237849 28.02582296 -8.99489836 20.0561291 -6.125 12.125 C-5.85107422 11.35285156 -5.57714844 10.58070312 -5.29492188 9.78515625 C-3.95309972 6.11595522 -2.66139886 2.90472676 0 0 Z " fill="#F2FBFC" transform="translate(158,6)"/>
<path d="M0 0 C1.32 0 2.64 0 4 0 C2.80443787 6.24397595 1.03735547 11.93560304 -1.40625 17.796875 C-1.89430115 18.99186615 -1.89430115 18.99186615 -2.39221191 20.21099854 C-3.42144354 22.72680892 -4.46047825 25.23842652 -5.5 27.75 C-6.19727803 29.44894661 -6.8938983 31.14816334 -7.58984375 32.84765625 C-8.86506456 35.95970579 -10.14421332 39.0700761 -11.42773438 42.17871094 C-12.6375875 45.11168279 -13.82968222 48.05097344 -15 51 C-16.28520696 47.14437913 -15.32679442 44.4793556 -14.3046875 40.69140625 C-14.11536652 39.96944565 -13.92604553 39.24748505 -13.73098755 38.50364685 C-13.32641736 36.97016669 -12.91759639 35.43780271 -12.50488281 33.90649414 C-11.88655002 31.60548129 -11.2860441 29.30036868 -10.6875 26.99414062 C-4.84673549 4.84673549 -4.84673549 4.84673549 0 0 Z " fill="#F4FBFC" transform="translate(74,6)"/>
<path d="M0 0 C0.99 0 1.98 0 3 0 C3.46453098 10.01322336 3.03677984 20.15901675 -4 28 C-7.25 28.875 -7.25 28.875 -10 29 C-9.52269885 22.39624432 -8.21223985 17.16921311 -5.5625 11.125 C-5.24990234 10.37992188 -4.93730469 9.63484375 -4.61523438 8.8671875 C-3.25452428 5.66822424 -1.93964097 2.90946145 0 0 Z " fill="#F6FCFD" transform="translate(231,90)"/>
<path d="M0 0 C0.33 1.98 0.66 3.96 1 6 C1.45375 5.505 1.9075 5.01 2.375 4.5 C4 3 4 3 6 3 C5.24731805 9.52836382 3.25811169 15.15145345 0.5 21.0625 C0.19118896 21.72967041 -0.11762207 22.39684082 -0.43579102 23.08422852 C-2.73578379 27.86789189 -2.73578379 27.86789189 -5 29 C-4.40546697 17.29384966 -4.40546697 17.29384966 -1 13 C-2.98 13.66 -4.96 14.32 -7 15 C-7.08107583 13.06318839 -7.13922475 11.1254066 -7.1875 9.1875 C-7.22230469 8.10855469 -7.25710937 7.02960937 -7.29296875 5.91796875 C-7 3 -7 3 -5.73828125 1.11328125 C-4 0 -4 0 0 0 Z " fill="#F7FCFD" transform="translate(9,3)"/>
<path d="M0 0 C1.32 0.99 2.64 1.98 4 3 C3.34 4.32 2.68 5.64 2 7 C1.34 7 0.68 7 0 7 C0.99 8.485 0.99 8.485 2 10 C1.96856707 12.73990408 1.44521663 15.28417854 1 18 C0.34 17.01 -0.32 16.02 -1 15 C-1.95364587 16.90729174 -2.90707064 18.81469435 -3.859375 20.72265625 C-4.57390005 22.14925935 -5.29207782 23.57404525 -6.015625 24.99609375 C-8.51498103 29.92537925 -10.79478416 34.93269552 -13 40 C-14.21613353 36.35159941 -13.6586565 35.65577512 -12.125 32.25 C-10.80556757 29.31587754 -10.00024748 27.00207579 -9.6171875 23.7890625 C-8.81432666 18.8601067 -6.99211365 14.68039275 -5 10.125 C-4.63132812 9.25875 -4.26265625 8.3925 -3.8828125 7.5 C-1.15998455 1.15998455 -1.15998455 1.15998455 0 0 Z " fill="#49C8D6" transform="translate(131,74)"/>
<path d="M0 0 C0.99 0.33 1.98 0.66 3 1 C1.56532597 8.9931839 -1.29994927 16.05802155 -4.5 23.5 C-4.99886719 24.69109375 -5.49773438 25.8821875 -6.01171875 27.109375 C-9.74252175 35.87126088 -9.74252175 35.87126088 -12 37 C-11.68806536 35.27073126 -11.37542638 33.54158956 -11.0625 31.8125 C-10.88847656 30.84957031 -10.71445313 29.88664062 -10.53515625 28.89453125 C-10.27025391 27.46173828 -10.27025391 27.46173828 -10 26 C-9.88398438 25.24332031 -9.76796875 24.48664062 -9.6484375 23.70703125 C-8.66880185 19.61734749 -7.10230023 15.7825175 -5.5625 11.875 C-5.24990234 11.06417969 -4.93730469 10.25335938 -4.61523438 9.41796875 C-3.27488677 5.98917254 -2.05507552 3.08261328 0 0 Z " fill="#EEFAFB" transform="translate(20,8)"/>
<path d="M0 0 C3.13333089 0.90701684 4.64306286 1.41592104 6.375 4.25 C7.28925083 8.27270363 6.986453 11.39052405 4.8125 14.9375 C2.03387465 16.56634934 0.01472865 15.78645095 -3 15 C-4 14 -4 14 -4.3125 11.4375 C-3.90811269 6.98923964 -2.18195863 3.83790938 0 0 Z " fill="#47C8D6" transform="translate(238,104)"/>
<path d="M0 0 C0.66 0.33 1.32 0.66 2 1 C0.34292168 6.64913063 -1.47762012 11.26300637 -5 16 C-5.66 15.67 -6.32 15.34 -7 15 C-6.9175 14.2575 -6.835 13.515 -6.75 12.75 C-6.71295641 9.84352216 -6.71295641 9.84352216 -9.0625 8 C-9.701875 7.34 -10.34125 6.68 -11 6 C-10.75 3.25 -10.75 3.25 -10 1 C-8 4.75 -8 4.75 -8 7 C-6.68 7.33 -5.36 7.66 -4 8 C-2.68 5.36 -1.36 2.72 0 0 Z " fill="#4DCAD7" transform="translate(32,90)"/>
<path d="M0 0 C0.99 0.33 1.98 0.66 3 1 C3.9765625 7.0546875 3.9765625 7.0546875 4 9 C3.34 9.66 2.68 10.32 2 11 C-0.625 10.625 -0.625 10.625 -3 10 C-3.36923077 4.58461538 -3.36923077 4.58461538 -1.5 1.625 C-1.005 1.08875 -0.51 0.5525 0 0 Z " fill="#F2FBFC" transform="translate(239,107)"/>
<path d="M0 0 C1.22562472 3.67687416 0.99016642 5.25151285 0 9 C-1.0972182 10.89038799 -2.30941879 12.6825217 -3.5234375 14.5 C-6.59197121 19.69540099 -8.7203039 25.42218686 -11 31 C-12.35470569 26.93588292 -11.17822451 25.46791356 -9.47265625 21.58203125 C-9.20488876 20.96478683 -8.93712128 20.34754242 -8.66123962 19.71159363 C-7.80397518 17.74116236 -6.93346391 15.77690881 -6.0625 13.8125 C-5.47893573 12.47759876 -4.8962425 11.14231637 -4.31445312 9.80664062 C-2.88638262 6.53327754 -1.44637429 3.26532348 0 0 Z " fill="#ACE6EC" transform="translate(129,83)"/>
<path d="M0 0 C0.33 0 0.66 0 1 0 C1 3.63 1 7.26 1 11 C2.98 10.34 4.96 9.68 7 9 C6.79503906 9.66386719 6.59007812 10.32773437 6.37890625 11.01171875 C6.10949219 11.89472656 5.84007812 12.77773438 5.5625 13.6875 C5.29566406 14.55761719 5.02882813 15.42773438 4.75390625 16.32421875 C4.03655471 18.87025921 3.482459 21.4003423 3 24 C1 21 1 21 1.2421875 18.95703125 C1.828125 16.97135417 2.4140625 14.98567708 3 13 C1.68 12.67 0.36 12.34 -1 12 C-0.67 8.04 -0.34 4.08 0 0 Z " fill="#57CDDA" transform="translate(1,7)"/>
<path d="M0 0 C0.33 0 0.66 0 1 0 C0.48378772 6.83981276 -1.48590969 12.63876684 -4 19 C-4.66 18.67 -5.32 18.34 -6 18 C-4.41039668 11.76559832 -2.72399099 5.83712355 0 0 Z " fill="#4CC9D7" transform="translate(150,19)"/>
<path d="M0 0 C0.33 0.66 0.66 1.32 1 2 C0.13945779 4.5610676 -0.78122297 7.00910514 -1.8125 9.5 C-2.08642578 10.18964844 -2.36035156 10.87929687 -2.64257812 11.58984375 C-3.82841697 14.50751919 -4.7511018 16.7511018 -7 19 C-6.43736318 12.67033582 -4.65075343 6.78164333 -2 1 C-1.34 0.67 -0.68 0.34 0 0 Z " fill="#DAF4F6" transform="translate(139,59)"/>
<path d="M0 0 C0.33 0 0.66 0 1 0 C1.66 3.3 2.32 6.6 3 10 C4.65 10 6.3 10 8 10 C8.33 11.65 8.66 13.3 9 15 C8.34 14.34 7.68 13.68 7 13 C4.41645782 12.83312552 4.41645782 12.83312552 2 13 C-0.39692342 9.16492253 -0.63714778 5.42679713 -1 1 C-0.67 0.67 -0.34 0.34 0 0 Z " fill="#3EC5D4" transform="translate(10,50)"/>
<path d="M0 0 C0.66 0.33 1.32 0.66 2 1 C1.34 2.32 0.68 3.64 0 5 C-0.66 5 -1.32 5 -2 5 C-1.01 6.485 -1.01 6.485 0 8 C-0.03143293 10.73990408 -0.55478337 13.28417854 -1 16 C-1.33 14.68 -1.66 13.36 -2 12 C-2.66 12 -3.32 12 -4 12 C-3.34 8.7 -2.68 5.4 -2 2 C-1.34 2 -0.68 2 0 2 C0 1.34 0 0.68 0 0 Z " fill="#62D0DC" transform="translate(133,76)"/>
<path d="M0 0 C1.28773727 3.86321182 0.47579022 5.69207343 -0.6875 9.5625 C-1.02136719 10.71878906 -1.35523437 11.87507813 -1.69921875 13.06640625 C-3 16 -3 16 -5.14453125 17.40234375 C-6.06298828 17.69818359 -6.06298828 17.69818359 -7 18 C-5.64474464 13.78224268 -4.09799886 9.70578678 -2.375 5.625 C-1.92898437 4.56539062 -1.48296875 3.50578125 -1.0234375 2.4140625 C-0.68570313 1.61742187 -0.34796875 0.82078125 0 0 Z " fill="#D9F4F6" transform="translate(101,43)"/>
<path d="M0 0 C0.66 0 1.32 0 2 0 C2.55353075 11.70615034 2.55353075 11.70615034 -1 16 C-2.22602512 12.32192463 -1.70295577 10.11756073 -1.0625 6.3125 C-0.86785156 5.13300781 -0.67320313 3.95351563 -0.47265625 2.73828125 C-0.31667969 1.83464844 -0.16070312 0.93101563 0 0 Z " fill="#55CCDA" transform="translate(45,40)"/>
<path d="M0 0 C1.2065625 0.0309375 1.2065625 0.0309375 2.4375 0.0625 C1.2928125 1.0834375 1.2928125 1.0834375 0.125 2.125 C-2.89093331 5.42148525 -4.02129017 7.92556835 -5.5625 12.0625 C-6.2225 11.0725 -6.8825 10.0825 -7.5625 9.0625 C-6.9191152 7.748798 -6.27271785 6.43657102 -5.625 5.125 C-5.26535156 4.39410156 -4.90570313 3.66320312 -4.53515625 2.91015625 C-3.04223255 0.07420079 -3.04223255 0.07420079 0 0 Z " fill="#53CBD8" transform="translate(74.5625,4.9375)"/>
<path d="M0 0 C0.66 0.33 1.32 0.66 2 1 C1.01 3.97 0.02 6.94 -1 10 C-1.99 10 -2.98 10 -4 10 C-4.33 10.66 -4.66 11.32 -5 12 C-4.35550393 8.98782888 -3.34977818 6.48344164 -1.9375 3.75 C-1.57527344 3.04359375 -1.21304687 2.3371875 -0.83984375 1.609375 C-0.56269531 1.07828125 -0.28554688 0.5471875 0 0 Z " fill="#5ECFDC" transform="translate(32,90)"/>
<path d="M0 0 C0.66 0.33 1.32 0.66 2 1 C1.27991594 5.60853797 -0.31295939 9.67237409 -2 14 C-3.21065165 10.36804504 -2.62784815 8.93468371 -1.5625 5.3125 C-1.27503906 4.31863281 -0.98757812 3.32476562 -0.69140625 2.30078125 C-0.46324219 1.54152344 -0.23507813 0.78226563 0 0 Z " fill="#C4EDF2" transform="translate(61,43)"/>
<path d="M0 0 C0.66 0.66 1.32 1.32 2 2 C4.57061311 2.64767793 4.57061311 2.64767793 7 3 C7 4.32 7 5.64 7 7 C6.34 7 5.68 7 5 7 C5 6.01 5 5.02 5 4 C3.35 4 1.7 4 0 4 C0 2.68 0 1.36 0 0 Z " fill="#3DC4D3" transform="translate(10,2)"/>
<path d="M0 0 C0.33 0 0.66 0 1 0 C0.25 7.75 0.25 7.75 -2 10 C-1.85950482 8.52031676 -1.71245174 7.04125484 -1.5625 5.5625 C-1.48128906 4.73878906 -1.40007812 3.91507813 -1.31640625 3.06640625 C-1 1 -1 1 0 0 Z " fill="#58CCD9" transform="translate(150,19)"/>
</svg>
