<svg width="656" height="51" viewBox="0 0 656 51" fill="none" xmlns="http://www.w3.org/2000/svg">
<path d="M0.717384 1.01155H45.883L23.3002 49.9639L0.717384 1.01155ZM23.3002 43.9051L41.9585 3.559H4.71068L23.3002 43.9051ZM58.7741 13.198V1.0804H89.7566V13.198H75.5046V36.8824H89.7566V49H58.7741V36.8824H73.026V13.198H58.7741ZM108.018 1.0804H142.925V13.198H120.549V19.2568H139.138V30.7547H120.549V36.8824H142.925V49H108.018V1.0804ZM174.956 49V13.198H156.849V1.0804H195.542V13.198H177.435V49H174.956ZM249.744 49H204.578L227.161 0.0476493L249.744 49ZM208.571 46.4526H245.75L227.161 6.10645L208.571 46.4526ZM351.674 49H306.508L329.091 0.0476493L351.674 49ZM310.502 46.4526H347.681L329.091 6.10645L310.502 46.4526ZM399.816 30.8924C399.862 36.9054 398.141 41.6101 394.652 45.0067C391.164 48.3574 386.367 50.0328 380.263 50.0328C376.637 50.0328 373.286 49.2065 370.211 47.5541C367.181 45.9017 364.771 43.5608 362.981 40.5314C361.191 37.502 360.296 34.0136 360.296 30.0663V20.0141C360.296 16.1126 361.145 12.6472 362.844 9.6178C364.588 6.5884 366.952 4.2475 369.935 2.5951C372.965 0.896799 376.338 0.0476493 380.056 0.0476493C386.161 0.0476493 390.934 1.723 394.377 5.0737C397.865 8.3785 399.633 13.0603 399.678 19.1191H387.285C387.24 16.7782 386.597 14.9651 385.358 13.6799C384.164 12.3948 382.397 11.7522 380.056 11.7522C377.945 11.7522 376.201 12.4177 374.824 13.7488C373.447 15.0799 372.758 16.9618 372.758 19.3945V30.617C372.758 33.0497 373.47 34.9546 374.892 36.3316C376.361 37.6627 378.151 38.3283 380.263 38.3283C385.082 38.3283 387.492 35.8496 387.492 30.8924H399.816ZM453.604 49H408.439L431.021 0.0476493L453.604 49ZM412.432 46.4526H449.611L431.021 6.10645L412.432 46.4526ZM464.774 49V1.0804H482.606C486.094 1.0804 489.307 1.9525 492.245 3.6967C495.229 5.4409 497.592 7.80475 499.337 10.7883C501.081 13.7258 501.953 16.9388 501.953 20.4272V29.6531C501.953 33.1415 501.081 36.3775 499.337 39.361C497.592 42.2986 495.229 44.6395 492.245 46.3837C489.307 48.1279 486.094 49 482.606 49H464.774ZM515.739 1.0804H550.646V13.198H528.27V19.2568H546.859V30.7547H528.27V36.8824H550.646V49H515.739V1.0804ZM564.57 1.01155H567.324L584.054 30.617L600.716 1.01155H603.264V48.9311H564.57V1.01155ZM567.117 46.4526H600.716V6.1753L585.225 33.4399H582.815L567.117 5.7622V46.4526ZM614.433 1.0804H655.33L636.19 29.3777V49H633.643V29.3777L614.433 1.0804Z" fill="#D6C4C4"/>
<path d="M0.717384 1.01155H45.883L23.3002 49.9639L0.717384 1.01155ZM23.3002 43.9051L41.9585 3.559H4.71068L23.3002 43.9051ZM58.7741 13.198V1.0804H89.7566V13.198H75.5046V36.8824H89.7566V49H58.7741V36.8824H73.026V13.198H58.7741ZM108.018 1.0804H142.925V13.198H120.549V19.2568H139.138V30.7547H120.549V36.8824H142.925V49H108.018V1.0804ZM174.956 49V13.198H156.849V1.0804H195.542V13.198H177.435V49H174.956ZM249.744 49H204.578L227.161 0.0476493L249.744 49ZM208.571 46.4526H245.75L227.161 6.10645L208.571 46.4526ZM351.674 49H306.508L329.091 0.0476493L351.674 49ZM310.502 46.4526H347.681L329.091 6.10645L310.502 46.4526ZM399.816 30.8924C399.862 36.9054 398.141 41.6101 394.652 45.0067C391.164 48.3574 386.367 50.0328 380.263 50.0328C376.637 50.0328 373.286 49.2065 370.211 47.5541C367.181 45.9017 364.771 43.5608 362.981 40.5314C361.191 37.502 360.296 34.0136 360.296 30.0663V20.0141C360.296 16.1126 361.145 12.6472 362.844 9.6178C364.588 6.5884 366.952 4.2475 369.935 2.5951C372.965 0.896799 376.338 0.0476493 380.056 0.0476493C386.161 0.0476493 390.934 1.723 394.377 5.0737C397.865 8.3785 399.633 13.0603 399.678 19.1191H387.285C387.24 16.7782 386.597 14.9651 385.358 13.6799C384.164 12.3948 382.397 11.7522 380.056 11.7522C377.945 11.7522 376.201 12.4177 374.824 13.7488C373.447 15.0799 372.758 16.9618 372.758 19.3945V30.617C372.758 33.0497 373.47 34.9546 374.892 36.3316C376.361 37.6627 378.151 38.3283 380.263 38.3283C385.082 38.3283 387.492 35.8496 387.492 30.8924H399.816ZM453.604 49H408.439L431.021 0.0476493L453.604 49ZM412.432 46.4526H449.611L431.021 6.10645L412.432 46.4526ZM464.774 49V1.0804H482.606C486.094 1.0804 489.307 1.9525 492.245 3.6967C495.229 5.4409 497.592 7.80475 499.337 10.7883C501.081 13.7258 501.953 16.9388 501.953 20.4272V29.6531C501.953 33.1415 501.081 36.3775 499.337 39.361C497.592 42.2986 495.229 44.6395 492.245 46.3837C489.307 48.1279 486.094 49 482.606 49H464.774ZM515.739 1.0804H550.646V13.198H528.27V19.2568H546.859V30.7547H528.27V36.8824H550.646V49H515.739V1.0804ZM564.57 1.01155H567.324L584.054 30.617L600.716 1.01155H603.264V48.9311H564.57V1.01155ZM567.117 46.4526H600.716V6.1753L585.225 33.4399H582.815L567.117 5.7622V46.4526ZM614.433 1.0804H655.33L636.19 29.3777V49H633.643V29.3777L614.433 1.0804Z" fill="#194F19"/>
<path d="M0.717384 1.01155H45.883L23.3002 49.9639L0.717384 1.01155ZM23.3002 43.9051L41.9585 3.559H4.71068L23.3002 43.9051ZM58.7741 13.198V1.0804H89.7566V13.198H75.5046V36.8824H89.7566V49H58.7741V36.8824H73.026V13.198H58.7741ZM108.018 1.0804H142.925V13.198H120.549V19.2568H139.138V30.7547H120.549V36.8824H142.925V49H108.018V1.0804ZM174.956 49V13.198H156.849V1.0804H195.542V13.198H177.435V49H174.956ZM249.744 49H204.578L227.161 0.0476493L249.744 49ZM208.571 46.4526H245.75L227.161 6.10645L208.571 46.4526ZM351.674 49H306.508L329.091 0.0476493L351.674 49ZM310.502 46.4526H347.681L329.091 6.10645L310.502 46.4526ZM399.816 30.8924C399.862 36.9054 398.141 41.6101 394.652 45.0067C391.164 48.3574 386.367 50.0328 380.263 50.0328C376.637 50.0328 373.286 49.2065 370.211 47.5541C367.181 45.9017 364.771 43.5608 362.981 40.5314C361.191 37.502 360.296 34.0136 360.296 30.0663V20.0141C360.296 16.1126 361.145 12.6472 362.844 9.6178C364.588 6.5884 366.952 4.2475 369.935 2.5951C372.965 0.896799 376.338 0.0476493 380.056 0.0476493C386.161 0.0476493 390.934 1.723 394.377 5.0737C397.865 8.3785 399.633 13.0603 399.678 19.1191H387.285C387.24 16.7782 386.597 14.9651 385.358 13.6799C384.164 12.3948 382.397 11.7522 380.056 11.7522C377.945 11.7522 376.201 12.4177 374.824 13.7488C373.447 15.0799 372.758 16.9618 372.758 19.3945V30.617C372.758 33.0497 373.47 34.9546 374.892 36.3316C376.361 37.6627 378.151 38.3283 380.263 38.3283C385.082 38.3283 387.492 35.8496 387.492 30.8924H399.816ZM453.604 49H408.439L431.021 0.0476493L453.604 49ZM412.432 46.4526H449.611L431.021 6.10645L412.432 46.4526ZM464.774 49V1.0804H482.606C486.094 1.0804 489.307 1.9525 492.245 3.6967C495.229 5.4409 497.592 7.80475 499.337 10.7883C501.081 13.7258 501.953 16.9388 501.953 20.4272V29.6531C501.953 33.1415 501.081 36.3775 499.337 39.361C497.592 42.2986 495.229 44.6395 492.245 46.3837C489.307 48.1279 486.094 49 482.606 49H464.774ZM515.739 1.0804H550.646V13.198H528.27V19.2568H546.859V30.7547H528.27V36.8824H550.646V49H515.739V1.0804ZM564.57 1.01155H567.324L584.054 30.617L600.716 1.01155H603.264V48.9311H564.57V1.01155ZM567.117 46.4526H600.716V6.1753L585.225 33.4399H582.815L567.117 5.7622V46.4526ZM614.433 1.0804H655.33L636.19 29.3777V49H633.643V29.3777L614.433 1.0804Z" fill="#9AE0DF"/>
<path d="M0.717384 1.01155H45.883L23.3002 49.9639L0.717384 1.01155ZM23.3002 43.9051L41.9585 3.559H4.71068L23.3002 43.9051ZM58.7741 13.198V1.0804H89.7566V13.198H75.5046V36.8824H89.7566V49H58.7741V36.8824H73.026V13.198H58.7741ZM108.018 1.0804H142.925V13.198H120.549V19.2568H139.138V30.7547H120.549V36.8824H142.925V49H108.018V1.0804ZM174.956 49V13.198H156.849V1.0804H195.542V13.198H177.435V49H174.956ZM249.744 49H204.578L227.161 0.0476493L249.744 49ZM208.571 46.4526H245.75L227.161 6.10645L208.571 46.4526ZM351.674 49H306.508L329.091 0.0476493L351.674 49ZM310.502 46.4526H347.681L329.091 6.10645L310.502 46.4526ZM399.816 30.8924C399.862 36.9054 398.141 41.6101 394.652 45.0067C391.164 48.3574 386.367 50.0328 380.263 50.0328C376.637 50.0328 373.286 49.2065 370.211 47.5541C367.181 45.9017 364.771 43.5608 362.981 40.5314C361.191 37.502 360.296 34.0136 360.296 30.0663V20.0141C360.296 16.1126 361.145 12.6472 362.844 9.6178C364.588 6.5884 366.952 4.2475 369.935 2.5951C372.965 0.896799 376.338 0.0476493 380.056 0.0476493C386.161 0.0476493 390.934 1.723 394.377 5.0737C397.865 8.3785 399.633 13.0603 399.678 19.1191H387.285C387.24 16.7782 386.597 14.9651 385.358 13.6799C384.164 12.3948 382.397 11.7522 380.056 11.7522C377.945 11.7522 376.201 12.4177 374.824 13.7488C373.447 15.0799 372.758 16.9618 372.758 19.3945V30.617C372.758 33.0497 373.47 34.9546 374.892 36.3316C376.361 37.6627 378.151 38.3283 380.263 38.3283C385.082 38.3283 387.492 35.8496 387.492 30.8924H399.816ZM453.604 49H408.439L431.021 0.0476493L453.604 49ZM412.432 46.4526H449.611L431.021 6.10645L412.432 46.4526ZM464.774 49V1.0804H482.606C486.094 1.0804 489.307 1.9525 492.245 3.6967C495.229 5.4409 497.592 7.80475 499.337 10.7883C501.081 13.7258 501.953 16.9388 501.953 20.4272V29.6531C501.953 33.1415 501.081 36.3775 499.337 39.361C497.592 42.2986 495.229 44.6395 492.245 46.3837C489.307 48.1279 486.094 49 482.606 49H464.774ZM515.739 1.0804H550.646V13.198H528.27V19.2568H546.859V30.7547H528.27V36.8824H550.646V49H515.739V1.0804ZM564.57 1.01155H567.324L584.054 30.617L600.716 1.01155H603.264V48.9311H564.57V1.01155ZM567.117 46.4526H600.716V6.1753L585.225 33.4399H582.815L567.117 5.7622V46.4526ZM614.433 1.0804H655.33L636.19 29.3777V49H633.643V29.3777L614.433 1.0804Z" fill="#3FE896"/>
</svg>
